<svg width="24" height="24" viewBox="0 0 24 24" fill="none" xmlns="http://www.w3.org/2000/svg">
<g id="Icons">
<g id="Vector">
<path d="M12.0321 1.00008C5.99008 0.977667 1.01761 5.88897 1.00005 11.8971C0.982483 18.0367 5.87561 22.9759 11.9898 22.9898C18.0482 23.0031 22.9867 18.0942 23 12.0455C23.014 5.93863 18.133 1.02309 12.0321 1.00008ZM11.9994 22.4392C6.21599 22.4241 1.54756 17.7478 1.55301 11.9746C1.55786 6.22511 6.24567 1.55062 12.0079 1.55002C17.7841 1.55002 22.4495 6.22692 22.4459 12.0134C22.4422 17.7708 17.7496 22.4538 11.9994 22.4392Z" fill="#2A2D2E"/>
<path d="M16.799 14.561C16.9302 14.637 16.9775 14.8008 16.9025 14.9326C16.8268 15.0657 16.6549 15.1154 16.5224 15.0386C16.249 14.8802 15.9798 14.7244 15.7081 14.5672C15.576 14.4908 15.5319 14.3199 15.6087 14.1879C15.6851 14.0565 15.8524 14.0137 15.984 14.0897C16.2573 14.2478 16.5254 14.4027 16.799 14.561Z" fill="#2A2D2E"/>
<path d="M9.31156 8.49411C9.40725 8.61213 9.39391 8.7816 9.27619 8.87765C9.15814 8.97396 8.97974 8.95998 8.88359 8.84181C8.69003 8.60388 8.49621 8.36595 8.29409 8.11751C8.19747 7.99875 8.2176 7.82267 8.33672 7.7265C8.45535 7.63072 8.62738 7.6504 8.72342 7.76882C8.91996 8.01113 9.1133 8.24958 9.31156 8.49411Z" fill="#2A2D2E"/>
<path d="M15.6171 7.70262C15.737 7.79915 15.7614 7.98086 15.6627 8.09892C15.4624 8.3386 15.2633 8.57645 15.0595 8.82006C14.9616 8.93698 14.7886 8.95336 14.6714 8.85588C14.5536 8.75791 14.5369 8.58199 14.6356 8.46473C14.8411 8.22034 15.0385 7.98533 15.2403 7.74533C15.3368 7.6306 15.5004 7.60857 15.6171 7.70262Z" fill="#2A2D2E"/>
<path d="M17.5674 11.0738C17.5987 11.2255 17.5008 11.3835 17.3482 11.4108C17.0395 11.466 16.738 11.5203 16.4289 11.5757C16.2789 11.6027 16.1337 11.4914 16.1079 11.3412C16.0825 11.1928 16.1831 11.0626 16.3312 11.0356C16.6377 10.9798 16.9383 10.925 17.2496 10.8682C17.3971 10.8412 17.537 10.9269 17.5674 11.0738Z" fill="#2A2D2E"/>
<path d="M7.60139 11.0389C7.74735 11.0595 7.85144 11.1846 7.83537 11.3311C7.8187 11.4832 7.67923 11.5994 7.52755 11.5792C7.22295 11.5387 6.92278 11.4988 6.61469 11.4577C6.46487 11.4378 6.35823 11.3072 6.37619 11.1572C6.39458 11.0036 6.53628 10.8888 6.68947 10.9104C6.99959 10.9541 7.29812 10.9962 7.60139 11.0389Z" fill="#2A2D2E"/>
<path d="M8.33873 14.2273C8.41065 14.3612 8.36276 14.5325 8.22882 14.6044C7.95762 14.75 7.68948 14.8942 7.41291 15.043C7.27871 15.1152 7.11053 15.0633 7.03851 14.929C6.96646 14.7947 7.0178 14.6289 7.15213 14.5569C7.42195 14.4122 7.69032 14.2683 7.96845 14.1191C8.10239 14.0473 8.26683 14.0934 8.33873 14.2273Z" fill="#2A2D2E"/>
<path d="M10.5303 16.0453C10.6751 16.0921 10.7566 16.2482 10.7094 16.3929C10.6131 16.6887 10.5188 16.978 10.4225 17.2731C10.3755 17.417 10.2226 17.4965 10.0784 17.4502C9.93345 17.4036 9.85255 17.2475 9.89973 17.1027C9.99648 16.8059 10.0908 16.5163 10.1865 16.2223C10.2335 16.0782 10.3861 15.9986 10.5303 16.0453Z" fill="#2A2D2E"/>
<path d="M14.0772 17.0946C14.1234 17.2395 14.0454 17.3937 13.9005 17.44C13.7554 17.4864 13.5981 17.4067 13.5523 17.2615C13.4593 16.9667 13.3682 16.6786 13.2759 16.3867C13.2305 16.243 13.31 16.0893 13.4534 16.0429C13.5981 15.996 13.7527 16.076 13.7988 16.221C13.891 16.5106 13.9827 16.7984 14.0772 17.0946Z" fill="#2A2D2E"/>
<path d="M12.2677 6.65997C12.2677 6.51915 12.1536 6.40499 12.0128 6.40499C11.8719 6.40499 11.7578 6.51915 11.7578 6.65997V7.60419C11.7578 7.74502 11.8719 7.85918 12.0128 7.85918C12.1536 7.85918 12.2677 7.74502 12.2677 7.60419V6.65997Z" fill="#2A2D2E"/>
<path d="M12.0321 1.00008C5.99008 0.977667 1.01761 5.88897 1.00005 11.8971C0.982483 18.0367 5.87561 22.9759 11.9898 22.9898C18.0482 23.0031 22.9867 18.0942 23 12.0455C23.014 5.93863 18.133 1.02309 12.0321 1.00008ZM11.9994 22.4392C6.21599 22.4241 1.54756 17.7478 1.55301 11.9746C1.55786 6.22511 6.24567 1.55062 12.0079 1.55002C17.7841 1.55002 22.4495 6.22692 22.4459 12.0134C22.4422 17.7708 17.7496 22.4538 11.9994 22.4392Z" stroke="#2A2D2E"/>
<path d="M16.799 14.561C16.9302 14.637 16.9775 14.8008 16.9025 14.9326C16.8268 15.0657 16.6549 15.1154 16.5224 15.0386C16.249 14.8802 15.9798 14.7244 15.7081 14.5672C15.576 14.4908 15.5319 14.3199 15.6087 14.1879C15.6851 14.0565 15.8524 14.0137 15.984 14.0897C16.2573 14.2478 16.5254 14.4027 16.799 14.561Z" stroke="#2A2D2E"/>
<path d="M9.31156 8.49411C9.40725 8.61213 9.39391 8.7816 9.27619 8.87765C9.15814 8.97396 8.97974 8.95998 8.88359 8.84181C8.69003 8.60388 8.49621 8.36595 8.29409 8.11751C8.19747 7.99875 8.2176 7.82267 8.33672 7.7265C8.45535 7.63072 8.62738 7.6504 8.72342 7.76882C8.91996 8.01113 9.1133 8.24958 9.31156 8.49411Z" stroke="#2A2D2E"/>
<path d="M15.6171 7.70262C15.737 7.79915 15.7614 7.98086 15.6627 8.09892C15.4624 8.3386 15.2633 8.57645 15.0595 8.82006C14.9616 8.93698 14.7886 8.95336 14.6714 8.85588C14.5536 8.75791 14.5369 8.58199 14.6356 8.46473C14.8411 8.22034 15.0385 7.98533 15.2403 7.74533C15.3368 7.6306 15.5004 7.60857 15.6171 7.70262Z" stroke="#2A2D2E"/>
<path d="M17.5674 11.0738C17.5987 11.2255 17.5008 11.3835 17.3482 11.4108C17.0395 11.466 16.738 11.5203 16.4289 11.5757C16.2789 11.6027 16.1337 11.4914 16.1079 11.3412C16.0825 11.1928 16.1831 11.0626 16.3312 11.0356C16.6377 10.9798 16.9383 10.925 17.2496 10.8682C17.3971 10.8412 17.537 10.9269 17.5674 11.0738Z" stroke="#2A2D2E"/>
<path d="M7.60139 11.0389C7.74735 11.0595 7.85144 11.1846 7.83537 11.3311C7.8187 11.4832 7.67923 11.5994 7.52755 11.5792C7.22295 11.5387 6.92278 11.4988 6.61469 11.4577C6.46487 11.4378 6.35823 11.3072 6.37619 11.1572C6.39458 11.0036 6.53628 10.8888 6.68947 10.9104C6.99959 10.9541 7.29812 10.9962 7.60139 11.0389Z" stroke="#2A2D2E"/>
<path d="M8.33873 14.2273C8.41065 14.3612 8.36276 14.5325 8.22882 14.6044C7.95762 14.75 7.68948 14.8942 7.41291 15.043C7.27871 15.1152 7.11053 15.0633 7.03851 14.929C6.96646 14.7947 7.0178 14.6289 7.15213 14.5569C7.42195 14.4122 7.69032 14.2683 7.96845 14.1191C8.10239 14.0473 8.26683 14.0934 8.33873 14.2273Z" stroke="#2A2D2E"/>
<path d="M10.5303 16.0453C10.6751 16.0921 10.7566 16.2482 10.7094 16.3929C10.6131 16.6887 10.5188 16.978 10.4225 17.2731C10.3755 17.417 10.2226 17.4965 10.0784 17.4502C9.93345 17.4036 9.85255 17.2475 9.89973 17.1027C9.99648 16.8059 10.0908 16.5163 10.1865 16.2223C10.2335 16.0782 10.3861 15.9986 10.5303 16.0453Z" stroke="#2A2D2E"/>
<path d="M14.0772 17.0946C14.1234 17.2395 14.0454 17.3937 13.9005 17.44C13.7554 17.4864 13.5981 17.4067 13.5523 17.2615C13.4593 16.9667 13.3682 16.6786 13.2759 16.3867C13.2305 16.243 13.31 16.0893 13.4534 16.0429C13.5981 15.996 13.7527 16.076 13.7988 16.221C13.891 16.5106 13.9827 16.7984 14.0772 17.0946Z" stroke="#2A2D2E"/>
<path d="M12.2677 6.65997C12.2677 6.51915 12.1536 6.40499 12.0128 6.40499C11.8719 6.40499 11.7578 6.51915 11.7578 6.65997V7.60419C11.7578 7.74502 11.8719 7.85918 12.0128 7.85918C12.1536 7.85918 12.2677 7.74502 12.2677 7.60419V6.65997Z" stroke="#2A2D2E"/>
</g>
</g>
</svg>
