<svg width="22" height="22" viewBox="0 0 22 22" fill="none" xmlns="http://www.w3.org/2000/svg">
<g id="Group 1">
<g id="Vector">
<path d="M11.0076 0.478281C5.19639 0.466063 0.48117 5.17229 0.478263 10.9874C0.474774 16.8119 5.14406 21.4925 10.9855 21.5216C16.7745 21.5495 21.5182 16.8166 21.5217 11.0096C21.5246 5.188 16.8344 0.489917 11.0076 0.478281ZM10.993 20.9869C5.44116 20.9794 0.99746 16.5094 1.00851 10.9444C1.01897 5.4533 5.50686 0.997252 11.0145 1.00947C16.5408 1.02169 20.9938 5.48647 20.988 11.0096C20.9828 16.5303 16.5106 20.9945 10.993 20.9869Z" fill="#2A2D2E"/>
<path fill-rule="evenodd" clip-rule="evenodd" d="M2.01326e-06 10.9872C0.0030667 4.90791 4.93266 -0.0127497 11.0086 2.48167e-05C17.0989 0.0121871 22.003 4.924 22 11.0098C21.9964 17.0803 17.0386 22.0291 10.9832 21.9999C4.87983 21.9695 -0.00361977 17.0763 2.01326e-06 10.9872ZM11.0135 1.48773C5.76864 1.47609 1.49673 5.71976 1.48677 10.9453C1.47624 16.2471 5.70719 20.5015 10.9937 20.5087C16.2468 20.5159 20.5048 16.2659 20.5097 11.0091C20.5153 5.7502 16.2761 1.49936 11.0135 1.48773Z" fill="#2A2D2E"/>
</g>
<path id="Vector_2" d="M17.7304 6.66413C17.7304 6.49321 17.5585 6.37581 17.3993 6.438C15.8473 7.04428 14.3356 7.63508 12.8242 8.22528C12.8076 8.23178 12.7889 8.22478 12.7808 8.20883C12.7735 8.19435 12.777 8.17643 12.7895 8.16608C13.5548 7.53223 14.3202 6.8978 15.0993 6.25224C15.2132 6.1579 15.2239 5.98419 15.1278 5.87179C15.0339 5.76189 14.8729 5.75191 14.7614 5.84404C13.8957 6.55976 13.0482 7.26086 12.2009 7.9613C12.1842 7.97509 12.1597 7.97328 12.1453 7.95713C12.1335 7.94383 12.1312 7.92426 12.1403 7.9089C12.6966 6.96103 13.2526 6.01304 13.8162 5.05233C13.8906 4.92547 13.8398 4.75784 13.7123 4.68463C13.5863 4.61233 13.4332 4.65937 13.3596 4.78455C12.8053 5.72649 12.2642 6.64532 11.7238 7.56339C11.7126 7.58234 11.6891 7.58985 11.669 7.58082C11.6511 7.57277 11.6408 7.55356 11.6442 7.53423C11.8274 6.4853 12.0111 5.4357 12.1975 4.36815C12.2233 4.22054 12.1121 4.08019 11.9635 4.06081C11.824 4.04262 11.7033 4.13825 11.6786 4.27674C11.478 5.40262 11.283 6.49933 11.088 7.59578C11.085 7.61296 11.069 7.62467 11.0517 7.62267C11.037 7.62097 11.025 7.60993 11.0225 7.59537C10.831 6.49786 10.6395 5.40017 10.4439 4.27856C10.419 4.13577 10.2827 4.04008 10.1398 4.06434C9.99594 4.08877 9.89972 4.22518 9.9244 4.369C10.1099 5.45015 10.2914 6.50542 10.4728 7.56046C10.4758 7.57788 10.4664 7.59491 10.4501 7.60166C10.4329 7.60878 10.4128 7.60224 10.4034 7.58615C9.86087 6.65698 9.31827 5.7277 8.76845 4.78668C8.694 4.65926 8.52371 4.62094 8.39727 4.69703C8.27323 4.77168 8.23812 4.92846 8.31095 5.05357C8.84027 5.96296 9.36017 6.85571 9.87996 7.74778C9.89096 7.76666 9.88559 7.79097 9.86768 7.80348C9.85269 7.81394 9.83276 7.813 9.81849 7.80158C9.00368 7.14961 8.18925 6.49754 7.36316 5.83648C7.24892 5.74506 7.08041 5.76562 6.98868 5.87963C6.89689 5.9937 6.91695 6.15834 7.03115 6.24995C7.86217 6.91658 8.67659 7.56974 9.49132 8.22324C9.50578 8.23484 9.50884 8.25583 9.49878 8.2714C9.48959 8.28561 9.47186 8.2911 9.45609 8.28494C7.87431 7.66674 6.29237 7.04849 4.68439 6.4201C4.54371 6.36512 4.39175 6.46886 4.39175 6.61991C4.39175 9.57723 4.39582 12.534 4.38478 15.4913C4.38361 15.7339 4.47024 15.8212 4.67897 15.898C6.7325 16.6485 8.78138 17.413 10.8361 18.1594C10.9913 18.2159 11.2035 18.2141 11.3588 18.1571C13.385 17.4142 15.4036 16.6532 17.4287 15.9073C17.6496 15.8258 17.7374 15.7269 17.7368 15.4767C17.7269 12.5392 17.7304 9.60167 17.7304 6.66413ZM10.7919 17.342C10.7919 17.4509 10.6781 17.5273 10.5742 17.4948C10.5493 17.487 10.5251 17.4789 10.5012 17.47C8.73254 16.8184 6.96506 16.1621 5.19293 15.5186C4.98421 15.443 4.91677 15.3441 4.91735 15.1242C4.9249 12.5572 4.922 9.99031 4.92258 7.4228C4.92258 7.40341 4.92295 7.38401 4.9236 7.36438C4.92779 7.23681 5.05753 7.13783 5.17665 7.18368C6.97786 7.88709 8.77789 8.59398 10.5808 9.29273C10.7436 9.35614 10.7965 9.43992 10.796 9.61156C10.7907 12.1884 10.7925 14.7652 10.7919 17.342ZM16.9095 15.5314C15.1577 16.1737 13.4106 16.83 11.6617 17.4816C11.6559 17.4838 11.6502 17.4859 11.6444 17.488C11.4948 17.5428 11.3256 17.4349 11.3256 17.2757C11.3245 14.7367 11.3268 12.1983 11.3204 9.65927C11.3198 9.46843 11.3675 9.36255 11.5547 9.2904C13.3588 8.59165 15.1588 7.88476 16.9606 7.18077C17.0744 7.13631 17.1949 7.23337 17.1949 7.35553V7.41582C17.1949 9.98391 17.1914 12.5514 17.2013 15.1195C17.2019 15.3546 17.1257 15.4517 16.9095 15.5314Z" fill="#2A2D2E" stroke="#2A2D2E" stroke-width="0.5"/>
</g>
</svg>
