<?xml version="1.0" encoding="UTF-8"?>
<svg xmlns="http://www.w3.org/2000/svg" width="644" height="189" fill="none">
  <g clip-path="url(#a)">
    <mask id="b" style="mask-type:luminance" maskUnits="userSpaceOnUse" x="0" y="0" width="644" height="189">
      <path d="M643.31.457H.346v188.356H643.31V.457Z" fill="#fff"></path>
    </mask>
    <g mask="url(#b)" fill="#003D65">
      <path d="m123.453 50.268-12.992-15.904v41.72c-8.512 0-15.428 6.888-15.428 15.4H63.729L97.44 50.268l4.928-6.048-8.092-9.912-52.388 57.148 51.968 57.148.448-.532-46.732-56.588h16.156l34.076 41.692 12.628 15.456v-42.028C103.348 105.232 98 98.988 98 91.484c0-8.008 6.104-14.588 13.916-15.344 7.812.756 13.944 7.336 13.944 15.344h31.276l-33.684-41.216Z"></path>
      <path d="m127.116 34.337-.504.588 46.704 56.56h-16.184l-34.048 41.664v.028l-4.564 5.572 8.092 9.884L179 91.485l-51.884-57.148Zm211.431 65.688c.924 0 4.032-.112 5.936-1.372 2.268-1.568 2.52-4.004 2.52-5.712v-7.896c0-1.652-.224-4.032-2.24-5.6-1.26-1.036-3.36-1.568-6.244-1.568h-30.324v34.384h9.52v-12.236h6.552c.448.392 13.552 12.236 13.552 12.236h14.112s-12.572-9.968-15.4-12.236h2.016Zm-20.804-7.42v-7.28h17.528c1.428 0 1.988.28 2.212.448.42.336.476.812.476 1.372v3.64c0 .756-.056 1.12-.476 1.4-.252.112-.84.42-2.352.42h-17.388Zm-96.659 2.24h18.424v-8.456h-18.424v-7.252h31.584v-8.428h-42.504v41.552h42.896v-8.904h-31.976v-8.512Zm69.915 9.604h-21.364V77.905h-9.52v26.068c0 1.4 0 4.704 2.128 6.58 1.372 1.204 3.612 1.736 7.196 1.736h21.672c3.668 0 5.992-.56 7.28-1.764 1.4-1.288 2.128-3.472 2.128-6.496V77.905h-9.52v26.544ZM594.8 77.877s-14.672 18.48-15.82 19.936c-1.176-1.456-15.82-19.936-15.82-19.936h-7.392v34.384h9.52v-19.74c2.324 2.912 12.544 15.792 12.544 15.792h2.352s10.192-12.852 12.544-15.792v19.74h9.52V77.877H594.8Zm-74.249 20.3h15.96v-7.42h-15.96v-5.432h27.244v-7.448h-36.764v34.384h37.156v-7.84h-27.636v-6.244Zm-131.017-20.3h-25.62c-3.472 0-5.684.56-6.972 1.764-2.044 1.848-2.044 5.32-2.044 6.776v17.248c0 1.288 0 4.76 1.876 6.608 1.288 1.316 3.752 1.932 7.476 1.932h25.312c2.688 0 5.684-.14 7.476-2.016 1.848-1.96 1.848-5.096 1.848-6.132v-17.64c0-1.568 0-4.844-1.876-6.636-2.016-1.932-5.824-1.932-7.448-1.932m-.224 26.6h-24.92V85.717h24.92v18.732Zm104.109-14.084h-23.548V77.877h-9.52v34.384h9.52V98.485h23.548v13.776h9.52V77.877h-9.52v12.488Zm-52.17-19.656h-23.856c-2.268 0-6.048 0-8.316 2.156-2.408 2.324-2.408 6.356-2.408 8.092v21.056c0 1.708 0 5.768 2.408 8.092 2.24 2.156 6.048 2.156 8.316 2.156h23.856c2.268 0 6.048 0 8.316-2.156 2.408-2.324 2.408-6.384 2.408-8.092v-5.376h-10.92v6.72h-23.464V79.613h23.464v6.104h10.92v-4.76c0-1.736 0-5.768-2.408-8.092-2.24-2.156-6.048-2.156-8.316-2.156Z"></path>
    </g>
  </g>
  <defs>
    <clipPath id="a">
      <path fill="#fff" transform="translate(.332 .457)" d="M0 0h642.964v188.356H0z"></path>
    </clipPath>
  </defs>
</svg>
