<?xml version="1.0" encoding="UTF-8" standalone="no"?>
<!-- Creator: CorelDRAW 2017 -->

<svg
   xml:space="preserve"
   width="122.037mm"
   height="35.798mm"
   version="1.1"
   style="shape-rendering:geometricPrecision; text-rendering:geometricPrecision; image-rendering:optimizeQuality; fill-rule:evenodd; clip-rule:evenodd"
   viewBox="0 0 12052.21 3535.35"
   id="svg26"
   sodipodi:docname="logo-common.svg"
   inkscape:version="1.2.1 (9c6d41e410, 2022-07-14)"
   xmlns:inkscape="http://www.inkscape.org/namespaces/inkscape"
   xmlns:sodipodi="http://sodipodi.sourceforge.net/DTD/sodipodi-0.dtd"
   xmlns="http://www.w3.org/2000/svg"
   xmlns:svg="http://www.w3.org/2000/svg"><sodipodi:namedview
   id="namedview28"
   pagecolor="#ffffff"
   bordercolor="#000000"
   borderopacity="0.25"
   inkscape:showpageshadow="2"
   inkscape:pageopacity="0.0"
   inkscape:pagecheckerboard="0"
   inkscape:deskcolor="#d1d1d1"
   inkscape:document-units="mm"
   showgrid="false"
   inkscape:zoom="2.9225426"
   inkscape:cx="276.81376"
   inkscape:cy="67.749227"
   inkscape:window-width="1920"
   inkscape:window-height="1017"
   inkscape:window-x="-8"
   inkscape:window-y="-8"
   inkscape:window-maximized="1"
   inkscape:current-layer="Слой_x0020_1" />
 <defs
   id="defs4">
  <style
   type="text/css"
   id="style2">
   <![CDATA[
    .fil0 {fill:#FEFEFE}
    .fil1 {fill:#2B2A29}
    .fil2 {fill:#E31E24}
    .fil3 {fill:#000000;fill-rule:nonzero}
   ]]>
  </style>
 </defs>
 <g
   id="Слой_x0020_1"
   inkscape:label="Слой 1">
  <metadata
   id="CorelCorpID_0Corel-Layer" />
  <polygon
   class="fil0"
   points="2085.86,0 4171.73,3535.35 -0,3535.35 "
   id="polygon7" />
  <polygon
   class="fil0"
   points="2085.86,396.93 353.19,3333.64 3818.54,3333.64 "
   id="polygon9" />
  <polygon
   class="fil1"
   points="2085.86,555.7 494.47,3252.97 3677.26,3252.97 "
   id="polygon11" />
  <polygon
   class="fil2"
   points="2540.1,1325.59 1402.95,3252.97 3677.26,3252.97 "
   id="polygon13" />
  <polygon
   class="fil0"
   points="1939.79,1871.25 1119.54,3261.49 1398.06,3261.49 2066.79,2128.03 3081.59,2128.03 2929.53,1871.25 "
   id="polygon15" />
  <polygon
   class="fil3"
   points="2166,2297.87 2392.89,2297.87 2206.17,2626.35 2677.59,2297.87 2924.84,2297.87 2364.65,2703.18 2404.14,3276.98 2205.55,3276.47 2166.77,2846.59 2021.57,2950.97 1834.53,3279.89 1604.44,3279.89 "
   id="polygon17" />
  <path
   class="fil3"
   d="M4723.53 1266.55l-317.7 0 0 594.95 -176.33 0 0 -731.01 494.03 0 0 136.06zm402.54 181.29l0 0.51 120.98 -317.86 185.75 0 -246.07 579.88c-26.4,58.6 -56.2,99.89 -89.11,123.89 -32.9,23.81 -71.45,36.5 -115.67,37.86l-35.64 0 -27.07 -1.03 -3.09 -136.57c3.94,1.37 15.76,2.06 35.13,2.06 26.73,0 46.95,-4.63 60.49,-13.89 13.54,-9.09 24.5,-26.9 32.91,-53.47l8.56 -23.99 -264.06 -514.76 187.29 0 149.6 317.35zm888.52 -181.29l-316.84 0 0 115.49 91 0c57.91,0 108.98,9.94 153.53,29.65 44.55,19.7 78.82,47.64 102.64,83.63 24,35.99 35.99,77.11 35.99,123.71 0,71.97 -26.73,130.4 -80.19,175.13 -53.3,44.91 -124.92,67.34 -215.06,67.34l-265.1 0 0 -731.01 494.03 0 0 136.06zm-316.84 251.04l0 208.37 90.47 0c35.82,0 64.08,-10.11 85,-30.16 20.9,-20.05 31.35,-45.93 31.35,-77.8 0,-30.15 -10.27,-54.32 -31.01,-72.82 -20.73,-18.33 -49.52,-27.58 -86.36,-27.58l-89.45 0zm918.5 207.33l-241.44 0 -42.15 136.57 -188.33 0 268.18 -731.01 165.54 0 270.23 731.01 -189.35 0 -42.67 -136.57zm-199.28 -136.06l157.12 0 -78.82 -253.6 -78.31 253.6zm816.02 -215.39l119.44 -242.98 201.34 0 -204.25 362.42 209.74 368.59 -203.23 0 -123.03 -247.44 -123.04 247.44 -202.71 0 209.23 -368.59 -203.75 -362.42 200.83 0 119.44 242.98zm891.77 -242.98l176.32 0 0 731.01 -176.32 0 0 -460.95 -262.52 460.95 -176.16 0 0 -731.01 176.16 0 0 461.47 262.52 -461.47zm953.64 731.01l-175.31 0 0 -305.18 -259.44 0 0 305.18 -176.32 0 0 -731.01 176.32 0 0 290.28 259.44 0 0 -290.28 175.31 0 0 731.01zm751.59 -247.44c-2.4,50.89 -16.11,95.79 -41.29,134.86 -25.03,38.89 -60.33,69.05 -105.56,90.47 -45.41,21.42 -97.17,32.21 -155.43,32.21 -96.13,0 -171.7,-31.36 -226.88,-93.9 -55.18,-62.54 -82.94,-150.97 -82.94,-265.1l0 -36.16c0,-71.63 12.51,-134.34 37.53,-187.98 24.85,-53.8 60.84,-95.27 107.62,-124.58 46.95,-29.3 101.1,-43.87 162.62,-43.87 88.76,0 160.05,23.31 213.86,70.09 53.97,46.6 84.65,111.03 91.85,192.95l-175.64 0c-1.37,-44.38 -12.51,-76.43 -33.59,-95.8 -21.08,-19.36 -53.3,-29.13 -96.48,-29.13 -43.87,0 -75.92,16.45 -96.3,49.18 -20.39,32.74 -31.19,85.17 -32.21,157.13l0 51.76c0,77.97 9.76,133.65 29.47,167.07 19.53,33.42 53.29,50.21 101.1,50.21 40.45,0 71.46,-9.59 92.88,-28.62 21.42,-19.01 32.72,-49.35 34.09,-90.82l175.31 0zm380.26 -41.64l-83.28 0 0 289.08 -176.32 0 0 -731.01 176.32 0 0 282.73 67.69 0 140.69 -282.73 213.34 0 -200.83 337.4 225.85 393.61 -208.37 0 -155.08 -289.08zm894.34 -441.93l176.32 0 0 731.01 -176.32 0 0 -460.95 -262.53 460.95 -176.16 0 0 -731.01 176.16 0 0 461.47 262.53 -461.47zm771.3 0l176.32 0 0 731.01 -176.32 0 0 -460.95 -262.53 460.95 -176.16 0 0 -731.01 176.16 0 0 461.47 262.53 -461.47zm55.69 -196.56c0,45.75 -16.8,82.95 -50.72,111.39 -33.76,28.45 -78.65,42.67 -135.03,42.67 -56.2,0 -101.1,-14.22 -135.03,-42.67 -33.77,-28.44 -50.72,-65.63 -50.72,-111.39l114.98 0c0,20.05 6.34,35.65 18.85,46.96 12.5,11.14 29.81,16.8 51.92,16.8 22.1,0 39.24,-5.49 51.57,-16.29 12.17,-10.97 18.34,-26.73 18.34,-47.47l115.84 0z"
   id="path19" />
  <path
   class="fil3"
   d="M4489.1 2560.73l-83.27 0 0 289.09 -176.33 0 0 -731.02 176.33 0 0 282.74 67.68 0 140.69 -282.74 213.34 0 -200.83 337.4 225.86 393.62 -208.38 0 -155.08 -289.09zm1043.6 -61.35c0,71.28 -13.2,134.52 -39.76,189.35 -26.39,54.84 -63.92,97.17 -112.58,126.81 -48.84,29.65 -104.19,44.38 -166.56,44.38 -62.21,0 -117.38,-14.39 -165.54,-43.01 -48.31,-28.62 -85.85,-69.4 -112.74,-122.69 -26.91,-53.13 -41.13,-114.3 -42.51,-183.19l0 -41.13c0,-71.62 13.19,-134.85 39.41,-189.52 26.39,-54.83 63.92,-96.99 113.1,-126.81 49,-29.82 104.7,-44.73 167.41,-44.73 61.86,0 117.04,14.74 165.53,44.21 48.67,29.47 86.37,71.28 113.28,125.78 26.9,54.32 40.61,116.7 40.96,186.96l0 33.58zm-179.25 -30.5c0,-72.67 -12.17,-127.84 -36.5,-165.36 -24.16,-37.71 -58.95,-56.55 -104.01,-56.55 -88.42,0 -135.2,66.32 -140.18,198.77l-0.5 53.64c0,71.63 11.99,126.81 35.63,165.19 23.83,38.56 59.13,57.74 105.91,57.74 44.55,0 78.82,-18.84 102.99,-56.72 24.17,-37.87 36.32,-92.19 36.67,-163.13l0 -33.59zm556.77 91.85l-83.27 0 0 289.09 -176.33 0 0 -731.02 176.33 0 0 282.74 67.68 0 140.69 -282.74 213.34 0 -200.83 337.4 225.86 393.62 -208.38 0 -155.08 -289.09zm1046.85 41.64c-2.4,50.89 -16.11,95.8 -41.29,134.86 -25.03,38.89 -60.33,69.05 -105.56,90.47 -45.41,21.42 -97.17,32.21 -155.43,32.21 -96.13,0 -171.7,-31.36 -226.88,-93.9 -55.18,-62.54 -82.94,-150.97 -82.94,-265.09l0 -36.17c0,-71.63 12.51,-134.34 37.53,-187.98 24.85,-53.8 60.84,-95.27 107.62,-124.57 46.95,-29.31 101.1,-43.88 162.62,-43.88 88.76,0 160.05,23.31 213.86,70.09 53.97,46.6 84.65,111.03 91.85,192.95l-175.64 0c-1.37,-44.38 -12.51,-76.43 -33.59,-95.8 -21.08,-19.36 -53.3,-29.13 -96.48,-29.13 -43.87,0 -75.92,16.45 -96.3,49.18 -20.39,32.74 -31.19,85.17 -32.21,157.13l0 51.76c0,77.97 9.76,133.65 29.47,167.07 19.53,33.42 53.29,50.21 101.1,50.21 40.45,0 71.46,-9.59 92.88,-28.62 21.42,-19.01 32.72,-49.35 34.09,-90.82l175.31 0z"
   id="path21" />
  
 </g>
</svg>
