<svg width="14" height="15" viewBox="0 0 14 15" fill="none" xmlns="http://www.w3.org/2000/svg">
<g id="Icons">
<g id="Vector">
<path d="M11.4926 9.60716C11.3993 9.70037 11.2723 9.75971 11.1261 9.76071C10.8435 9.76265 10.6112 9.53036 10.6131 9.24774L10.6501 3.84878L5.2511 3.88574C4.96849 3.88768 4.7362 3.65539 4.73813 3.37277C4.74007 3.09015 4.97556 2.85466 5.25817 2.85273L11.1736 2.81223C11.4562 2.8103 11.6885 3.04259 11.6866 3.32521L11.6461 9.24067C11.6451 9.38685 11.5858 9.51394 11.4926 9.60716Z" fill="#E7E5E6"/>
<path d="M11.4501 3.77458L3.19316 12.0315C2.99201 12.2326 2.66067 12.2349 2.46226 12.0365C2.26384 11.8381 2.26611 11.5067 2.46726 11.3056L10.7242 3.04868C10.9253 2.84753 11.2566 2.84526 11.4551 3.04367C11.6535 3.24209 11.6512 3.57343 11.4501 3.77458Z" fill="#E7E5E6"/>
</g>
</g>
</svg>
