<svg width="15" height="14" viewBox="0 0 15 14" fill="none" xmlns="http://www.w3.org/2000/svg">
<g id="Icons">
<g id="Vector">
<path d="M12.1591 9.10716C12.0658 9.20037 11.9388 9.25971 11.7926 9.26071C11.51 9.26265 11.2777 9.03036 11.2796 8.74774L11.3166 3.34878L5.91761 3.38574C5.63499 3.38768 5.4027 3.15539 5.40463 2.87277C5.40657 2.59015 5.64206 2.35466 5.92468 2.35273L11.8401 2.31223C12.1227 2.3103 12.355 2.54259 12.3531 2.82521L12.3126 8.74067C12.3116 8.88685 12.2523 9.01394 12.1591 9.10716Z" fill="#2A2D2E"/>
<path d="M12.1166 3.27458L3.85967 11.5315C3.65852 11.7326 3.32717 11.7349 3.12876 11.5365C2.93035 11.3381 2.93261 11.0067 3.13376 10.8056L11.3907 2.54868C11.5918 2.34753 11.9231 2.34526 12.1216 2.54367C12.32 2.74209 12.3177 3.07343 12.1166 3.27458Z" fill="#2A2D2E"/>
</g>
</g>
</svg>
