<svg width="67" height="72" viewBox="0 0 67 72" fill="none" xmlns="http://www.w3.org/2000/svg">
<g id="Symbols">
<path id="Vector (Stroke)" fill-rule="evenodd" clip-rule="evenodd" d="M28.3342 4.8415C30.0509 3.06558 32.0212 2 34.1645 2C36.3078 2 38.2781 3.06558 39.9948 4.8415C41.7094 6.61528 43.2189 9.14271 44.4708 12.2046C44.95 13.3766 45.3935 14.6322 45.7976 15.9614C47.1566 15.645 48.4714 15.3993 49.7311 15.226C53.0226 14.7733 55.9774 14.8098 58.3785 15.3994C60.782 15.9895 62.6967 17.1535 63.7699 19.0022C64.8434 20.8514 64.9 23.0839 64.2117 25.4506C63.5242 27.8145 62.078 30.3783 60.0379 32.987C59.2582 33.984 58.3881 34.9921 57.4345 36.003C58.3887 37.0144 59.2593 38.0231 60.0394 39.0207C62.0796 41.6294 63.5258 44.1931 64.2132 46.557C64.9015 48.9238 64.845 51.1563 63.7714 53.0055C62.6982 54.8541 60.7835 56.0181 58.38 56.6083C55.9789 57.1979 53.0241 57.2343 49.7327 56.7816C48.4718 56.6082 47.1558 56.3623 45.7955 56.0454C45.392 57.3721 44.9491 58.6254 44.4708 59.7954C43.2189 62.8573 41.7094 65.3847 39.9948 67.1585C38.2781 68.9344 36.3078 70 34.1645 70C32.0212 70 30.0509 68.9344 28.3342 67.1585C26.6196 65.3847 25.1101 62.8573 23.8582 59.7954C23.3797 58.625 22.9367 57.3712 22.5331 56.0441C21.1743 56.3605 19.8597 56.6061 18.6002 56.7793C15.3087 57.232 12.3539 57.1956 9.9528 56.606C7.54932 56.0158 5.63464 54.8518 4.5614 53.0032C3.48786 51.154 3.43132 48.9215 4.1196 46.5547C4.80707 44.1908 6.25327 41.6271 8.29342 39.0184C9.07297 38.0216 9.94281 37.0137 10.8961 36.003C9.94341 34.9929 9.07408 33.9855 8.29495 32.9893C6.25481 30.3806 4.8086 27.8168 4.12113 25.4529C3.43286 23.0862 3.48939 20.8537 4.56294 19.0045C5.63618 17.1558 7.55086 15.9918 9.95434 15.4017C12.3555 14.8121 15.3102 14.7756 18.6017 15.2283C19.8601 15.4014 21.1735 15.6467 22.531 15.9627C22.9352 14.6331 23.3789 13.377 23.8582 12.2046C25.1101 9.14271 26.6196 6.61528 28.3342 4.8415ZM22.1162 17.4041C20.8283 17.1065 19.5849 16.8753 18.3959 16.7118C15.2174 16.2746 12.467 16.3264 10.3112 16.8558C8.15794 17.3845 6.66385 18.3701 5.86 19.7547C5.05645 21.1388 4.94542 22.9169 5.56114 25.0341C6.17771 27.1543 7.50728 29.5482 9.47702 32.0669C10.2144 33.0098 11.038 33.9658 11.9419 34.9268C14.2907 32.5783 17.0765 30.2311 20.214 27.9901C20.5964 24.1701 21.2467 20.5997 22.1162 17.4041ZM11.9419 37.0793C11.0374 38.0408 10.2133 38.9974 9.47548 39.9407C7.50574 42.4594 6.17618 44.8534 5.55961 46.9735C4.94389 49.0907 5.05492 50.8688 5.85846 52.2529C6.66231 53.6375 8.1564 54.6231 10.3097 55.1519C12.4654 55.6812 15.2158 55.733 18.3944 55.2959C19.5844 55.1322 20.829 54.9008 22.1181 54.6028C21.2481 51.4074 20.5975 47.837 20.2147 44.017C17.0768 41.7756 14.2908 39.4281 11.9419 37.0793ZM23.9893 55.6824C24.3736 56.9388 24.7936 58.1238 25.2451 59.2282C26.4534 62.1835 27.8732 64.5255 29.4115 66.1169C30.9476 67.706 32.5536 68.5014 34.1645 68.5014C35.7754 68.5014 37.3814 67.706 38.9175 66.1169C40.4558 64.5255 41.8756 62.1835 43.0839 59.2282C43.5353 58.1241 43.9551 56.9395 44.3394 55.6836C41.1202 54.8346 37.6838 53.6087 34.1639 52.0269C30.6442 53.6083 27.2081 54.8338 23.9893 55.6824ZM46.2106 54.6041C47.5011 54.9026 48.7471 55.1343 49.9385 55.2982C53.117 55.7353 55.8674 55.6835 58.0232 55.1542C60.1764 54.6254 61.6705 53.6398 62.4744 52.2552C63.2779 50.8711 63.3889 49.093 62.7732 46.9758C62.1567 44.8557 60.8271 42.4617 58.8574 39.943C58.119 38.9989 57.2941 38.0416 56.3888 37.0792C54.0393 39.4282 51.2527 41.7759 48.1142 44.0175C47.7314 47.8378 47.0806 51.4086 46.2106 54.6041ZM56.3887 34.9269C57.2935 33.965 58.1179 33.0083 58.8558 32.0646C60.8256 29.5459 62.1551 27.152 62.7717 25.0318C63.3874 22.9146 63.2764 21.1365 62.4728 19.7524C61.669 18.3678 60.1749 17.3822 58.0216 16.8535C55.8659 16.3241 53.1155 16.2723 49.9369 16.7095C48.7467 16.8732 47.5018 17.1047 46.2124 17.4028C47.0821 20.5985 47.7325 24.1693 48.1149 27.9896C51.2531 30.2308 54.0394 32.5782 56.3887 34.9269ZM44.3414 16.3231C43.9566 15.0647 43.5361 13.8778 43.0839 12.7718C41.8756 9.81648 40.4558 7.47446 38.9175 5.88308C37.3814 4.29397 35.7754 3.49857 34.1645 3.49857C32.5536 3.49857 30.9476 4.29397 29.4115 5.88308C27.8732 7.47446 26.4534 9.81648 25.2451 12.7718C24.7928 13.8782 24.3721 15.0654 23.9872 16.3243C27.2066 17.1729 30.6434 18.3984 34.1639 19.98C37.6845 18.398 41.1217 17.172 44.3414 16.3231ZM23.5712 17.7637C22.8187 20.5217 22.2308 23.5814 21.8447 26.8565C23.4797 25.7504 25.1998 24.6755 26.9942 23.6452C28.7846 22.6172 30.5766 21.6752 32.3534 20.8216C29.3079 19.5171 26.3494 18.4941 23.5712 17.7637ZM20.0417 29.9687C17.3823 31.9392 15.0115 33.9756 12.9857 36.0031C15.0115 38.0307 17.3826 40.0675 20.0422 42.0382C19.8966 40.0778 19.8207 38.0597 19.8207 36C19.8207 33.9427 19.8964 31.927 20.0417 29.9687ZM21.8455 45.1507C22.232 48.4258 22.8203 51.4853 23.5731 54.243C26.3507 53.5126 29.3087 52.4896 32.3535 51.1853C30.5772 50.332 28.7857 49.3901 26.9958 48.3625C25.2011 47.332 23.4807 46.257 21.8455 45.1507ZM35.9743 51.1854C39.0193 52.4902 41.9776 53.5135 44.7556 54.2442C45.5085 51.4863 46.0969 48.4265 46.4834 45.151C44.8494 46.2564 43.1303 47.3305 41.3371 48.3602C39.5455 49.3888 37.7522 50.3315 35.9743 51.1854ZM48.2867 42.0388C50.947 40.0679 53.3185 38.0309 55.3449 36.0031C53.3186 33.9754 50.9472 31.9387 48.2872 29.9681C48.4325 31.9266 48.5083 33.9425 48.5083 36C48.5083 38.0599 48.4324 40.0782 48.2867 42.0388ZM46.4843 26.8562C46.098 23.5807 45.5101 20.5208 44.7574 17.7625C41.979 18.4932 39.0201 19.5166 35.9744 20.8215C37.7528 21.6757 39.5465 22.6185 41.3386 23.6475C43.1316 24.677 44.8504 25.751 46.4843 26.8562ZM34.1639 21.6259C32.0457 22.6005 29.895 23.7076 27.7425 24.9435C25.589 26.18 23.5487 27.4793 21.6402 28.8169C21.4302 31.1266 21.3191 33.5303 21.3191 36C21.3191 38.4722 21.4304 40.8783 21.6408 43.1901C23.5496 44.528 25.5902 45.8275 27.744 47.0641C29.896 48.2997 32.0462 49.4066 34.1639 50.3811C36.2833 49.406 38.4351 48.2984 40.5888 47.0618C42.7412 45.826 44.7804 44.5274 46.6881 43.1906C46.8986 40.8786 47.0099 38.4723 47.0099 36C47.0099 33.5302 46.8988 31.1263 46.6888 28.8165C44.7813 27.4798 42.7424 26.1815 40.5904 24.9458C38.4361 23.709 36.2838 22.6011 34.1639 21.6259ZM34.1645 35.5811C33.9277 35.5811 33.7405 35.7713 33.7405 36C33.7405 36.2287 33.9277 36.4189 34.1645 36.4189C34.4013 36.4189 34.5885 36.2287 34.5885 36C34.5885 35.7713 34.4013 35.5811 34.1645 35.5811ZM32.7405 36C32.7405 35.2138 33.3807 34.5811 34.1645 34.5811C34.9483 34.5811 35.5885 35.2138 35.5885 36C35.5885 36.7862 34.9483 37.4189 34.1645 37.4189C33.3807 37.4189 32.7405 36.7862 32.7405 36Z" fill="#2A2D2E"/>
</g>
</svg>
