<svg width="108" height="54" viewBox="0 0 108 54" fill="none" xmlns="http://www.w3.org/2000/svg">
<g id="Symbols">
<path id="Vector (Stroke)" fill-rule="evenodd" clip-rule="evenodd" d="M4 27.5C4 14.5127 14.5497 4 27.5442 4C30.6618 4 33.6386 4.6051 36.3628 5.70429C39.087 4.6051 42.0638 4 45.1814 4C48.299 4 51.2758 4.6051 54 5.70429C56.7242 4.6051 59.701 4 62.8186 4C65.9362 4 68.913 4.6051 71.6372 5.70429C74.3614 4.6051 77.3382 4 80.4558 4C93.4503 4 104 14.5127 104 27.5C104 40.4873 93.4503 51 80.4558 51C77.3382 51 74.3614 50.3949 71.6372 49.2957C68.913 50.3949 65.9362 51 62.8186 51C59.701 51 56.7242 50.3949 54 49.2957C51.2758 50.3949 48.299 51 45.1814 51C42.0638 51 39.087 50.3949 36.3628 49.2957C33.6386 50.3949 30.6618 51 27.5442 51C14.5497 51 4 40.4873 4 27.5ZM38.3014 48.409C40.4659 49.1169 42.7785 49.4998 45.1814 49.4998C47.5843 49.4998 49.8968 49.1169 52.0614 48.409C49.4455 47.0655 47.1139 45.2473 45.1814 43.068C43.2489 45.2473 40.9173 47.0655 38.3014 48.409ZM55.9386 48.409C58.1031 49.1169 60.4157 49.4998 62.8186 49.4998C65.2215 49.4998 67.534 49.1169 69.6986 48.409C67.0827 47.0655 64.7511 45.2473 62.8186 43.068C60.8861 45.2473 58.5545 47.0655 55.9386 48.409ZM73.5758 48.409C75.7403 49.1169 78.0529 49.4998 80.4558 49.4998C92.6472 49.4998 102.515 39.6416 102.515 27.5C102.515 15.3584 92.6472 5.50015 80.4558 5.50015C78.0529 5.50015 75.7404 5.88311 73.5758 6.59103C81.1666 10.4894 86.3628 18.3853 86.3628 27.5C86.3628 36.6147 81.1666 44.5106 73.5758 48.409ZM69.6986 6.59103C67.534 5.88311 65.2215 5.50015 62.8186 5.50015C60.4157 5.50015 58.1032 5.88311 55.9386 6.59103C58.5545 7.9345 60.8861 9.75272 62.8186 11.932C64.7511 9.75272 67.0827 7.9345 69.6986 6.59103ZM52.0614 6.59103C49.8968 5.88311 47.5843 5.50015 45.1814 5.50015C42.7785 5.50015 40.466 5.88311 38.3014 6.59103C40.9173 7.9345 43.2489 9.75272 45.1814 11.932C47.1139 9.75272 49.4455 7.9345 52.0614 6.59103ZM36.3628 47.6718C39.3978 46.3502 42.0762 44.3674 44.2159 41.9065C41.1191 37.9288 39.2744 32.9308 39.2744 27.5C39.2744 22.0692 41.1191 17.0712 44.2159 13.0935C42.0762 10.6326 39.3978 8.64979 36.3628 7.32824C28.5663 10.7231 23.1225 18.4817 23.1225 27.5C23.1225 36.5183 28.5663 44.2769 36.3628 47.6718ZM34.4242 6.59103C26.8334 10.4894 21.6372 18.3853 21.6372 27.5C21.6372 36.6147 26.8334 44.5106 34.4242 48.409C32.2596 49.1169 29.9471 49.4998 27.5442 49.4998C15.3528 49.4998 5.48525 39.6416 5.48525 27.5C5.48525 15.3584 15.3528 5.50015 27.5442 5.50015C29.9471 5.50015 32.2596 5.88311 34.4242 6.59103ZM46.1469 41.9065C48.2865 44.3674 50.965 46.3502 54 47.6718C57.035 46.3502 59.7134 44.3674 61.8531 41.9065C58.7563 37.9288 56.9116 32.9308 56.9116 27.5C56.9116 22.0692 58.7563 17.0712 61.8531 13.0935C59.7134 10.6326 57.035 8.64979 54 7.32824C50.965 8.64979 48.2865 10.6326 46.1469 13.0935C49.2437 17.0712 51.0884 22.0692 51.0884 27.5C51.0884 32.9308 49.2437 37.9288 46.1469 41.9065ZM45.1814 14.2851C42.4047 17.9656 40.7597 22.5425 40.7597 27.5C40.7597 32.4575 42.4047 37.0344 45.1814 40.7149C47.9581 37.0344 49.6031 32.4575 49.6031 27.5C49.6031 22.5425 47.9581 17.9656 45.1814 14.2851ZM63.7841 41.9065C65.9238 44.3674 68.6022 46.3502 71.6372 47.6718C79.4337 44.2769 84.8775 36.5183 84.8775 27.5C84.8775 18.4817 79.4337 10.7231 71.6372 7.32824C68.6022 8.64979 65.9238 10.6326 63.7841 13.0935C66.8809 17.0712 68.7256 22.0692 68.7256 27.5C68.7256 32.9308 66.8809 37.9288 63.7841 41.9065ZM62.8186 14.2851C60.0419 17.9656 58.3969 22.5425 58.3969 27.5C58.3969 32.4575 60.0419 37.0344 62.8186 40.7149C65.5953 37.0344 67.2403 32.4575 67.2403 27.5C67.2403 22.5425 65.5953 17.9656 62.8186 14.2851Z" fill="#2A2D2E"/>
</g>
</svg>
