<svg width="77" height="72" viewBox="0 0 77 72" fill="none" xmlns="http://www.w3.org/2000/svg">
<g id="Symbols">
<path id="Vector (Stroke)" fill-rule="evenodd" clip-rule="evenodd" d="M2.3335 23.4688C2.3335 11.6104 11.9664 2 23.846 2C29.426 2 34.5103 4.12035 38.3335 7.59804C42.1567 4.12035 47.241 2 52.821 2C64.7006 2 74.3335 11.6104 74.3335 23.4688C74.3335 33.075 68.012 41.2062 59.2955 43.9481C59.6173 45.4248 59.7868 46.9582 59.7868 48.5312C59.7868 60.3896 50.1539 70 38.2743 70C26.3947 70 16.7617 60.3896 16.7617 48.5312C16.7617 46.9458 16.9339 45.4005 17.2607 43.9129C8.60152 41.1372 2.3335 33.0343 2.3335 23.4688ZM18.7061 44.3209C18.4141 45.6783 18.2604 47.0869 18.2604 48.5312C18.2604 59.559 27.2195 68.5014 38.2743 68.5014C49.3291 68.5014 58.2881 59.559 58.2881 48.5312C58.2881 47.0965 58.1365 45.6971 57.8483 44.3481C56.9855 44.5543 56.1024 44.7085 55.2027 44.8074C55.4648 46.0029 55.603 47.2447 55.603 48.5188C55.603 58.0645 47.8488 65.8001 38.2867 65.8001C28.7247 65.8001 20.9705 58.0645 20.9705 48.5188C20.9705 47.2411 21.1094 45.9958 21.373 44.7972C20.4657 44.6936 19.5755 44.5336 18.7061 44.3209ZM58.9244 42.4934C66.9936 39.9181 72.8348 32.3733 72.8348 23.4688C72.8348 12.441 63.8758 3.4986 52.821 3.4986C47.6608 3.4986 42.9574 5.44697 39.4085 8.64635C40.0292 9.29519 40.6096 9.9828 41.1456 10.7052C44.226 7.89152 48.3292 6.175 52.8334 6.175C62.3955 6.175 70.1497 13.9107 70.1497 23.4563C70.1497 31.205 65.0401 37.7611 58.0017 39.9548C58.3604 40.7755 58.6693 41.623 58.9244 42.4934ZM37.2585 8.64635C33.7096 5.44697 29.0061 3.4986 23.846 3.4986C12.7912 3.4986 3.83218 12.441 3.83218 23.4688C3.83218 32.3334 9.62124 39.8505 17.6344 42.4585C17.8917 41.5863 18.2029 40.7372 18.5643 39.915C11.5909 37.6827 6.54225 31.1587 6.54225 23.4563C6.54225 13.9107 14.2965 6.175 23.8585 6.175C28.3555 6.175 32.4527 7.886 35.5315 10.6916C36.0647 9.97419 36.6417 9.29113 37.2585 8.64635ZM19.0765 42.8684C19.9511 43.0817 20.8484 43.2377 21.7639 43.3322C22.0502 42.4227 22.4099 41.5457 22.8359 40.708C21.877 40.6523 20.939 40.5187 20.0282 40.3134C19.6551 41.1368 19.3363 41.99 19.0765 42.8684ZM22.8831 44.9164C22.6123 46.0735 22.4692 47.2795 22.4692 48.5188C22.4692 57.2339 29.5495 64.3015 38.2867 64.3015C47.024 64.3015 54.1043 57.2339 54.1043 48.5188C54.1043 47.2809 53.9614 46.0762 53.6913 44.9203C53.4026 44.9317 53.1125 44.9375 52.821 44.9375C52.1765 44.9375 51.5386 44.9092 50.9085 44.8538C51.245 46.0131 51.4254 47.2387 51.4254 48.5063C51.4254 55.7428 45.5471 61.6064 38.2992 61.6064C31.0513 61.6064 25.173 55.7428 25.173 48.5063C25.173 47.2409 25.3528 46.0174 25.6882 44.8599C25.081 44.9113 24.4666 44.9375 23.846 44.9375C23.5233 44.9375 23.2023 44.9304 22.8831 44.9164ZM54.8125 43.3413C55.7208 43.2518 56.6113 43.1017 57.4799 42.895C57.2216 42.0175 56.9046 41.1651 56.5334 40.3422C55.627 40.5392 54.694 40.6652 53.7408 40.7143C54.1668 41.5529 54.5264 42.4309 54.8125 43.3413ZM57.3453 38.5877C63.8836 36.6497 68.651 30.6077 68.651 23.4563C68.651 14.7412 61.5707 7.6736 52.8334 7.6736C48.6434 7.6736 44.8344 9.29903 42.0046 11.9521C42.504 12.7348 42.9541 13.5519 43.3504 14.3992C45.7409 11.9003 49.1116 10.3438 52.8459 10.3438C60.0938 10.3438 65.9721 16.2074 65.9721 23.4439C65.9721 29.6374 61.6661 34.8253 55.8808 36.192C56.4191 36.9555 56.9087 37.7555 57.3453 38.5877ZM40.0718 11.7753C39.5396 11.0413 38.9586 10.3448 38.3335 9.69063C37.7127 10.3403 37.1354 11.0317 36.6062 11.7602C37.2444 12.4526 37.8267 13.1972 38.346 13.9868C38.8614 13.2029 39.439 12.4635 40.0718 11.7753ZM34.6718 11.9375C31.8436 9.29306 28.0409 7.6736 23.8585 7.6736C15.1213 7.6736 8.04093 14.7412 8.04093 23.4563C8.04093 30.5625 12.7482 36.5732 19.2228 38.5505C19.6609 37.7195 20.1519 36.9207 20.6914 36.1585C14.976 34.7423 10.7385 29.5879 10.7385 23.4439C10.7385 16.2074 16.6168 10.3438 23.8647 10.3438C27.5838 10.3438 30.9422 11.8876 33.3309 14.3686C33.7262 13.527 34.1746 12.7152 34.6718 11.9375ZM20.7218 38.9288C21.6784 39.1208 22.6662 39.2267 23.6769 39.238C24.3375 38.2044 25.1052 37.2456 25.9644 36.3773C25.2807 36.487 24.5794 36.544 23.8647 36.544C23.3465 36.544 22.8352 36.514 22.3325 36.4557C21.7372 37.237 21.1983 38.0633 20.7218 38.9288ZM24.5293 40.7249C24.0414 41.5805 23.6314 42.486 23.3088 43.4319C23.4873 43.4366 23.6664 43.4389 23.846 43.4389C24.6604 43.4389 25.4633 43.3904 26.2522 43.2961C26.7395 42.1754 27.3792 41.136 28.1452 40.204C26.9824 40.4995 25.7726 40.6776 24.5293 40.7249ZM27.3267 44.6579C26.9024 45.8623 26.6717 47.1575 26.6717 48.5063C26.6717 54.9122 31.8761 60.1078 38.2992 60.1078C44.7223 60.1078 49.9267 54.9122 49.9267 48.5063C49.9267 47.153 49.6944 45.8537 49.2675 44.646C48.1138 44.4546 46.9911 44.1716 45.9072 43.8047C46.7531 45.1667 47.2416 46.7732 47.2416 48.4939C47.2416 53.4177 43.2421 57.4065 38.3117 57.4065C33.3813 57.4065 29.3818 53.4177 29.3818 48.4939C29.3818 46.781 29.8658 45.1813 30.7046 43.8233C29.615 44.1888 28.4864 44.4697 27.3267 44.6579ZM50.3424 43.2873C51.1545 43.3874 51.9817 43.4389 52.821 43.4389C52.9695 43.4389 53.1177 43.4373 53.2654 43.4341C52.9421 42.4856 52.5308 41.5776 52.0413 40.7199C50.7983 40.664 49.5893 40.4774 48.4279 40.1734C49.2031 41.1108 49.8502 42.1576 50.3424 43.2873ZM52.8972 39.2389C53.9033 39.235 54.8873 39.1373 55.8407 38.9542C55.3641 38.0856 54.8247 37.2562 54.2285 36.4722C53.7741 36.5196 53.3129 36.544 52.8459 36.544C52.0738 36.544 51.3173 36.4774 50.5818 36.3498C51.4523 37.2257 52.2294 38.1941 52.8972 39.2389ZM54.8703 34.8702C60.3279 33.9142 64.4734 29.1611 64.4734 23.4439C64.4734 17.038 59.269 11.8424 52.8459 11.8424C49.2996 11.8424 46.1248 13.4262 43.9923 15.923C44.3995 17.0054 44.7217 18.1294 44.9507 19.2868C46.4456 16.4514 49.4265 14.5188 52.8584 14.5188C57.7888 14.5188 61.7883 18.5077 61.7883 23.4314C61.7883 28.3552 57.7888 32.3441 52.8584 32.3441C52.7021 32.3441 52.5467 32.3401 52.3924 32.3321C53.2863 33.1087 54.1154 33.9578 54.8703 34.8702ZM42.2775 15.6729C41.8918 14.7663 41.4409 13.8939 40.9307 13.0617C40.2844 13.7979 39.7057 14.5945 39.2041 15.442C39.7678 16.5148 40.2218 17.6539 40.5514 18.8447C40.9803 17.7033 41.5642 16.6375 42.2775 15.6729ZM37.4879 15.442C36.9824 14.5881 36.3987 13.7858 35.7466 13.045C35.2391 13.8708 34.7902 14.7362 34.4055 15.6356C35.1254 16.602 35.715 17.6708 36.1485 18.8162C36.4774 17.6357 36.9287 16.5062 37.4879 15.442ZM32.688 15.8877C30.5558 13.4112 27.3943 11.8424 23.8647 11.8424C17.4416 11.8424 12.2372 17.038 12.2372 23.4439C12.2372 29.1118 16.3115 33.8322 21.6994 34.8446C22.4461 33.945 23.2649 33.1072 24.147 32.3401C24.0574 32.3427 23.9675 32.3441 23.8772 32.3441C18.9468 32.3441 14.9473 28.3552 14.9473 23.4314C14.9473 18.5077 18.9468 14.5188 23.8772 14.5188C27.2713 14.5188 30.2243 16.4091 31.735 19.1935C31.9652 18.0564 32.2855 16.9519 32.688 15.8877ZM23.5177 35.0403C23.633 35.0437 23.7486 35.0454 23.8647 35.0454C27.3871 35.0454 30.5429 33.4829 32.675 31.0152C32.4889 30.5208 32.3206 30.0177 32.1709 29.5067C28.8143 30.5779 25.8432 32.5091 23.5177 35.0403ZM33.742 33.3972C30.425 34.3883 27.5658 36.4363 25.5569 39.1491C29.0612 38.7759 32.223 37.2609 34.6618 34.9845C34.3334 34.4699 34.0264 33.9403 33.742 33.3972ZM36.1955 37.0942C32.6768 37.7357 29.7119 39.9573 28.0654 42.9944C31.5541 42.2474 34.7052 40.5931 37.2585 38.2912C36.8897 37.9056 36.535 37.5063 36.1955 37.0942ZM38.0592 39.5848C38.1431 39.5824 38.2272 39.5813 38.3117 39.5813C38.4113 39.5813 38.5105 39.5829 38.6093 39.5861C38.5167 39.5047 38.4247 39.4225 38.3335 39.3395C38.2428 39.422 38.1514 39.5038 38.0592 39.5848ZM39.4085 38.2912C41.9429 40.576 45.0661 42.2228 48.5239 42.9776C46.8849 39.9663 43.9485 37.7596 40.4624 37.1052C40.1256 37.5135 39.7741 37.909 39.4085 38.2912ZM42.0145 34.9699C44.4255 37.2264 47.5457 38.7377 51.006 39.1348C49.014 36.4511 46.1891 34.4198 42.9122 33.4215C42.6341 33.9511 42.3345 34.4675 42.0145 34.9699ZM44.0053 30.9799C46.1376 33.468 49.3068 35.0454 52.8459 35.0454C52.9088 35.0454 52.9715 35.0449 53.0341 35.0439C50.7332 32.5381 47.7997 30.62 44.4859 29.5415C44.3423 30.0284 44.1818 30.5081 44.0053 30.9799ZM45.3439 28.2487C45.2075 28.0372 45.0798 27.8196 44.9614 27.5963C44.9293 27.7606 44.8954 27.9242 44.8596 28.0871C45.0219 28.1391 45.1833 28.193 45.3439 28.2487ZM43.4142 27.6791C43.7062 26.3217 43.8599 24.9131 43.8599 23.4688C43.8599 21.3529 43.5301 19.3139 42.919 17.4C41.8401 19.1604 41.2184 21.2298 41.2184 23.4439C41.2184 24.8203 41.4587 26.1409 41.8997 27.3661C42.4109 27.4526 42.916 27.5572 43.4142 27.6791ZM39.2561 27.0844C39.5308 25.9195 39.6761 24.7048 39.6761 23.4563C39.6761 21.1996 39.2013 19.0533 38.346 17.1116C37.4906 19.0533 37.0159 21.1996 37.0159 23.4563C37.0159 24.7027 37.1607 25.9154 37.4345 27.0785C37.7131 27.0679 37.993 27.0625 38.2743 27.0625C38.6033 27.0625 38.9306 27.0698 39.2561 27.0844ZM34.8211 27.3376C35.2557 26.1205 35.4922 24.8097 35.4922 23.4439C35.4922 21.2103 34.8595 19.1238 33.763 17.3534C33.1423 19.2808 32.8071 21.3358 32.8071 23.4688C32.8071 24.9035 32.9588 26.3029 33.2469 27.6519C33.7646 27.5282 34.2896 27.4232 34.8211 27.3376ZM31.724 27.6896C31.6354 27.8519 31.5418 28.0113 31.4435 28.1674C31.5618 28.1279 31.6805 28.0894 31.7997 28.0519C31.7735 27.9315 31.7482 27.8107 31.724 27.6896ZM33.6153 29.105C33.6593 29.2545 33.7051 29.4033 33.7524 29.5513C33.8644 29.3713 33.9715 29.188 34.0736 29.0016C33.9202 29.0343 33.7674 29.0688 33.6153 29.105ZM38.6481 36.91C38.5445 37.0235 38.4396 37.1358 38.3335 37.2469C38.2268 37.1352 38.1214 37.0223 38.0173 36.9082C38.111 36.906 38.205 36.9049 38.2992 36.9049C38.4159 36.9049 38.5322 36.9066 38.6481 36.91ZM42.6591 29.0418C42.7878 29.0705 42.916 29.1005 43.0438 29.1316C43.0068 29.2565 42.9687 29.3809 42.9294 29.5048C42.8358 29.3527 42.7457 29.1984 42.6591 29.0418ZM35.8912 28.7012C35.4887 29.6171 34.9841 30.4782 34.3919 31.2703C34.4447 31.3942 34.4987 31.5174 34.5538 31.6401C35.4706 31.439 36.4146 31.3105 37.3794 31.2608C36.9567 30.4289 36.5995 29.5582 36.3146 28.6556C36.173 28.6693 36.0319 28.6845 35.8912 28.7012ZM35.2445 33.0277C35.4021 33.3154 35.5665 33.5989 35.7376 33.8779C36.0357 33.5398 36.3196 33.1888 36.5883 32.826C36.1344 32.8743 35.6862 32.9418 35.2445 33.0277ZM38.346 32.9259C37.824 33.7196 37.2383 34.4679 36.5961 35.1634C36.6748 35.272 36.7547 35.3798 36.8356 35.4868C37.3161 35.4336 37.8045 35.4062 38.2992 35.4062C38.8156 35.4062 39.3251 35.436 39.826 35.4939C39.9125 35.3797 39.9978 35.2644 40.0819 35.1483C39.4452 34.457 38.8642 33.7139 38.346 32.9259ZM40.9397 33.8612C41.1038 33.593 41.2617 33.3206 41.4133 33.0443C40.9863 32.9589 40.553 32.8906 40.1142 32.8403C40.3753 33.1921 40.6508 33.5327 40.9397 33.8612ZM42.1047 31.6589C42.1683 31.5178 42.2304 31.3758 42.2909 31.2329C41.7152 30.4573 41.2234 29.6159 40.8287 28.7222C40.6773 28.7029 40.5254 28.6854 40.3729 28.6695C40.088 29.5695 39.7312 30.4376 39.3093 31.2671C40.2639 31.3226 41.1977 31.4553 42.1047 31.6589ZM38.8278 28.5686C38.6439 28.5636 38.4594 28.5611 38.2743 28.5611C38.1368 28.5611 37.9998 28.5624 37.863 28.5652C38.007 28.9854 38.1683 29.3976 38.346 29.801C38.5232 29.3987 38.6841 28.9876 38.8278 28.5686ZM23.8772 16.0174C19.7716 16.0174 16.446 19.3382 16.446 23.4314C16.446 27.5247 19.7716 30.8455 23.8772 30.8455C27.9828 30.8455 31.3084 27.5247 31.3084 23.4314C31.3084 19.3382 27.9828 16.0174 23.8772 16.0174ZM52.8584 16.0174C48.7528 16.0174 45.4271 19.3382 45.4271 23.4314C45.4271 27.5247 48.7528 30.8455 52.8584 30.8455C56.964 30.8455 60.2896 27.5247 60.2896 23.4314C60.2896 19.3382 56.964 16.0174 52.8584 16.0174ZM38.3117 41.0799C34.2061 41.0799 30.8804 44.4007 30.8804 48.4939C30.8804 52.5871 34.2061 55.9079 38.3117 55.9079C42.4173 55.9079 45.7429 52.5871 45.7429 48.4939C45.7429 44.4007 42.4173 41.0799 38.3117 41.0799Z" fill="#2A2D2E"/>
</g>
</svg>
