<svg width="24" height="25" viewBox="0 0 24 25" fill="none" xmlns="http://www.w3.org/2000/svg">
<g id="Icons">
<path id="Vector" d="M16.8199 2.24341H7.17995C5.05995 2.24341 3.31995 3.98341 3.31995 6.10341V20.1934C3.31995 21.9934 4.60995 22.7534 6.18995 21.8834L11.0699 19.1734C11.5899 18.8834 12.4299 18.8834 12.9399 19.1734L17.8199 21.8834C19.3999 22.7634 20.6899 22.0034 20.6899 20.1934V6.10341C20.6799 3.98341 18.9499 2.24341 16.8199 2.24341ZM15.6199 9.36341L11.6199 13.3634C11.4699 13.5134 11.2799 13.5834 11.0899 13.5834C10.8999 13.5834 10.7099 13.5134 10.5599 13.3634L9.05995 11.8634C8.92047 11.7223 8.84225 11.5318 8.84225 11.3334C8.84225 11.135 8.92047 10.9445 9.05995 10.8034C9.34995 10.5134 9.82995 10.5134 10.1199 10.8034L11.0899 11.7734L14.5599 8.30341C14.8499 8.01341 15.3299 8.01341 15.6199 8.30341C15.9099 8.59341 15.9099 9.07341 15.6199 9.36341Z" fill="#2A2D2E"/>
</g>
</svg>
