<svg width="34" height="34" viewBox="0 0 34 34" fill="none" xmlns="http://www.w3.org/2000/svg">
<g id="&#240;&#159;&#166;&#134; icon &#34;close circle&#34;">
<g id="Group">
<path id="Vector (Stroke)" fill-rule="evenodd" clip-rule="evenodd" d="M0.5 17C0.5 7.92237 7.92237 0.5 17 0.5C26.0776 0.5 33.5 7.92237 33.5 17C33.5 26.0776 26.0776 33.5 17 33.5C7.92237 33.5 0.5 26.0776 0.5 17ZM17 2.80233C9.19391 2.80233 2.80233 9.19391 2.80233 17C2.80233 24.8061 9.19391 31.1977 17 31.1977C24.8061 31.1977 31.1977 24.8061 31.1977 17C31.1977 9.19391 24.8061 2.80233 17 2.80233Z" fill="#292D32"/>
<path id="Vector (Stroke)_2" fill-rule="evenodd" clip-rule="evenodd" d="M22.1575 11.8424C22.6071 12.2919 22.6071 13.0208 22.1575 13.4704L13.47 22.1577C13.0205 22.6073 12.2916 22.6073 11.842 22.1577C11.3925 21.7082 11.3925 20.9793 11.8421 20.5297L20.5295 11.8424C20.9791 11.3928 21.708 11.3928 22.1575 11.8424Z" fill="#292D32"/>
<path id="Vector (Stroke)_3" fill-rule="evenodd" clip-rule="evenodd" d="M11.842 11.8424C12.2916 11.3928 13.0205 11.3928 13.47 11.8424L22.1575 20.5297C22.6071 20.9793 22.6071 21.7082 22.1575 22.1577C21.708 22.6073 20.9791 22.6073 20.5295 22.1577L11.8421 13.4704C11.3925 13.0208 11.3925 12.2919 11.842 11.8424Z" fill="#292D32"/>
</g>
</g>
</svg>
