<svg width="25" height="24" viewBox="0 0 25 24" fill="none" xmlns="http://www.w3.org/2000/svg">
<g id="Icons-Features">
<path id="Vector" d="M9.90352 12.46L6.85352 15.51M6.88352 12.49L9.93352 15.54" stroke="#2A2D2E" stroke-width="1.5" stroke-miterlimit="10" stroke-linecap="round" stroke-linejoin="round"/>
<path id="Vector_2" d="M13.8633 14H13.8733M17.8033 14H17.8133M15.8333 15.98V15.96M15.8333 12.04V12.02" stroke="#2A2D2E" stroke-width="2" stroke-miterlimit="10" stroke-linecap="round" stroke-linejoin="round"/>
<path id="Vector_3" d="M13.344 2L13.334 3.01C13.3313 3.27348 13.2248 3.52527 13.0376 3.71065C12.8503 3.89603 12.5975 4.00001 12.334 4H12.304C11.754 4 11.314 4.45 11.314 5C11.314 5.55 11.764 6 12.314 6H13.314M9.33398 22H15.334C20.334 22 22.334 20 22.334 15V13C22.334 8 20.334 6 15.334 6H9.33398C4.33398 6 2.33398 8 2.33398 13V15C2.33398 20 4.33398 22 9.33398 22Z" stroke="#2A2D2E" stroke-width="1.5" stroke-linecap="round" stroke-linejoin="round"/>
</g>
</svg>
