<svg width="24" height="25" viewBox="0 0 24 25" fill="none" xmlns="http://www.w3.org/2000/svg">
<g id="Icons">
<path id="Vector" d="M15.8001 2.87674C15.3901 2.46674 14.6801 2.74674 14.6801 3.31674V6.80674C14.6801 8.26674 15.9201 9.47674 17.4301 9.47674C18.3801 9.48674 19.7001 9.48674 20.8301 9.48674C21.4001 9.48674 21.7001 8.81674 21.3001 8.41674C19.8601 6.96674 17.2801 4.35674 15.8001 2.87674Z" fill="#2A2D2E"/>
<path id="Vector_2" d="M20.5 10.8567H17.61C15.24 10.8567 13.31 8.92675 13.31 6.55675V3.66675C13.31 3.11675 12.86 2.66675 12.31 2.66675H8.07C4.99 2.66675 2.5 4.66675 2.5 8.23675V17.0967C2.5 20.6667 4.99 22.6667 8.07 22.6667H15.93C19.01 22.6667 21.5 20.6667 21.5 17.0967V11.8567C21.5 11.3067 21.05 10.8567 20.5 10.8567ZM11.5 18.4167H7.5C7.09 18.4167 6.75 18.0767 6.75 17.6667C6.75 17.2567 7.09 16.9167 7.5 16.9167H11.5C11.91 16.9167 12.25 17.2567 12.25 17.6667C12.25 18.0767 11.91 18.4167 11.5 18.4167ZM13.5 14.4167H7.5C7.09 14.4167 6.75 14.0767 6.75 13.6667C6.75 13.2567 7.09 12.9167 7.5 12.9167H13.5C13.91 12.9167 14.25 13.2567 14.25 13.6667C14.25 14.0767 13.91 14.4167 13.5 14.4167Z" fill="#2A2D2E"/>
</g>
</svg>
