<svg width="25" height="24" viewBox="0 0 25 24" fill="none" xmlns="http://www.w3.org/2000/svg">
<g id="Icons-Features">
<path id="Vector" d="M9.33398 22H15.334C20.334 22 22.334 20 22.334 15V9C22.334 4 20.334 2 15.334 2H9.33398C4.33398 2 2.33398 4 2.33398 9V15C2.33398 20 4.33398 22 9.33398 22Z" stroke="#2A2D2E" stroke-width="1.5" stroke-linecap="round" stroke-linejoin="round"/>
<path id="Vector_2" d="M7.0332 9.26001L12.3332 12.33L17.5932 9.28001M12.3332 17.77V12.32" stroke="#2A2D2E" stroke-width="1.5" stroke-linecap="round" stroke-linejoin="round"/>
<path id="Vector_3" d="M11.0942 6.28998L7.89422 8.06998C7.17422 8.46998 6.57422 9.47998 6.57422 10.31V13.7C6.57422 14.53 7.16422 15.54 7.89422 15.94L11.0942 17.72C11.7742 18.1 12.8942 18.1 13.5842 17.72L16.7842 15.94C17.5042 15.54 18.1042 14.53 18.1042 13.7V10.3C18.1042 9.46998 17.5142 8.45998 16.7842 8.05998L13.5842 6.27998C12.8942 5.89998 11.7742 5.89998 11.0942 6.28998Z" stroke="#2A2D2E" stroke-width="1.5" stroke-linecap="round" stroke-linejoin="round"/>
</g>
</svg>
