<svg width="25" height="24" viewBox="0 0 25 24" fill="none" xmlns="http://www.w3.org/2000/svg">
<g id="Icons-Features">
<path id="Vector" d="M22.666 13V9C22.666 4 20.666 2 15.666 2H9.66602C4.66602 2 2.66602 4 2.66602 9V15C2.66602 20 4.66602 22 9.66602 22H13.666" stroke="#2A2D2E" stroke-width="1.5" stroke-linecap="round" stroke-linejoin="round"/>
<path id="Vector_2" d="M22.666 13V9C22.666 4 20.666 2 15.666 2H9.66602C4.66602 2 2.66602 4 2.66602 9V15C2.66602 20 4.66602 22 9.66602 22H13.666" stroke="#2A2D2E" stroke-width="1.5" stroke-linecap="round" stroke-linejoin="round"/>
<path id="Vector_3" d="M22.666 13V9C22.666 4 20.666 2 15.666 2H9.66602C4.66602 2 2.66602 4 2.66602 9V15C2.66602 20 4.66602 22 9.66602 22H13.666M16.666 19.43L18.246 21L21.666 17M7.66602 10.5V13.5M12.666 10.5V13.5M17.666 10.5V13.5" stroke="#2A2D2E" stroke-width="1.5" stroke-linecap="round" stroke-linejoin="round"/>
</g>
</svg>
