<svg width="24" height="25" viewBox="0 0 24 25" fill="none" xmlns="http://www.w3.org/2000/svg">
<g id="Icons">
<path id="Vector" d="M11.05 15.6167L9.2 17.4667C8.81 17.8567 8.19 17.8567 7.79 17.4767C7.68 17.3667 7.57 17.2667 7.46 17.1567C6.44877 16.1388 5.5161 15.0456 4.67 13.8867C3.85 12.7467 3.19 11.6067 2.71 10.4767C2.24 9.33675 2 8.24675 2 7.20675C2 6.52675 2.12 5.87675 2.36 5.27675C2.6 4.66675 2.98 4.10675 3.51 3.60675C4.15 2.97675 4.85 2.66675 5.59 2.66675C5.87 2.66675 6.15 2.72675 6.4 2.84675C6.66 2.96675 6.89 3.14675 7.07 3.40675L9.39 6.67675C9.57 6.92675 9.7 7.15675 9.79 7.37675C9.88 7.58675 9.93 7.79675 9.93 7.98675C9.93 8.22675 9.86 8.46675 9.72 8.69675C9.59 8.92675 9.4 9.16675 9.16 9.40675L8.4 10.1967C8.29 10.3067 8.24 10.4367 8.24 10.5967C8.24 10.6767 8.25 10.7467 8.27 10.8267C8.3 10.9067 8.33 10.9667 8.35 11.0267C8.53 11.3567 8.84 11.7867 9.28 12.3067C9.73 12.8267 10.21 13.3567 10.73 13.8867C10.83 13.9867 10.94 14.0867 11.04 14.1867C11.44 14.5767 11.45 15.2167 11.05 15.6167ZM21.97 18.9967C21.9687 19.3741 21.8833 19.7465 21.72 20.0867C21.55 20.4467 21.33 20.7867 21.04 21.1067C20.55 21.6467 20.01 22.0367 19.4 22.2867C19.39 22.2867 19.38 22.2967 19.37 22.2967C18.78 22.5367 18.14 22.6667 17.45 22.6667C16.43 22.6667 15.34 22.4267 14.19 21.9367C13.04 21.4467 11.89 20.7867 10.75 19.9567C10.36 19.6667 9.97 19.3767 9.6 19.0667L12.87 15.7967C13.15 16.0067 13.4 16.1667 13.61 16.2767C13.66 16.2967 13.72 16.3267 13.79 16.3567C13.87 16.3867 13.95 16.3967 14.04 16.3967C14.21 16.3967 14.34 16.3367 14.45 16.2267L15.21 15.4767C15.46 15.2267 15.7 15.0367 15.93 14.9167C16.16 14.7767 16.39 14.7067 16.64 14.7067C16.83 14.7067 17.03 14.7467 17.25 14.8367C17.47 14.9267 17.7 15.0567 17.95 15.2267L21.26 17.5767C21.52 17.7567 21.7 17.9667 21.81 18.2167C21.91 18.4667 21.97 18.7167 21.97 18.9967Z" fill="#2A2D2E"/>
</g>
</svg>
