<svg width="25" height="24" viewBox="0 0 25 24" fill="none" xmlns="http://www.w3.org/2000/svg">
<g id="Icons-Features">
<path id="Vector" d="M14.4152 10C14.6805 10 14.9348 9.89466 15.1223 9.70712C15.3099 9.51958 15.4152 9.26523 15.4152 9.00001C15.4152 8.7348 15.3099 8.48044 15.1223 8.29291C14.9348 8.10537 14.6805 8.00001 14.4152 8.00001C14.15 8.00001 13.8957 8.10537 13.7081 8.29291C13.5206 8.48044 13.4152 8.7348 13.4152 9.00001C13.4152 9.26523 13.5206 9.51958 13.7081 9.70712C13.8957 9.89466 14.15 10 14.4152 10ZM10.9152 10C11.1805 10 11.4348 9.89466 11.6223 9.70712C11.8099 9.51958 11.9152 9.26523 11.9152 9.00001C11.9152 8.7348 11.8099 8.48044 11.6223 8.29291C11.4348 8.10537 11.1805 8.00001 10.9152 8.00001C10.65 8.00001 10.3957 8.10537 10.2081 8.29291C10.0206 8.48044 9.91523 8.7348 9.91523 9.00001C9.91523 9.26523 10.0206 9.51958 10.2081 9.70712C10.3957 9.89466 10.65 10 10.9152 10ZM16.1652 13C16.4305 13 16.6848 12.8947 16.8723 12.7071C17.0599 12.5196 17.1652 12.2652 17.1652 12C17.1652 11.7348 17.0599 11.4804 16.8723 11.2929C16.6848 11.1054 16.4305 11 16.1652 11C15.9 11 15.6457 11.1054 15.4581 11.2929C15.2706 11.4804 15.1652 11.7348 15.1652 12C15.1652 12.2652 15.2706 12.5196 15.4581 12.7071C15.6457 12.8947 15.9 13 16.1652 13ZM17.8152 9.75001C18.0141 9.75001 18.2049 9.67099 18.3456 9.53034C18.4862 9.38969 18.5652 9.19892 18.5652 9.00001C18.5652 8.8011 18.4862 8.61033 18.3456 8.46968C18.2049 8.32903 18.0141 8.25001 17.8152 8.25001C17.6163 8.25001 17.4256 8.32903 17.2849 8.46968C17.1443 8.61033 17.0652 8.8011 17.0652 9.00001C17.0652 9.19892 17.1443 9.38969 17.2849 9.53034C17.4256 9.67099 17.6163 9.75001 17.8152 9.75001ZM17.8152 15.75C18.0141 15.75 18.2049 15.671 18.3456 15.5303C18.4862 15.3897 18.5652 15.1989 18.5652 15C18.5652 14.8011 18.4862 14.6103 18.3456 14.4697C18.2049 14.329 18.0141 14.25 17.8152 14.25C17.6163 14.25 17.4256 14.329 17.2849 14.4697C17.1443 14.6103 17.0652 14.8011 17.0652 15C17.0652 15.1989 17.1443 15.3897 17.2849 15.5303C17.4256 15.671 17.6163 15.75 17.8152 15.75ZM20.4152 12.75C20.6141 12.75 20.8049 12.671 20.9456 12.5303C21.0862 12.3897 21.1652 12.1989 21.1652 12C21.1652 11.8011 21.0862 11.6103 20.9456 11.4697C20.8049 11.329 20.6141 11.25 20.4152 11.25C20.2163 11.25 20.0256 11.329 19.8849 11.4697C19.7443 11.6103 19.6652 11.8011 19.6652 12C19.6652 12.1989 19.7443 12.3897 19.8849 12.5303C20.0256 12.671 20.2163 12.75 20.4152 12.75ZM7.46523 9.75001C7.66415 9.75001 7.85491 9.67099 7.99556 9.53034C8.13622 9.38969 8.21523 9.19892 8.21523 9.00001C8.21523 8.8011 8.13622 8.61033 7.99556 8.46968C7.85491 8.32903 7.66415 8.25001 7.46523 8.25001C7.26632 8.25001 7.07556 8.32903 6.9349 8.46968C6.79425 8.61033 6.71523 8.8011 6.71523 9.00001C6.71523 9.19892 6.79425 9.38969 6.9349 9.53034C7.07556 9.67099 7.26632 9.75001 7.46523 9.75001ZM7.46523 15.75C7.66415 15.75 7.85491 15.671 7.99556 15.5303C8.13622 15.3897 8.21523 15.1989 8.21523 15C8.21523 14.8011 8.13622 14.6103 7.99556 14.4697C7.85491 14.329 7.66415 14.25 7.46523 14.25C7.26632 14.25 7.07556 14.329 6.9349 14.4697C6.79425 14.6103 6.71523 14.8011 6.71523 15C6.71523 15.1989 6.79425 15.3897 6.9349 15.5303C7.07556 15.671 7.26632 15.75 7.46523 15.75ZM4.86523 12.75C5.06415 12.75 5.25491 12.671 5.39556 12.5303C5.53622 12.3897 5.61523 12.1989 5.61523 12C5.61523 11.8011 5.53622 11.6103 5.39556 11.4697C5.25491 11.329 5.06415 11.25 4.86523 11.25C4.66632 11.25 4.47556 11.329 4.3349 11.4697C4.19425 11.6103 4.11523 11.8011 4.11523 12C4.11523 12.1989 4.19425 12.3897 4.3349 12.5303C4.47556 12.671 4.66632 12.75 4.86523 12.75ZM16.5652 5.95001C16.7641 5.95001 16.9549 5.87099 17.0956 5.73034C17.2362 5.58969 17.3152 5.39892 17.3152 5.20001C17.3152 5.0011 17.2362 4.81033 17.0956 4.66968C16.9549 4.52903 16.7641 4.45001 16.5652 4.45001C16.3663 4.45001 16.1756 4.52903 16.0349 4.66968C15.8943 4.81033 15.8152 5.0011 15.8152 5.20001C15.8152 5.39892 15.8943 5.58969 16.0349 5.73034C16.1756 5.87099 16.3663 5.95001 16.5652 5.95001ZM8.76523 5.95001C8.96415 5.95001 9.15491 5.87099 9.29556 5.73034C9.43622 5.58969 9.51523 5.39892 9.51523 5.20001C9.51523 5.0011 9.43622 4.81033 9.29556 4.66968C9.15491 4.52903 8.96415 4.45001 8.76523 4.45001C8.56632 4.45001 8.37556 4.52903 8.2349 4.66968C8.09425 4.81033 8.01523 5.0011 8.01523 5.20001C8.01523 5.39892 8.09425 5.58969 8.2349 5.73034C8.37556 5.87099 8.56632 5.95001 8.76523 5.95001ZM12.7152 6.75001C12.9141 6.75001 13.1049 6.67099 13.2456 6.53034C13.3862 6.38969 13.4652 6.19892 13.4652 6.00001C13.4652 5.8011 13.3862 5.61033 13.2456 5.46968C13.1049 5.32903 12.9141 5.25001 12.7152 5.25001C12.5163 5.25001 12.3256 5.32903 12.1849 5.46968C12.0443 5.61033 11.9652 5.8011 11.9652 6.00001C11.9652 6.19892 12.0443 6.38969 12.1849 6.53034C12.3256 6.67099 12.5163 6.75001 12.7152 6.75001ZM16.5652 19.75C16.7641 19.75 16.9549 19.671 17.0956 19.5303C17.2362 19.3897 17.3152 19.1989 17.3152 19C17.3152 18.8011 17.2362 18.6103 17.0956 18.4697C16.9549 18.329 16.7641 18.25 16.5652 18.25C16.3663 18.25 16.1756 18.329 16.0349 18.4697C15.8943 18.6103 15.8152 18.8011 15.8152 19C15.8152 19.1989 15.8943 19.3897 16.0349 19.5303C16.1756 19.671 16.3663 19.75 16.5652 19.75ZM8.76523 19.75C8.96415 19.75 9.15491 19.671 9.29556 19.5303C9.43622 19.3897 9.51523 19.1989 9.51523 19C9.51523 18.8011 9.43622 18.6103 9.29556 18.4697C9.15491 18.329 8.96415 18.25 8.76523 18.25C8.56632 18.25 8.37556 18.329 8.2349 18.4697C8.09425 18.6103 8.01523 18.8011 8.01523 19C8.01523 19.1989 8.09425 19.3897 8.2349 19.5303C8.37556 19.671 8.56632 19.75 8.76523 19.75ZM12.7152 18.95C12.9141 18.95 13.1049 18.871 13.2456 18.7303C13.3862 18.5897 13.4652 18.3989 13.4652 18.2C13.4652 18.0011 13.3862 17.8103 13.2456 17.6697C13.1049 17.529 12.9141 17.45 12.7152 17.45C12.5163 17.45 12.3256 17.529 12.1849 17.6697C12.0443 17.8103 11.9652 18.0011 11.9652 18.2C11.9652 18.3989 12.0443 18.5897 12.1849 18.7303C12.3256 18.871 12.5163 18.95 12.7152 18.95ZM9.16523 13C9.43045 13 9.6848 12.8947 9.87234 12.7071C10.0599 12.5196 10.1652 12.2652 10.1652 12C10.1652 11.7348 10.0599 11.4804 9.87234 11.2929C9.6848 11.1054 9.43045 11 9.16523 11C8.90002 11 8.64566 11.1054 8.45813 11.2929C8.27059 11.4804 8.16523 11.7348 8.16523 12C8.16523 12.2652 8.27059 12.5196 8.45813 12.7071C8.64566 12.8947 8.90002 13 9.16523 13ZM10.9152 16C11.1805 16 11.4348 15.8947 11.6223 15.7071C11.8099 15.5196 11.9152 15.2652 11.9152 15C11.9152 14.7348 11.8099 14.4804 11.6223 14.2929C11.4348 14.1054 11.1805 14 10.9152 14C10.65 14 10.3957 14.1054 10.2081 14.2929C10.0206 14.4804 9.91523 14.7348 9.91523 15C9.91523 15.2652 10.0206 15.5196 10.2081 15.7071C10.3957 15.8947 10.65 16 10.9152 16ZM14.4152 16C14.6805 16 14.9348 15.8947 15.1223 15.7071C15.3099 15.5196 15.4152 15.2652 15.4152 15C15.4152 14.7348 15.3099 14.4804 15.1223 14.2929C14.9348 14.1054 14.6805 14 14.4152 14C14.15 14 13.8957 14.1054 13.7081 14.2929C13.5206 14.4804 13.4152 14.7348 13.4152 15C13.4152 15.2652 13.5206 15.5196 13.7081 15.7071C13.8957 15.8947 14.15 16 14.4152 16Z" stroke="#2A2D2E" stroke-miterlimit="10"/>
</g>
</svg>
