<svg width="24" height="25" viewBox="0 0 24 25" fill="none" xmlns="http://www.w3.org/2000/svg">
<g id="Icons">
<path id="Vector" d="M20.1 9.55441C18.29 9.55441 17.55 8.27441 18.45 6.70441C18.97 5.79441 18.66 4.63441 17.75 4.11441L16.02 3.12441C15.23 2.65441 14.21 2.93441 13.74 3.72441L13.63 3.91441C12.73 5.48441 11.25 5.48441 10.34 3.91441L10.23 3.72441C10.1222 3.53539 9.97789 3.3697 9.80545 3.23697C9.63302 3.10425 9.43591 3.00715 9.2256 2.95131C9.01529 2.89548 8.79597 2.88203 8.58041 2.91174C8.36485 2.94146 8.15736 3.01375 7.97 3.12441L6.24 4.11441C5.33 4.63441 5.02 5.80441 5.54 6.71441C6.45 8.27441 5.71 9.55441 3.9 9.55441C2.86 9.55441 2 10.4044 2 11.4544V13.2144C2 14.2544 2.85 15.1144 3.9 15.1144C5.71 15.1144 6.45 16.3944 5.54 17.9644C5.02 18.8744 5.33 20.0344 6.24 20.5544L7.97 21.5444C8.76 22.0144 9.78 21.7344 10.25 20.9444L10.36 20.7544C11.26 19.1844 12.74 19.1844 13.65 20.7544L13.76 20.9444C14.23 21.7344 15.25 22.0144 16.04 21.5444L17.77 20.5544C18.68 20.0344 18.99 18.8644 18.47 17.9644C17.56 16.3944 18.3 15.1144 20.11 15.1144C21.15 15.1144 22.01 14.2644 22.01 13.2144V11.4544C22.0048 10.9504 21.8015 10.4687 21.4442 10.1132C21.0868 9.75771 20.604 9.55701 20.1 9.55441ZM12 15.5844C10.21 15.5844 8.75 14.1244 8.75 12.3344C8.75 10.5444 10.21 9.08441 12 9.08441C13.79 9.08441 15.25 10.5444 15.25 12.3344C15.25 14.1244 13.79 15.5844 12 15.5844Z" fill="#2A2D2E"/>
</g>
</svg>
