<svg viewBox="0 0 64 64" fill="none" xmlns="http://www.w3.org/2000/svg">
  <!-- Gear/Drive -->
  <circle cx="32" cy="32" r="20" fill="none" stroke="#5BC0EB" stroke-width="3"/>
  <circle cx="32" cy="32" r="8" fill="#5BC0EB"/>
  
  <!-- Gear teeth -->
  <rect x="29" y="8" width="6" height="8" rx="2" fill="#5BC0EB"/>
  <rect x="29" y="48" width="6" height="8" rx="2" fill="#5BC0EB"/>
  <rect x="8" y="29" width="8" height="6" rx="2" fill="#5BC0EB"/>
  <rect x="48" y="29" width="8" height="6" rx="2" fill="#5BC0EB"/>
  
  <!-- Diagonal teeth -->
  <rect x="14" y="14" width="6" height="6" rx="2" fill="#5BC0EB" transform="rotate(45 17 17)"/>
  <rect x="44" y="14" width="6" height="6" rx="2" fill="#5BC0EB" transform="rotate(45 47 17)"/>
  <rect x="14" y="44" width="6" height="6" rx="2" fill="#5BC0EB" transform="rotate(45 17 47)"/>
  <rect x="44" y="44" width="6" height="6" rx="2" fill="#5BC0EB" transform="rotate(45 47 47)"/>
  
  <!-- Arrow indicating rotation -->
  <path d="M48 12 Q56 20, 52 28" stroke="#A3DAF3" stroke-width="2" fill="none" stroke-linecap="round"/>
  <polygon points="54,26 52,32 48,27" fill="#A3DAF3"/>
</svg>
