<svg width="48" height="48" viewBox="0 0 48 48" fill="none" xmlns="http://www.w3.org/2000/svg">
<rect width="48" height="48" rx="10" fill="#D9D9D9"/>
<path d="M24 27.5C24.9283 27.5 25.8185 27.1313 26.4749 26.4749C27.1313 25.8185 27.5 24.9283 27.5 24C27.5 23.0717 27.1313 22.1815 26.4749 21.5251C25.8185 20.8687 24.9283 20.5 24 20.5C23.0717 20.5 22.1815 20.8687 21.5251 21.5251C20.8687 22.1815 20.5 23.0717 20.5 24C20.5 24.9283 20.8687 25.8185 21.5251 26.4749C22.1815 27.1313 23.0717 27.5 24 27.5Z" stroke="#2A2D2E" stroke-width="1.5" stroke-miterlimit="10" stroke-linecap="round" stroke-linejoin="round"/>
<path d="M12.3335 25.0267V22.9734C12.3335 21.76 13.3252 20.7567 14.5502 20.7567C16.6618 20.7567 17.5252 19.2634 16.4635 17.4317C15.8568 16.3817 16.2185 15.0167 17.2802 14.41L19.2985 13.255C20.2202 12.7067 21.4102 13.0334 21.9585 13.955L22.0868 14.1767C23.1368 16.0084 24.8635 16.0084 25.9252 14.1767L26.0535 13.955C26.6018 13.0334 27.7918 12.7067 28.7135 13.255L30.7318 14.41C31.7935 15.0167 32.1552 16.3817 31.5485 17.4317C30.4868 19.2634 31.3502 20.7567 33.4618 20.7567C34.6752 20.7567 35.6785 21.7484 35.6785 22.9734V25.0267C35.6785 26.24 34.6868 27.2434 33.4618 27.2434C31.3502 27.2434 30.4868 28.7367 31.5485 30.5684C32.1552 31.63 31.7935 32.9834 30.7318 33.59L28.7135 34.745C27.7918 35.2934 26.6018 34.9667 26.0535 34.045L25.9252 33.8234C24.8752 31.9917 23.1485 31.9917 22.0868 33.8234L21.9585 34.045C21.4102 34.9667 20.2202 35.2934 19.2985 34.745L17.2802 33.59C16.7716 33.2972 16.4 32.8146 16.2469 32.2481C16.0938 31.6816 16.1717 31.0775 16.4635 30.5684C17.5252 28.7367 16.6618 27.2434 14.5502 27.2434C13.3252 27.2434 12.3335 26.24 12.3335 25.0267Z" stroke="#2A2D2E" stroke-width="1.5" stroke-miterlimit="10" stroke-linecap="round" stroke-linejoin="round"/>
</svg>
