<svg width="48" height="48" viewBox="0 0 48 48" fill="none" xmlns="http://www.w3.org/2000/svg">
<rect width="48" height="48" rx="10" fill="#D9D9D9"/>
<path d="M29.8335 25.6333V29.1333C29.8335 33.8 27.9668 35.6667 23.3002 35.6667H18.8668C14.2002 35.6667 12.3335 33.8 12.3335 29.1333V24.7C12.3335 20.0333 14.2002 18.1667 18.8668 18.1667H22.3668" stroke="#2A2D2E" stroke-width="1.5" stroke-linecap="round" stroke-linejoin="round"/>
<path d="M23.5332 12.3333H28.1998M18.1665 15.8333C18.1665 13.8967 19.7298 12.3333 21.6665 12.3333H24.7232M35.6665 19.3333V26.555C35.6665 28.3633 34.1965 29.8333 32.3882 29.8333M35.6665 19.3333H32.1665C29.5415 19.3333 28.6665 18.4583 28.6665 15.8333V12.3333L35.6665 19.3333ZM29.8332 25.6333H26.0998C23.2998 25.6333 22.3665 24.7 22.3665 21.9V18.1667L29.8332 25.6333Z" stroke="#2A2D2E" stroke-width="1.5" stroke-linecap="round" stroke-linejoin="round"/>
</svg>
