<svg width="48" height="48" viewBox="0 0 48 48" fill="none" xmlns="http://www.w3.org/2000/svg">
<rect width="48" height="48" rx="10" fill="#86D946"/>
<path d="M28.6668 19.3333H19.3335V28.6667H28.6668V19.3333ZM12.3335 32.1667C12.3335 34.0917 13.9085 35.6667 15.8335 35.6667C17.7585 35.6667 19.3335 34.0917 19.3335 32.1667V28.6667H15.8335C13.9085 28.6667 12.3335 30.2417 12.3335 32.1667ZM15.8335 12.3333C13.9085 12.3333 12.3335 13.9083 12.3335 15.8333C12.3335 17.7583 13.9085 19.3333 15.8335 19.3333H19.3335V15.8333C19.3335 13.9083 17.7585 12.3333 15.8335 12.3333ZM35.6668 15.8333C35.6668 13.9083 34.0918 12.3333 32.1668 12.3333C30.2418 12.3333 28.6668 13.9083 28.6668 15.8333V19.3333H32.1668C34.0918 19.3333 35.6668 17.7583 35.6668 15.8333ZM32.1668 28.6667H28.6668V32.1667C28.6668 34.0917 30.2418 35.6667 32.1668 35.6667C34.0918 35.6667 35.6668 34.0917 35.6668 32.1667C35.6668 30.2417 34.0918 28.6667 32.1668 28.6667Z" fill="#2A2D2E"/>
</svg>
