<svg width="48" height="48" viewBox="0 0 48 48" fill="none" xmlns="http://www.w3.org/2000/svg">
<rect width="48" height="48" rx="10" fill="#FEC600"/>
<path d="M29.3527 18.645L17.3606 30.6383C16.8006 31.1983 15.8439 31.07 15.5056 30.3583C14.8771 29.0681 14.55 27.6519 14.5489 26.2167C14.5256 19.7767 21.0589 14.27 23.2756 12.5783C23.7072 12.2517 24.2906 12.2517 24.7106 12.5783C25.7256 13.3483 27.6272 14.9467 29.4122 17.0467C29.8089 17.5133 29.7856 18.2133 29.3539 18.645H29.3527ZM33.4501 26.2283C33.4501 31.4317 29.2151 35.6667 24.0001 35.6667C21.9801 35.6709 20.0124 35.0246 18.3884 33.8233C17.8167 33.4033 17.7701 32.5633 18.2717 32.0617L30.0201 20.3133C30.5684 19.765 31.4901 19.8817 31.8634 20.5583C32.8201 22.32 33.4617 24.2333 33.4501 26.2283Z" fill="white"/>
</svg>
