<svg width="48" height="48" viewBox="0 0 48 48" fill="none" xmlns="http://www.w3.org/2000/svg">
<rect width="48" height="48" rx="10" fill="#A3DAF3"/>
<path d="M23.9998 15.5417C23.8831 15.5417 23.7665 15.53 23.6615 15.5067C23.5448 15.4833 23.4398 15.4483 23.3348 15.4133C23.2298 15.3667 23.1248 15.3083 23.0315 15.25C22.7903 15.0907 22.5924 14.8742 22.4555 14.6197C22.3186 14.3652 22.2469 14.0807 22.2469 13.7917C22.2469 13.5027 22.3186 13.2182 22.4555 12.9637C22.5924 12.7092 22.7903 12.4926 23.0315 12.3333C23.1248 12.275 23.2298 12.2167 23.3348 12.1817C23.4398 12.135 23.5448 12.1 23.6615 12.0767C23.9007 12.0298 24.1472 12.0334 24.385 12.0874C24.6227 12.1413 24.8466 12.2444 25.0422 12.39C25.2378 12.5356 25.4008 12.7205 25.5207 12.9329C25.6406 13.1452 25.7147 13.3802 25.7384 13.6229C25.7621 13.8656 25.7348 14.1105 25.6583 14.342C25.5817 14.5735 25.4576 14.7864 25.2938 14.9671C25.1301 15.1478 24.9304 15.2923 24.7076 15.3912C24.4847 15.4902 24.2436 15.5414 23.9998 15.5417ZM23.9998 20.7917C23.8831 20.7917 23.7665 20.78 23.6615 20.7567C23.5448 20.7333 23.4398 20.6983 23.3348 20.6633C23.2298 20.6167 23.1248 20.5583 23.0315 20.5C22.9381 20.43 22.8448 20.36 22.7631 20.2783C22.5797 20.0952 22.4392 19.8736 22.3519 19.6296C22.2646 19.3855 22.2326 19.1251 22.2583 18.8672C22.2839 18.6093 22.3666 18.3603 22.5004 18.1383C22.6341 17.9162 22.8155 17.7267 23.0315 17.5833C23.1248 17.525 23.2298 17.4667 23.3348 17.4317C23.5444 17.3396 23.7708 17.292 23.9998 17.292C24.2287 17.292 24.4552 17.3396 24.6648 17.4317C24.7698 17.4667 24.8748 17.525 24.9681 17.5833C25.1841 17.7267 25.3655 17.9162 25.4992 18.1383C25.6329 18.3603 25.7156 18.6093 25.7413 18.8672C25.767 19.1251 25.735 19.3855 25.6477 19.6296C25.5604 19.8736 25.4199 20.0952 25.2365 20.2783C25.1548 20.36 25.0615 20.43 24.9681 20.5C24.8748 20.5583 24.7698 20.6167 24.6648 20.6633C24.5598 20.6983 24.4548 20.7333 24.3381 20.7567C24.2331 20.78 24.1165 20.7917 23.9998 20.7917ZM23.9998 25.4583C23.8831 25.4583 23.7665 25.4467 23.6615 25.4233C23.5448 25.4 23.4398 25.365 23.3348 25.33C23.2298 25.2833 23.1248 25.225 23.0315 25.1667C22.9381 25.0967 22.8448 25.0267 22.7631 24.945C22.5155 24.7016 22.3485 24.388 22.2848 24.0467C22.2291 23.7651 22.2436 23.4741 22.3271 23.1994C22.4105 22.9247 22.5602 22.6748 22.7631 22.4717C22.8448 22.39 22.9381 22.32 23.0315 22.25C23.1248 22.1917 23.2298 22.1333 23.3348 22.0867C23.4398 22.0517 23.5448 22.0167 23.6615 21.9933C23.943 21.938 24.2338 21.9528 24.5083 22.0364C24.7828 22.12 25.0325 22.2698 25.2354 22.4727C25.4383 22.6756 25.5882 22.9253 25.6718 23.1998C25.7554 23.4743 25.7701 23.7651 25.7148 24.0467C25.6915 24.1633 25.6565 24.2683 25.6098 24.3733C25.5318 24.5905 25.4039 24.7863 25.2365 24.945C25.1548 25.0267 25.0615 25.0967 24.9681 25.1667C24.8748 25.225 24.7698 25.2833 24.6648 25.33C24.5598 25.365 24.4548 25.4 24.3381 25.4233C24.2331 25.4467 24.1165 25.4583 23.9998 25.4583ZM23.9998 29.5428C23.6965 29.5428 23.3931 29.4145 23.1715 29.2045C22.9615 28.9828 22.8331 28.6795 22.8331 28.3762C22.8331 28.0728 22.9615 27.7695 23.1715 27.5478C23.4398 27.2795 23.8481 27.1628 24.2215 27.2328C24.3031 27.2445 24.3731 27.2678 24.4431 27.3028C24.5131 27.3262 24.5831 27.3612 24.6415 27.4078C24.7115 27.4545 24.7698 27.5012 24.8281 27.5478C25.0381 27.7695 25.1665 28.0728 25.1665 28.3762C25.1665 28.6795 25.0381 28.9828 24.8281 29.2045C24.7698 29.2512 24.7115 29.2978 24.6415 29.3445C24.5831 29.3912 24.5131 29.4262 24.4431 29.4495C24.3731 29.4845 24.3031 29.5078 24.2215 29.5195C24.1515 29.5312 24.0698 29.5428 23.9998 29.5428ZM23.9998 33.3333C23.7685 33.3299 23.5472 33.2381 23.3815 33.0767C23.2985 32.9989 23.2346 32.9031 23.1948 32.7967C23.1221 32.6233 23.1072 32.4312 23.1522 32.2487C23.1972 32.0662 23.2998 31.9031 23.4448 31.7834C23.5898 31.6638 23.7695 31.594 23.9572 31.5845C24.1449 31.5749 24.3307 31.626 24.4871 31.7303C24.6435 31.8346 24.7622 31.9864 24.8255 32.1634C24.8889 32.3403 24.8936 32.533 24.8389 32.7128C24.7842 32.8927 24.6731 33.0501 24.522 33.1619C24.3709 33.2736 24.1877 33.3338 23.9998 33.3333ZM23.9998 35.7483C23.9233 35.7493 23.8474 35.7342 23.7771 35.704C23.7068 35.6739 23.6435 35.6294 23.5915 35.5733C23.5354 35.5213 23.4909 35.458 23.4607 35.3877C23.4306 35.3174 23.4155 35.2415 23.4165 35.165C23.4258 35.0167 23.4914 34.8775 23.5997 34.7758C23.7081 34.674 23.8512 34.6174 23.9998 34.6174C24.1484 34.6174 24.2915 34.674 24.3998 34.7758C24.5082 34.8775 24.5737 35.0167 24.5831 35.165C24.5831 35.3167 24.5248 35.4683 24.4081 35.5733C24.356 35.6294 24.2928 35.6739 24.2225 35.704C24.1521 35.7342 24.0763 35.7493 23.9998 35.7483ZM14.0831 20.7917C13.737 20.7919 13.3985 20.6895 13.1107 20.4972C12.8228 20.305 12.5985 20.0317 12.466 19.7119C12.3336 19.3921 12.2991 19.0402 12.3668 18.7007C12.4345 18.3612 12.6015 18.0495 12.8465 17.805C13.4881 17.1517 14.6665 17.1517 15.3198 17.805C15.5033 17.9881 15.6437 18.2097 15.731 18.4537C15.8184 18.6978 15.8503 18.9582 15.8246 19.2161C15.799 19.4741 15.7163 19.723 15.5826 19.9451C15.4488 20.1671 15.2674 20.3567 15.0515 20.5C14.9581 20.5583 14.8531 20.6167 14.7481 20.6517C14.5392 20.7459 14.3123 20.7937 14.0831 20.7917ZM33.9165 20.7917C33.4615 20.7917 33.0065 20.605 32.6798 20.2783C32.3531 19.9517 32.1665 19.4967 32.1665 19.0417C32.1665 18.925 32.1781 18.8083 32.2015 18.7033C32.2248 18.5867 32.2598 18.4817 32.2948 18.3767C32.3415 18.2717 32.3998 18.1667 32.4581 18.0733C32.5281 17.98 32.5981 17.8867 32.6798 17.805C32.7615 17.7233 32.8548 17.6533 32.9481 17.5833C33.0415 17.525 33.1465 17.4667 33.2515 17.4317C33.4611 17.3396 33.6875 17.292 33.9165 17.292C34.1454 17.292 34.3718 17.3396 34.5815 17.4317C34.6865 17.4667 34.7915 17.525 34.8848 17.5833C34.9781 17.6533 35.0715 17.7233 35.1531 17.805C35.2348 17.8867 35.3048 17.98 35.3748 18.0733C35.4331 18.1667 35.4915 18.2717 35.5265 18.3767C35.6207 18.5856 35.6685 18.8125 35.6665 19.0417C35.6667 19.3304 35.5954 19.6147 35.459 19.8691C35.3226 20.1236 35.1253 20.3403 34.8848 20.5C34.7915 20.5583 34.6865 20.6167 34.5815 20.6633C34.4765 20.6983 34.3715 20.7333 34.2548 20.7567C34.1381 20.78 34.0331 20.7917 33.9165 20.7917ZM33.9165 24.8738C33.8465 24.8738 33.7648 24.8622 33.6948 24.8505C33.6175 24.8396 33.5426 24.816 33.4731 24.7805C33.3988 24.755 33.3281 24.7197 33.2631 24.6755C33.2048 24.6405 33.1465 24.5822 33.0881 24.5355C33.0415 24.4772 32.9831 24.4188 32.9481 24.3605C32.9039 24.2955 32.8686 24.2249 32.8431 24.1505C32.8094 24.0844 32.7858 24.0136 32.7731 23.9405C32.7615 23.8588 32.7498 23.7888 32.7498 23.7072C32.7498 23.4038 32.8781 23.1005 33.0881 22.8788L33.2631 22.7388C33.3331 22.6922 33.4031 22.6572 33.4731 22.6338C33.5431 22.5988 33.6131 22.5755 33.6948 22.5638C33.8348 22.5288 33.9865 22.5288 34.1381 22.5638C34.2198 22.5755 34.2898 22.5988 34.3598 22.6338C34.4298 22.6572 34.4998 22.6922 34.5581 22.7388C34.6281 22.7855 34.6865 22.8322 34.7448 22.8788C34.9548 23.1005 35.0831 23.4038 35.0831 23.7072C35.0831 23.7888 35.0715 23.8588 35.0598 23.9405C35.0481 24.0105 35.0248 24.0805 34.9898 24.1505C34.9665 24.2205 34.9315 24.2905 34.8848 24.3605L34.7448 24.5355C34.6865 24.5822 34.6281 24.6405 34.5581 24.6755C34.4998 24.7222 34.4298 24.7572 34.3598 24.7805C34.2898 24.8155 34.2198 24.8388 34.1381 24.8505C34.0681 24.8622 33.9865 24.8738 33.9165 24.8738ZM14.0831 24.8738C13.7798 24.8738 13.4765 24.7455 13.2548 24.5355C13.0448 24.3138 12.9165 24.0105 12.9165 23.7072C12.9165 23.4038 13.0448 23.1005 13.2548 22.8788C13.5815 22.5522 14.0948 22.4472 14.5265 22.6338C14.6781 22.6922 14.7948 22.7738 14.9115 22.8788C15.1215 23.1005 15.2498 23.4038 15.2498 23.7072C15.2498 24.0105 15.1215 24.3138 14.9115 24.5355C14.6898 24.7455 14.3865 24.8738 14.0831 24.8738ZM33.9165 28.081C33.7979 28.0871 33.6793 28.0691 33.568 28.0279C33.4566 27.9868 33.3548 27.9234 33.2687 27.8417C33.1827 27.7599 33.1141 27.6615 33.0673 27.5524C33.0204 27.4434 32.9963 27.3259 32.9963 27.2072C32.9963 27.0885 33.0204 26.971 33.0673 26.8619C33.1141 26.7528 33.1827 26.6544 33.2687 26.5727C33.3548 26.4909 33.4566 26.4276 33.568 26.3864C33.6793 26.3453 33.7979 26.3272 33.9165 26.3333C34.1404 26.3449 34.3514 26.442 34.5058 26.6046C34.6602 26.7672 34.7463 26.9829 34.7463 27.2072C34.7463 27.4314 34.6602 27.6471 34.5058 27.8097C34.3514 27.9723 34.1404 28.0694 33.9165 28.081ZM14.0831 28.0857C13.9391 28.0854 13.7973 28.0495 13.6705 27.9812C13.5436 27.913 13.4356 27.8145 13.3559 27.6944C13.2763 27.5744 13.2275 27.4365 13.214 27.2931C13.2004 27.1497 13.2224 27.0052 13.2781 26.8723C13.3131 26.7673 13.3831 26.674 13.4648 26.5923C13.7798 26.2657 14.3748 26.2657 14.7015 26.5923C14.8629 26.7581 14.9547 26.9793 14.9581 27.2107C14.9547 27.442 14.8629 27.6633 14.7015 27.829C14.5375 27.9931 14.3151 28.0855 14.0831 28.0857ZM33.9165 31C33.8348 31 33.7648 30.9883 33.6948 30.9533C33.6218 30.9287 33.5572 30.8843 33.5081 30.825C33.4521 30.7729 33.4076 30.7097 33.3774 30.6394C33.3473 30.569 33.3322 30.4932 33.3331 30.4167C33.3425 30.2683 33.408 30.1292 33.5164 30.0274C33.6248 29.9257 33.7678 29.8691 33.9165 29.8691C34.0651 29.8691 34.2081 29.9257 34.3165 30.0274C34.4249 30.1292 34.4904 30.2683 34.4998 30.4167C34.4998 30.5683 34.4415 30.72 34.3248 30.825C34.2727 30.881 34.2095 30.9256 34.1391 30.9557C34.0688 30.9858 33.993 31.0009 33.9165 31ZM14.0831 31C13.9315 31 13.7798 30.9417 13.6748 30.825C13.6187 30.7729 13.5742 30.7097 13.5441 30.6394C13.5139 30.569 13.4989 30.4932 13.4998 30.4167C13.5092 30.2683 13.5747 30.1292 13.6831 30.0274C13.7914 29.9257 13.9345 29.8691 14.0831 29.8691C14.2317 29.8691 14.3748 29.9257 14.4832 30.0274C14.5915 30.1292 14.6571 30.2683 14.6665 30.4167C14.6665 30.5683 14.6081 30.72 14.4915 30.825C14.3865 30.9417 14.2348 31 14.0831 31ZM19.0415 18.1667C18.8123 18.1687 18.5854 18.1209 18.3765 18.0267C18.2598 17.9917 18.1665 17.9333 18.0731 17.875C17.8338 17.7141 17.6375 17.4971 17.5012 17.2429C17.365 16.9887 17.293 16.7051 17.2915 16.4167C17.2915 15.9617 17.4781 15.5067 17.8048 15.18C18.4581 14.5267 19.6248 14.5267 20.2781 15.18C20.4616 15.3631 20.6021 15.5847 20.6894 15.8287C20.7767 16.0728 20.8087 16.3332 20.783 16.5911C20.7573 16.8491 20.6746 17.098 20.5409 17.3201C20.4072 17.5421 20.2258 17.7317 20.0098 17.875C19.9165 17.9333 19.8115 17.9917 19.7065 18.0267C19.4975 18.1209 19.2706 18.1687 19.0415 18.1667ZM28.9581 18.1667C28.7289 18.1687 28.5021 18.1209 28.2931 18.0267C28.1881 17.9917 28.0831 17.9333 27.9898 17.875C27.8952 17.8075 27.8056 17.7335 27.7215 17.6533C27.6398 17.5717 27.5698 17.4783 27.4998 17.385C27.4415 17.2917 27.3831 17.1867 27.3365 17.0817C27.3015 16.9767 27.2665 16.8717 27.2431 16.755C27.2198 16.65 27.2081 16.5333 27.2081 16.4167C27.2096 16.1283 27.2817 15.8446 27.4179 15.5905C27.5541 15.3363 27.7505 15.1193 27.9898 14.9583C28.0831 14.9 28.1881 14.8417 28.2931 14.8067C28.5027 14.7146 28.7292 14.667 28.9581 14.667C29.1871 14.667 29.4135 14.7146 29.6231 14.8067C29.7281 14.8417 29.8331 14.9 29.9265 14.9583C30.1658 15.1193 30.3621 15.3363 30.4983 15.5905C30.6346 15.8446 30.7066 16.1283 30.7081 16.4167C30.7081 16.5333 30.6965 16.65 30.6731 16.755C30.6498 16.8717 30.6148 16.9767 30.5798 17.0817C30.5331 17.1867 30.4748 17.2917 30.4165 17.385C30.3465 17.4783 30.2765 17.5717 30.1948 17.6533C30.1131 17.735 30.0198 17.805 29.9265 17.875C29.8331 17.9333 29.7281 17.9917 29.6231 18.0267C29.4142 18.1209 29.1873 18.1687 28.9581 18.1667ZM19.0415 23.125C18.9248 23.125 18.8081 23.1133 18.7031 23.09C18.5865 23.0667 18.4815 23.0317 18.3765 22.9967C18.1616 22.9088 17.967 22.7778 17.8048 22.6117C17.6424 22.4493 17.5135 22.2565 17.4256 22.0443C17.3378 21.8321 17.2925 21.6047 17.2925 21.375C17.2925 21.1453 17.3378 20.9179 17.4256 20.7057C17.5135 20.4935 17.6424 20.3007 17.8048 20.1383C18.4581 19.485 19.6248 19.485 20.2781 20.1383C20.5231 20.3829 20.6901 20.6946 20.7578 21.034C20.8255 21.3735 20.791 21.7254 20.6585 22.0452C20.5261 22.365 20.3018 22.6383 20.0139 22.8306C19.726 23.0228 19.3876 23.1253 19.0415 23.125ZM28.9581 23.125C28.7289 23.127 28.5021 23.0792 28.2931 22.985C28.1881 22.95 28.0831 22.8917 27.9898 22.8333C27.8965 22.7633 27.8031 22.6933 27.7215 22.6117C27.6398 22.53 27.5698 22.4367 27.4998 22.3433C27.4415 22.25 27.3831 22.145 27.3365 22.04C27.3015 21.935 27.2665 21.83 27.2431 21.7133C27.2198 21.6083 27.2081 21.4917 27.2081 21.375C27.2081 20.92 27.3948 20.465 27.7215 20.1383C27.8031 20.0567 27.8965 19.9867 27.9898 19.9167C28.0831 19.8583 28.1881 19.8 28.2931 19.765C28.5027 19.6729 28.7292 19.6254 28.9581 19.6254C29.1871 19.6254 29.4135 19.6729 29.6231 19.765C29.7281 19.8 29.8331 19.8583 29.9265 19.9167C30.1658 20.0776 30.3621 20.2946 30.4983 20.5488C30.6346 20.803 30.7066 21.0866 30.7081 21.375C30.7081 21.4917 30.6965 21.6083 30.6731 21.7133C30.6498 21.83 30.6148 21.935 30.5798 22.04C30.5331 22.145 30.4748 22.25 30.4165 22.3433C30.3465 22.4367 30.2765 22.53 30.1948 22.6117C30.1131 22.6933 30.0198 22.7633 29.9265 22.8333C29.8331 22.8917 29.7281 22.95 29.6231 22.985C29.4142 23.0792 29.1873 23.127 28.9581 23.125ZM19.0415 27.2083C18.8898 27.2083 18.7381 27.1733 18.5981 27.115C18.4539 27.0615 18.3227 26.978 18.2131 26.87C18.1081 26.7533 18.0265 26.625 17.9681 26.485C17.9082 26.3448 17.8765 26.1941 17.8748 26.0417C17.8748 25.7383 18.0031 25.435 18.2131 25.2133C18.6448 24.7817 19.4381 24.7817 19.8698 25.2133C20.0798 25.435 20.2081 25.7383 20.2081 26.0417C20.2081 26.1933 20.1731 26.345 20.1148 26.485C20.0565 26.625 19.9748 26.7533 19.8698 26.87C19.6481 27.08 19.3448 27.2083 19.0415 27.2083ZM28.9581 27.2083C28.6548 27.2083 28.3515 27.08 28.1298 26.87C27.9198 26.6483 27.7915 26.345 27.7915 26.0417C27.7915 25.7383 27.9198 25.435 28.1298 25.2133C28.5615 24.7817 29.3431 24.7817 29.7865 25.2133C29.9965 25.435 30.1248 25.7383 30.1248 26.0417C30.1248 26.1233 30.1131 26.1933 30.1015 26.275C30.0898 26.345 30.0665 26.415 30.0315 26.485C30.0081 26.555 29.9731 26.625 29.9265 26.6833C29.8798 26.7533 29.8331 26.8117 29.7865 26.87C29.5648 27.08 29.2615 27.2083 28.9581 27.2083ZM19.0415 30.7083C18.9239 30.7126 18.8068 30.6932 18.6969 30.6512C18.5871 30.6092 18.4868 30.5455 18.4022 30.4638C18.3175 30.3822 18.2502 30.2844 18.2042 30.1761C18.1582 30.0679 18.1345 29.9515 18.1345 29.8339C18.1345 29.7163 18.1582 29.5999 18.2042 29.4917C18.2502 29.3835 18.3175 29.2856 18.4022 29.204C18.4868 29.1224 18.5871 29.0587 18.6969 29.0167C18.8068 28.9746 18.9239 28.9552 19.0415 28.9595C19.2678 28.9678 19.4822 29.0635 19.6394 29.2266C19.7967 29.3897 19.8845 29.6074 19.8845 29.8339C19.8845 30.0605 19.7967 30.2782 19.6394 30.4412C19.4822 30.6043 19.2678 30.7001 19.0415 30.7083ZM28.9581 30.7083C28.7268 30.7049 28.5055 30.6131 28.3398 30.4517C28.2568 30.3739 28.193 30.2781 28.1531 30.1717C28.106 30.0651 28.0816 29.9499 28.0816 29.8333C28.0816 29.7168 28.106 29.6016 28.1531 29.495C28.1998 29.39 28.2581 29.2967 28.3398 29.215C28.4215 29.1333 28.5148 29.075 28.6198 29.0283C28.7266 28.9821 28.8417 28.9583 28.9581 28.9583C29.0745 28.9583 29.1897 28.9821 29.2965 29.0283C29.4015 29.075 29.4948 29.1333 29.5765 29.215C29.7379 29.3807 29.8297 29.602 29.8331 29.8333C29.8297 30.0647 29.7379 30.2859 29.5765 30.4517C29.4125 30.6158 29.1901 30.7081 28.9581 30.7083ZM19.0415 33.3333C18.8898 33.3333 18.7381 33.275 18.6331 33.1583C18.5771 33.1063 18.5326 33.043 18.5024 32.9727C18.4723 32.9024 18.4572 32.8265 18.4581 32.75C18.4675 32.6017 18.533 32.4625 18.6414 32.3608C18.7498 32.259 18.8928 32.2024 19.0415 32.2024C19.1901 32.2024 19.3331 32.259 19.4415 32.3608C19.5499 32.4625 19.6154 32.6017 19.6248 32.75C19.6248 32.9017 19.5665 33.0533 19.4498 33.1583C19.3448 33.275 19.1931 33.3333 19.0415 33.3333ZM28.9581 33.3333C28.8765 33.3333 28.8065 33.3217 28.7365 33.2867C28.6635 33.2621 28.5989 33.2176 28.5498 33.1583C28.4905 33.1093 28.4461 33.0446 28.4215 32.9717C28.3882 32.9026 28.3722 32.8266 28.3748 32.75C28.3842 32.6017 28.4497 32.4625 28.5581 32.3608C28.6664 32.259 28.8095 32.2024 28.9581 32.2024C29.1068 32.2024 29.2498 32.259 29.3582 32.3608C29.4665 32.4625 29.5321 32.6017 29.5415 32.75C29.5415 32.8317 29.5298 32.9017 29.4948 32.9717C29.4715 33.0417 29.4248 33.1117 29.3665 33.1583C29.3144 33.2144 29.2511 33.2589 29.1808 33.289C29.1105 33.3192 29.0346 33.3343 28.9581 33.3333Z" fill="white"/>
</svg>
