<svg width="18" height="18" viewBox="0 0 18 18" fill="none" xmlns="http://www.w3.org/2000/svg">
<g id="Icons">
<g id="Vector">
<path d="M11.1684 15C10.9989 15 10.8294 14.9384 10.6956 14.8064C10.4369 14.5512 10.4369 14.1289 10.6956 13.8737L15.6376 8.99889L10.6956 4.12411C10.4369 3.86893 10.4369 3.44656 10.6956 3.19138C10.9543 2.93621 11.3825 2.93621 11.6412 3.19138L17.0559 8.53253C17.3146 8.78771 17.3146 9.21007 17.0559 9.46525L11.6412 14.8064C11.5073 14.9384 11.3379 15 11.1684 15Z" fill="#2A2D2E"/>
<path d="M16.4323 9.65874H1.41904C1.0533 9.65874 0.75 9.35957 0.75 8.9988C0.75 8.63803 1.0533 8.33885 1.41904 8.33885H16.4323C16.7981 8.33885 17.1014 8.63803 17.1014 8.9988C17.1014 9.35957 16.7981 9.65874 16.4323 9.65874Z" fill="#2A2D2E"/>
</g>
</g>
</svg>
