<svg width="130" height="26" viewBox="0 0 130 26" fill="none" xmlns="http://www.w3.org/2000/svg">
<g id="logo-old 1" clip-path="url(#clip0_610_4252)">
<path id="Vector" d="M108.297 4.30113H110.637C110.672 4.29858 110.708 4.30785 110.737 4.3275C110.767 4.34714 110.79 4.37604 110.801 4.40967C110.832 4.48616 110.861 4.56472 110.894 4.64121L114.031 12.2686C114.067 12.3565 114.104 12.4433 114.135 12.5301C114.268 12.4898 114.27 12.3627 114.31 12.2717C115.107 10.4601 115.9 8.64666 116.689 6.83154C117.054 5.99531 117.417 5.15908 117.785 4.33111C117.891 4.29825 118.003 4.28838 118.114 4.30217H120.12C120.536 4.30217 120.445 4.23705 120.621 4.61227C120.985 5.38441 121.339 6.16276 121.698 6.93491C122.51 8.68938 123.323 10.4428 124.136 12.1952C124.182 12.3283 124.253 12.4516 124.344 12.5591C124.89 11.1843 125.405 9.81263 125.934 8.44716C126.464 7.08169 126.989 5.70485 127.513 4.34248C127.801 4.2939 129.394 4.27943 129.994 4.31767C130.018 4.42931 129.954 4.5244 129.918 4.61743C128.871 7.38835 127.823 10.1586 126.773 12.9281L125.412 16.518C125.383 16.5955 125.353 16.6731 125.32 16.7485C125.313 16.7703 125.299 16.7892 125.28 16.8031C125.262 16.8169 125.239 16.8249 125.216 16.826H123.38C123.325 16.7123 123.276 16.6069 123.222 16.5004L119.329 7.95721C119.285 7.86004 119.241 7.76288 119.193 7.66778C119.188 7.65836 119.18 7.65022 119.171 7.64396C119.163 7.63771 119.153 7.63348 119.142 7.6316C119.131 7.63164 119.12 7.63418 119.11 7.63902C119.101 7.64387 119.092 7.65087 119.086 7.65951C119.049 7.73393 119.017 7.81043 118.982 7.88692L115.27 16.5077C115.241 16.5728 115.21 16.6379 115.187 16.7051C115.176 16.745 115.15 16.7793 115.115 16.8019C115.079 16.8245 115.037 16.8338 114.996 16.8281H113.278C113.254 16.8218 113.23 16.8131 113.208 16.8023C113.2 16.7934 113.194 16.7833 113.19 16.7723C111.569 12.6866 109.948 8.60014 108.327 4.51303C108.311 4.46842 108.297 4.42286 108.287 4.37659C108.288 4.35115 108.291 4.32585 108.297 4.30113ZM43.1342 8.52676V0.597514C43.1342 0.15097 43.0769 0.192314 43.5275 0.191281H45.1406C45.2238 0.191281 45.3071 0.191281 45.3903 0.197483C45.4143 0.197745 45.4373 0.207273 45.4544 0.224053C45.4715 0.240833 45.4814 0.263553 45.4819 0.287414C45.4871 0.382511 45.4881 0.476575 45.4881 0.571672V4.1988C45.4881 4.27219 45.5339 4.30217 45.6005 4.30217H53.0527C53.3512 4.29911 53.6487 4.33809 53.9362 4.41794C54.5187 4.58666 55.031 4.93744 55.3969 5.41822C55.7629 5.89901 55.963 6.48417 55.9676 7.08686C55.9599 9.40916 55.9599 11.7321 55.9676 14.0558C55.9607 14.7924 55.662 15.4966 55.1361 16.0159C54.6101 16.5352 53.8994 16.8278 53.1578 16.8302C49.9213 16.824 46.6849 16.824 43.4485 16.8302C43.0894 16.8302 43.1363 16.8457 43.1363 16.4942C43.1349 13.8377 43.1342 11.1819 43.1342 8.52676ZM49.5571 6.64032C48.4218 6.64032 47.2874 6.65479 46.1521 6.63412C45.6526 6.62481 45.4767 6.87703 45.4798 7.28739C45.4923 9.46843 45.4861 11.6505 45.4861 13.8326V14.0455C45.4905 14.1592 45.5374 14.2671 45.6177 14.3484C45.6979 14.4296 45.8057 14.4782 45.92 14.4848C45.9918 14.491 46.0636 14.4848 46.1354 14.4848H52.9455C53.0292 14.4874 53.1129 14.4853 53.1963 14.4786C53.298 14.4696 53.3935 14.4262 53.4668 14.3556C53.5401 14.2851 53.5868 14.1916 53.599 14.091C53.6112 13.9981 53.6168 13.9045 53.6157 13.8108V7.33701C53.6183 7.24215 53.6152 7.14723 53.6063 7.05275C53.5958 6.94546 53.5471 6.84545 53.4688 6.77076C53.3906 6.69607 53.288 6.65164 53.1797 6.64548C53.0839 6.63721 52.9882 6.64548 52.8924 6.64548L49.5571 6.64032ZM101.257 16.8271H97.6366C97.0599 16.8211 96.4989 16.6395 96.0294 16.3068C95.5598 15.974 95.2044 15.5062 95.0111 14.9665C94.9052 14.6761 94.85 14.3699 94.8477 14.061C94.8477 11.7363 94.8373 9.40951 94.8477 7.0879C94.8474 6.47705 95.0499 5.88314 95.4237 5.39807C95.7975 4.913 96.3218 4.5638 96.9155 4.4045C97.1569 4.33658 97.4065 4.3018 97.6574 4.30113H104.863C105.514 4.29928 106.145 4.52179 106.649 4.93068C107.153 5.33957 107.498 5.90948 107.626 6.54315C107.661 6.72955 107.677 6.91895 107.675 7.10856C107.675 9.4095 107.663 11.7094 107.682 14.0103C107.684 14.6742 107.45 15.3173 107.021 15.8264C106.592 16.3355 105.996 16.6778 105.338 16.793C105.161 16.8203 104.982 16.8317 104.803 16.8271H101.257ZM101.275 6.64032H97.6585C97.5442 6.6464 97.4359 6.69288 97.353 6.77136C97.2702 6.84983 97.2184 6.95514 97.2068 7.06826C97.199 7.15105 97.1969 7.23429 97.2006 7.31737V14.0424C97.2095 14.1618 97.2632 14.2735 97.3511 14.3555C97.4389 14.4374 97.5546 14.4836 97.6751 14.4848H104.593C104.665 14.4848 104.737 14.4786 104.808 14.4848C105.07 14.5096 105.317 14.3329 105.34 13.9845V7.29669C105.342 7.21373 105.337 7.13073 105.325 7.04862C105.312 6.93495 105.257 6.83006 105.171 6.75385C105.085 6.67764 104.974 6.6354 104.859 6.63515C104.763 6.62895 104.667 6.63515 104.572 6.63515L101.275 6.64032ZM63.9016 16.8271C62.6944 16.8271 61.4872 16.8209 60.2811 16.8271C59.6668 16.8246 59.0701 16.623 58.5817 16.2528C58.0933 15.8826 57.74 15.3642 57.5754 14.7763C57.5074 14.5368 57.4724 14.2892 57.4713 14.0403V7.10236C57.47 6.73307 57.5424 6.36717 57.6844 6.02588C57.8264 5.68458 58.0352 5.37467 58.2987 5.11412C58.5622 4.85356 58.8751 4.64754 59.2193 4.50799C59.5635 4.36843 59.9322 4.29812 60.304 4.30113C62.6975 4.29493 65.0838 4.30113 67.4731 4.30113C68.1487 4.29759 68.8032 4.53415 69.3185 4.96807C69.8338 5.40199 70.1759 6.00466 70.2829 6.66719C70.3034 6.80785 70.3125 6.94992 70.31 7.09203C70.31 9.40434 70.2996 11.7166 70.31 14.03C70.309 14.7004 70.0665 15.3484 69.6264 15.8567C69.1862 16.365 68.5774 16.7 67.9102 16.8012C67.7443 16.823 67.5769 16.8313 67.4096 16.826C66.2413 16.8281 65.072 16.8285 63.9016 16.8271ZM63.9224 6.64032C62.787 6.64032 61.6517 6.65582 60.5173 6.63412C59.997 6.62378 59.8212 6.86876 59.8232 7.30187C59.8368 9.48393 59.8295 11.666 59.8295 13.847V13.9897C59.8461 14.2998 60.0106 14.4703 60.3175 14.4869H67.3066C67.3903 14.4896 67.474 14.4872 67.5574 14.4796C67.6527 14.4679 67.7416 14.4259 67.8109 14.36C67.8803 14.2941 67.9264 14.2077 67.9425 14.1137C67.9543 14.0198 67.9588 13.9251 67.956 13.8305V7.3184C67.959 7.2235 67.9551 7.12851 67.9445 7.03414C67.9314 6.93356 67.8843 6.84037 67.811 6.76979C67.7376 6.69921 67.6424 6.65539 67.5408 6.64548C67.4456 6.63738 67.35 6.63496 67.2546 6.63825L63.9224 6.64032ZM87.0261 3.59514H75.4238C74.9732 3.59514 75.0314 3.53829 75.0304 3.9962V7.76701C75.0304 7.78122 75.0333 7.79528 75.0389 7.80831C75.0446 7.82135 75.0529 7.83309 75.0634 7.84279C75.0739 7.85249 75.0862 7.85994 75.0997 7.86469C75.1132 7.86944 75.1275 7.87138 75.1417 7.87038H84.5327C84.6617 7.87038 84.6929 7.89829 84.694 8.00889V10.0762C84.6966 10.0938 84.695 10.1117 84.6894 10.1286C84.6838 10.1455 84.6743 10.1608 84.6617 10.1734C84.649 10.1859 84.6336 10.1954 84.6166 10.2009C84.5996 10.2065 84.5816 10.208 84.5639 10.2054H75.4227C74.968 10.2054 75.0283 10.1455 75.0273 10.6013V16.5077C75.0273 16.8405 75.0595 16.8178 74.7276 16.8178H72.8679C72.6847 16.8178 72.6816 16.8095 72.6775 16.6431V1.56812C72.6775 1.24975 72.666 1.25802 72.9897 1.25802H86.7545C87.0354 1.25802 87.0386 1.25802 87.0396 1.52161V3.40701C87.0375 3.45456 87.0323 3.50108 87.0261 3.59514ZM16.8367 9.31544V4.69186C16.8367 4.24325 16.7899 4.30527 17.2446 4.3032H19.0731C19.0874 4.30205 19.1019 4.30388 19.1155 4.30856C19.1291 4.31324 19.1415 4.32067 19.1521 4.33039C19.1627 4.3401 19.1711 4.35189 19.1768 4.365C19.1826 4.37811 19.1855 4.39227 19.1855 4.40657V13.6889C19.1855 13.7922 19.1792 13.9028 19.1855 14.0093C19.1851 14.0717 19.1971 14.1336 19.221 14.1914C19.2448 14.2491 19.28 14.3016 19.3244 14.3457C19.3689 14.3899 19.4217 14.4248 19.4798 14.4485C19.538 14.4722 19.6003 14.4842 19.6631 14.4838C19.7464 14.4889 19.8307 14.4838 19.9139 14.4838H26.8666C26.9872 14.4822 27.1027 14.4356 27.1903 14.3533C27.2778 14.2709 27.3309 14.1588 27.339 14.0393C27.3474 13.9359 27.339 13.8264 27.339 13.7199V4.727C27.339 4.22981 27.2683 4.30837 27.7792 4.30423H29.5713C29.5858 4.30278 29.6004 4.30438 29.6143 4.30892C29.6281 4.31347 29.6409 4.32085 29.6517 4.3306C29.6625 4.34034 29.6711 4.35224 29.6769 4.3655C29.6828 4.37877 29.6858 4.39311 29.6857 4.4076V13.939C29.6857 15.1391 29.1383 16.025 28.0508 16.5645C27.695 16.739 27.3029 16.8279 26.9061 16.824H19.5955C18.9293 16.8116 18.2893 16.564 17.7903 16.1255C17.2912 15.687 16.9657 15.0863 16.8721 14.431C16.8475 14.2432 16.8353 14.054 16.8357 13.8646C16.837 12.3492 16.8374 10.8329 16.8367 9.31544ZM7.89223 1.25802H15.4235C15.7471 1.25802 15.7357 1.25182 15.7357 1.56812V3.34603C15.7357 3.59307 15.7357 3.59514 15.4724 3.59411H9.34083C9.07025 3.59411 9.06609 3.57964 9.06609 3.86596V16.67C9.06609 16.8023 9.04736 16.824 8.92873 16.824H6.84741C6.72981 16.824 6.71212 16.8012 6.709 16.672V4.00964C6.709 3.52692 6.76832 3.59617 6.29273 3.59617H0.199674C0.075835 3.59617 0.0508579 3.57033 0.0487766 3.45456C0.0466953 3.33879 0.0487766 3.19304 0.0487766 3.0628V1.56916C0.0487766 1.49784 0.0487774 1.42651 0.056062 1.35622C0.0563302 1.34432 0.05897 1.33259 0.0638364 1.32172C0.0687029 1.31084 0.0756973 1.30103 0.0844095 1.29286C0.0931218 1.28468 0.103382 1.27831 0.114593 1.27411C0.125804 1.2699 0.137741 1.26795 0.149718 1.26836C0.253784 1.26319 0.364097 1.26112 0.472326 1.26112L7.89223 1.25802ZM31.9492 11.8055V7.1127C31.9438 6.69653 32.0342 6.28464 32.2135 5.90845C32.3927 5.53226 32.6561 5.20171 32.9836 4.94201C33.4704 4.52758 34.0907 4.30021 34.7319 4.30113H41.7168C41.7844 4.30113 41.8292 4.33214 41.8323 4.4045C41.8354 4.47686 41.8323 4.52234 41.8323 4.58229V6.5018C41.8323 6.5845 41.7969 6.63618 41.7064 6.63618H35.0826C34.9868 6.63618 34.8911 6.64239 34.7964 6.63618C34.7307 6.63603 34.6657 6.64894 34.6052 6.67417C34.5446 6.6994 34.4898 6.73643 34.4439 6.78307C34.398 6.82971 34.362 6.88502 34.338 6.94572C34.314 7.00642 34.3025 7.07128 34.3042 7.13648C34.3104 7.23984 34.3042 7.34941 34.3042 7.45588V16.6999C34.3042 16.8064 34.2521 16.8219 34.1699 16.8219H32.5579C32.3685 16.8219 32.1781 16.8498 31.9908 16.8012C31.9086 16.61 31.9523 16.4074 31.9523 16.211C31.9471 14.7411 31.9492 13.2754 31.9492 11.8055ZM90.6444 7.16955V14.0021C90.6621 14.3122 90.8245 14.4796 91.1377 14.49C91.3885 14.4982 91.6393 14.49 91.8901 14.49H93.2877C93.4376 14.49 93.4636 14.5117 93.4636 14.645V16.7123C93.4636 16.8064 93.4105 16.8312 93.3283 16.8312C92.5166 16.8312 91.7028 16.8591 90.8921 16.8198C90.3034 16.782 89.742 16.5591 89.2892 16.1834C88.8365 15.8076 88.5159 15.2985 88.3737 14.7298C88.3118 14.4761 88.2838 14.2155 88.2905 13.9545V0.585107C88.2905 0.143732 88.2426 0.195418 88.6974 0.19335H90.5248C90.5399 0.192095 90.555 0.19412 90.5692 0.199287C90.5834 0.204453 90.5963 0.212637 90.607 0.223264C90.6177 0.233892 90.626 0.246708 90.6312 0.260822C90.6364 0.274936 90.6384 0.290007 90.6372 0.304985V0.625421L90.6444 7.16955ZM61.7328 22.5174V21.8745C61.7328 21.7711 61.6746 21.7287 61.5705 21.7225C61.4664 21.7163 61.3801 21.7225 61.2843 21.7225H58.7774C58.7625 21.7237 58.7475 21.7218 58.7334 21.7167C58.7194 21.7117 58.7066 21.7037 58.6959 21.6933C58.6853 21.6829 58.677 21.6703 58.6716 21.6565C58.6663 21.6426 58.664 21.6278 58.665 21.6129V21.1158C58.6655 21.104 58.6684 21.0925 58.6735 21.0819C58.6785 21.0713 58.6857 21.0618 58.6945 21.054C58.7034 21.0462 58.7137 21.0403 58.7249 21.0365C58.736 21.0327 58.7479 21.0312 58.7597 21.032H61.5174C61.6125 21.0292 61.7075 21.0378 61.8005 21.0579C61.9825 21.0993 62.1443 21.2023 62.2582 21.3492C62.3721 21.4961 62.431 21.6778 62.4249 21.8631C62.4322 22.3603 62.4249 22.8585 62.4249 23.3557V24.4162C62.4249 24.7377 62.4415 24.715 62.1064 24.715H59.4205C59.2289 24.7012 59.0482 24.6214 58.9097 24.4892C58.7711 24.3571 58.6835 24.181 58.6619 23.9914C58.6549 23.9207 58.6521 23.8496 58.6535 23.7785V22.7831C58.6454 22.7384 58.6462 22.6925 58.6561 22.6482C58.6659 22.6038 58.6845 22.5618 58.7108 22.5246L61.7328 22.5174ZM60.5569 23.2131H59.4819C59.4007 23.2131 59.3456 23.2451 59.3456 23.3371V23.8694C59.3456 23.9058 59.3597 23.9408 59.3852 23.9671C59.4106 23.9933 59.4453 24.0087 59.4819 24.01C59.5651 24.0162 59.6484 24.0152 59.7327 24.0152H61.0939C61.2947 24.0152 61.4977 24.0472 61.6964 23.9914C61.7734 23.7847 61.7235 23.5779 61.7308 23.3712C61.7308 23.2358 61.7131 23.2203 61.5549 23.2193C61.2198 23.2172 60.8857 23.2172 60.5517 23.2172L60.5569 23.2131ZM90.7849 23.2172H87.8961C87.7722 23.2172 87.7431 23.2472 87.741 23.3598C87.741 23.5139 87.7358 23.6699 87.741 23.8219C87.7462 23.9738 87.793 24.0111 87.9367 24.0183H90.8026C90.8333 24.227 90.8403 24.4385 90.8234 24.6488C90.7673 24.7346 90.7017 24.716 90.6465 24.716H87.9595C87.8167 24.7224 87.6743 24.6962 87.5433 24.6395C87.4104 24.5837 87.2954 24.4929 87.2109 24.3768C87.1263 24.2607 87.0754 24.1239 87.0635 23.9811C87.0587 23.9219 87.0569 23.8626 87.0583 23.8033V21.9189C87.0487 21.7885 87.0678 21.6576 87.1145 21.5354C87.1752 21.3856 87.2795 21.2572 87.4141 21.1666C87.5487 21.076 87.7075 21.0273 87.8701 21.0269C88.0969 21.0176 88.3238 21.0269 88.5506 21.0269H89.9847C90.0982 21.0244 90.2111 21.045 90.3163 21.0875C90.4216 21.13 90.5169 21.1934 90.5966 21.2739C90.6672 21.3386 90.724 21.4169 90.7635 21.5039C90.803 21.5909 90.8245 21.685 90.8266 21.7804V23.1314C90.8234 23.149 90.8047 23.1707 90.7849 23.2172ZM88.9118 22.5226H89.9836C90.1356 22.5226 90.1501 22.506 90.1512 22.3624C90.1512 22.197 90.1512 22.0306 90.1418 21.8662C90.14 21.8302 90.1245 21.7962 90.0984 21.771C90.0723 21.7459 90.0376 21.7315 90.0013 21.7308C89.9295 21.7256 89.8587 21.7246 89.7869 21.7246H87.9262C87.8055 21.7246 87.7504 21.7804 87.7452 21.8982C87.7368 22.0636 87.7452 22.229 87.7452 22.3954C87.7452 22.4874 87.7962 22.5195 87.8773 22.5195L88.9118 22.5226ZM42.1195 22.2683V24.6147C42.1201 24.6265 42.1183 24.6382 42.1142 24.6493C42.1102 24.6604 42.104 24.6705 42.0959 24.6792C42.0879 24.6878 42.0782 24.6948 42.0674 24.6997C42.0566 24.7046 42.045 24.7073 42.0331 24.7077C41.9858 24.7127 41.9382 24.7151 41.8906 24.715H39.2338C39.1141 24.7199 38.9947 24.7017 38.882 24.6612C38.7224 24.6077 38.5836 24.5058 38.4853 24.3699C38.3869 24.234 38.3339 24.0709 38.3336 23.9036C38.3232 23.6906 38.3336 23.4767 38.3336 23.2637V21.9117C38.3281 21.7567 38.364 21.6029 38.4377 21.4662C38.5058 21.3327 38.6101 21.2208 38.7388 21.143C38.8675 21.0652 39.0155 21.0246 39.1661 21.0258C39.5241 21.0196 39.8831 21.0258 40.2411 21.0258H41.2443C41.4212 21.0258 41.4296 21.0165 41.4306 20.8522V19.9632C41.4306 19.8423 41.4556 19.8237 41.5805 19.8175H41.6158C42.2225 19.8309 42.1216 19.7141 42.1268 20.3147C42.1247 20.9638 42.1195 21.6161 42.1195 22.2683ZM40.2016 24.0162H41.2037C41.3817 24.0162 41.4181 23.9821 41.4192 23.8095V21.9262C41.4192 21.7608 41.3765 21.7194 41.1975 21.7194H39.2286C39.0787 21.7194 39.0402 21.7649 39.0319 21.9106V23.6162C39.0319 24.0297 39.0392 24.0162 39.4169 24.0142L40.2016 24.0162ZM77.811 20.9762C77.9019 21.0265 78.0077 21.043 78.1097 21.0227H79.934C80.0293 21.0191 80.1248 21.0243 80.2191 21.0382C80.4023 21.074 80.5681 21.1699 80.6898 21.3105C80.8116 21.4511 80.8822 21.6282 80.8903 21.8135C80.9028 21.9778 80.8903 22.1443 80.8903 22.3096V23.7309C80.8929 23.8369 80.8848 23.9428 80.8664 24.0472C80.8336 24.2235 80.7431 24.3841 80.6089 24.5039C80.4747 24.6238 80.3044 24.6961 80.1244 24.7098H77.4052C77.3335 24.7121 77.2619 24.7086 77.1908 24.6995C77.1749 24.6945 77.1605 24.6858 77.1487 24.6741C77.137 24.6624 77.1282 24.648 77.1232 24.6323C77.1129 24.5862 77.1094 24.5388 77.1128 24.4917V19.9136C77.1113 19.8901 77.1192 19.8669 77.1348 19.8492C77.1504 19.8314 77.1723 19.8204 77.196 19.8185C77.2196 19.8169 77.2432 19.8169 77.2668 19.8185C77.9005 19.8319 77.7954 19.7151 77.8048 20.326C77.8131 20.5452 77.811 20.7674 77.811 20.9762ZM78.9943 24.0152H80.0308C80.0517 24.0174 80.0728 24.0152 80.0927 24.0086C80.1127 24.002 80.131 23.9912 80.1464 23.977C80.1618 23.9628 80.1739 23.9455 80.182 23.9262C80.19 23.9069 80.1938 23.8862 80.1931 23.8653C80.1951 23.8309 80.1951 23.7964 80.1931 23.7619V21.982C80.1951 21.9475 80.1951 21.913 80.1931 21.8786C80.1817 21.7814 80.1338 21.738 80.0297 21.7267C80.0058 21.7251 79.9818 21.7251 79.9579 21.7267H78.0275C77.8527 21.7267 77.8194 21.7649 77.8131 21.9334V23.8488C77.8131 23.9718 77.8631 24.0162 77.9911 24.0173C78.3272 24.0173 78.6602 24.0152 78.9943 24.0152ZM93.3262 24.7139C92.9797 24.7139 92.6331 24.7232 92.2856 24.7139C92.0684 24.7126 91.8603 24.627 91.7057 24.4754C91.5511 24.3238 91.4623 24.1182 91.4582 23.9025C91.4582 23.7857 91.4853 23.7464 91.5935 23.7433C91.7018 23.7402 91.8329 23.7433 91.9515 23.7433C92.0702 23.7433 92.1596 23.7619 92.1669 23.9108C92.1703 23.9405 92.1851 23.9678 92.2081 23.987C92.2311 24.0062 92.2607 24.0159 92.2908 24.0142C92.3501 24.0193 92.4104 24.0204 92.4698 24.0204H94.2243C94.2839 24.0235 94.3437 24.0235 94.4033 24.0204C94.4668 24.0131 94.5251 23.979 94.5272 23.917C94.5344 23.7289 94.5355 23.5397 94.5272 23.3505C94.5254 23.3203 94.5123 23.2919 94.4906 23.2707C94.4689 23.2495 94.44 23.237 94.4096 23.2358C94.3148 23.2265 94.2191 23.2265 94.1244 23.2265H92.4406C92.3096 23.2332 92.1783 23.2196 92.0514 23.1862C91.8896 23.1411 91.7458 23.0473 91.6397 22.9178C91.5337 22.7882 91.4707 22.6292 91.4593 22.4626C91.4463 22.2495 91.4463 22.0359 91.4593 21.8228C91.4684 21.6131 91.5584 21.4149 91.7107 21.2694C91.8631 21.1239 92.0659 21.0422 92.2772 21.0413C92.5634 21.031 92.8496 21.0413 93.1368 21.0413C93.5531 21.0413 93.9694 21.0341 94.3856 21.0413C94.6034 21.0374 94.8142 21.1184 94.9725 21.267C95.1309 21.4156 95.2243 21.62 95.2327 21.8362C95.2421 21.9675 95.2077 22.0088 95.0766 22.013C94.9455 22.0171 94.8383 22.013 94.7186 22.013C94.599 22.013 94.5334 21.9933 94.5282 21.8631C94.5282 21.7794 94.4585 21.7453 94.3804 21.737C94.3565 21.7354 94.3325 21.7354 94.3086 21.737H92.3751C92.3401 21.7378 92.3053 21.7416 92.271 21.7484C92.2409 21.7516 92.2131 21.7658 92.1927 21.788C92.1724 21.8103 92.161 21.8392 92.1607 21.8693C92.1607 22.0471 92.1534 22.2249 92.1607 22.4016C92.1612 22.4197 92.1654 22.4374 92.1729 22.4538C92.1805 22.4701 92.1913 22.4848 92.2047 22.497C92.2181 22.5091 92.2338 22.5185 92.2509 22.5245C92.2681 22.5305 92.2862 22.533 92.3043 22.5319H94.3461C94.5382 22.5254 94.7274 22.5808 94.8851 22.69C94.9841 22.7573 95.0665 22.8461 95.126 22.9495C95.1855 23.053 95.2205 23.1686 95.2286 23.2875C95.2457 23.5122 95.2457 23.7378 95.2286 23.9625C95.215 24.1717 95.121 24.3677 94.9661 24.5101C94.8111 24.6524 94.6071 24.7302 94.396 24.7274C94.0391 24.7367 93.6801 24.7274 93.3221 24.7274L93.3262 24.7139ZM48.8515 24.715H47.8484C47.6924 24.7184 47.5387 24.6779 47.405 24.5982C47.2787 24.5295 47.1737 24.4278 47.1014 24.3041C47.0291 24.1804 46.9923 24.0393 46.995 23.8963C46.995 23.7795 47.0231 23.7433 47.1345 23.7402C47.2458 23.7371 47.3738 23.7402 47.4925 23.7402C47.6111 23.7402 47.6766 23.7671 47.6933 23.886C47.7079 23.9893 47.7776 24.0183 47.8723 24.0183H49.8787C50.0254 24.0183 50.0702 23.9707 50.0754 23.824C50.0806 23.6772 50.0754 23.5139 50.0754 23.3619C50.0743 23.3257 50.0592 23.2913 50.0332 23.2659C50.0072 23.2405 49.9724 23.226 49.9359 23.2255C49.8412 23.2182 49.7455 23.2182 49.6497 23.2172H47.9649C47.8339 23.2241 47.7027 23.2091 47.5767 23.1728C47.4153 23.1255 47.273 23.029 47.1699 22.8969C47.0667 22.7648 47.0081 22.6038 47.0023 22.4368C46.9929 22.2238 46.9919 22.0099 47.0023 21.7969C47.013 21.6057 47.0913 21.4243 47.2234 21.2847C47.3555 21.1452 47.533 21.0564 47.7245 21.0341C47.7958 21.0277 47.8674 21.026 47.9389 21.0289H49.8381C49.98 21.022 50.1217 21.0445 50.2544 21.0951C50.3711 21.1418 50.4752 21.2151 50.5583 21.309C50.6414 21.4028 50.7013 21.5147 50.7331 21.6357C50.8184 21.953 50.7768 22.0037 50.4427 22.0047H50.2637C50.1597 22.0047 50.0795 21.9933 50.0681 21.861C50.0598 21.7639 49.9807 21.7277 49.887 21.7267H47.9514C47.7162 21.7267 47.6881 21.7577 47.6839 21.9954C47.6801 22.1257 47.6836 22.2562 47.6943 22.3861C47.6957 22.4222 47.7111 22.4564 47.7373 22.4815C47.7635 22.5065 47.7984 22.5205 47.8348 22.5205H49.9848C50.1777 22.5291 50.361 22.6061 50.5016 22.7376C50.6421 22.869 50.7305 23.0462 50.7508 23.2368C50.7724 23.4612 50.7759 23.6869 50.7612 23.9118C50.7601 24.0189 50.7376 24.1246 50.6951 24.223C50.6525 24.3213 50.5907 24.4103 50.5133 24.4847C50.4358 24.5591 50.3442 24.6175 50.2439 24.6565C50.1435 24.6955 50.0364 24.7143 49.9286 24.7119C49.5686 24.7222 49.2095 24.715 48.8515 24.715ZM34.094 22.8823V21.2109C34.094 21.0382 34.1064 21.0269 34.2729 21.0258H36.961C37.5229 21.031 37.8643 21.3514 37.8705 21.9013C37.8799 22.7789 37.8705 23.6586 37.8705 24.5331C37.8705 24.6995 37.8539 24.717 37.6822 24.715C37.0921 24.7057 37.1806 24.808 37.1764 24.2467V22.0419C37.1764 21.7318 37.1649 21.7225 36.8538 21.7205H35.0982C35.0384 21.7199 34.9786 21.723 34.9192 21.7298C34.8892 21.7314 34.8608 21.7439 34.8394 21.7648C34.8179 21.7857 34.8049 21.8137 34.8026 21.8435C34.7933 21.9375 34.7912 22.0326 34.7912 22.1267V24.3677C34.7912 24.4504 34.7912 24.5341 34.785 24.6168C34.785 24.6407 34.7756 24.6636 34.7589 24.6808C34.7422 24.6979 34.7195 24.708 34.6955 24.7088C34.6481 24.7143 34.6005 24.7167 34.5529 24.716C34.0211 24.7067 34.0992 24.7946 34.095 24.2705C34.0919 23.8074 34.094 23.3454 34.094 22.8823ZM86.3757 24.6891C86.342 24.7009 86.3071 24.7088 86.2716 24.7129C86.0947 24.7046 85.9167 24.7429 85.7419 24.6891C85.6545 24.5217 85.7055 24.3418 85.7034 24.1723C85.6961 23.5087 85.7034 22.8451 85.7034 22.1825V22.0047C85.6951 21.7525 85.6701 21.7246 85.4089 21.7236H83.5825C83.3473 21.7236 83.3068 21.7628 83.3036 21.9851V24.5082C83.3036 24.715 83.3036 24.715 83.0768 24.715H82.9727C82.6053 24.715 82.6262 24.7646 82.6262 24.3739V21.1437C82.6262 21.0723 82.6584 21.0331 82.7302 21.031H85.4516C85.5932 21.023 85.735 21.0444 85.8678 21.0941C86.0082 21.1469 86.1305 21.2381 86.2208 21.3572C86.311 21.4763 86.3655 21.6184 86.3777 21.767C86.3826 21.8261 86.3844 21.8854 86.3829 21.9448V24.5031C86.3861 24.5548 86.3798 24.6126 86.3757 24.6891ZM46.4279 22.5515V23.8312C46.4216 24.3801 46.0907 24.7088 45.5318 24.7139C44.8627 24.7139 44.1946 24.7201 43.5265 24.7139C43.0062 24.7088 42.6773 24.3852 42.6503 23.8767V21.1767C42.6503 21.0537 42.6784 21.0248 42.796 21.0279C43.4547 21.0413 43.3371 20.9049 43.3444 21.5551C43.3517 22.2311 43.3444 22.9061 43.3444 23.5811V23.8653C43.3444 23.9594 43.4027 24.0059 43.5088 24.0142H45.5818C45.6182 24.0131 45.6528 23.9979 45.6781 23.9718C45.7034 23.9457 45.7174 23.9108 45.7171 23.8746C45.7244 23.7805 45.7171 23.6854 45.7171 23.5914V21.1364C45.7161 21.1223 45.718 21.108 45.7228 21.0946C45.7276 21.0813 45.7351 21.069 45.7449 21.0586C45.7546 21.0482 45.7664 21.04 45.7796 21.0343C45.7927 21.0287 45.8068 21.0258 45.8211 21.0258C46.5246 21.0413 46.3914 20.8915 46.4039 21.5551C46.4351 21.8879 46.4279 22.2197 46.4279 22.5515ZM73.1718 22.5474V23.8271C73.1666 24.378 72.8367 24.7088 72.2789 24.7139C71.6108 24.7139 70.9427 24.7201 70.2735 24.7139C69.7386 24.7088 69.4015 24.379 69.3952 23.8457C69.3858 22.9691 69.3952 22.0884 69.3952 21.215V21.1447C69.3952 21.0775 69.4306 21.03 69.4993 21.0289H69.9998C70.0571 21.0289 70.081 21.0713 70.0831 21.123V23.61C70.0831 23.7041 70.0831 23.7992 70.0935 23.8932C70.0973 23.9228 70.1112 23.9503 70.1327 23.9711C70.1542 23.9919 70.1822 24.0049 70.2121 24.008C70.2466 24.0126 70.2814 24.0143 70.3162 24.0131H72.2498C72.4246 24.0131 72.4579 23.9769 72.4641 23.8064V21.1767C72.4641 21.0537 72.4901 21.0289 72.6077 21.0258H73.0375C73.1312 21.0258 73.1582 21.0816 73.1582 21.1633V22.5484L73.1718 22.5474ZM51.4241 19.8433C51.4474 19.8344 51.4714 19.8275 51.4959 19.8226C51.6844 19.8033 51.8746 19.8078 52.062 19.8361C52.1546 20.0149 52.0901 20.2061 52.1026 20.3901C52.1151 20.5741 52.1026 20.7457 52.1026 20.9235C52.1016 20.9353 52.103 20.9471 52.1068 20.9583C52.1107 20.9695 52.1168 20.9798 52.1248 20.9885C52.1328 20.9973 52.1425 21.0042 52.1534 21.0091C52.1643 21.0139 52.176 21.0164 52.1879 21.0165C52.2826 21.0227 52.3783 21.0238 52.4741 21.0238H53.5876C53.6604 21.2181 53.623 21.4083 53.6251 21.5943C53.6251 21.6791 53.572 21.7174 53.4867 21.7174H52.2327C52.2149 21.7152 52.1969 21.717 52.18 21.7228C52.1631 21.7286 52.1477 21.7381 52.1351 21.7507C52.1224 21.7632 52.1129 21.7785 52.107 21.7953C52.1012 21.8121 52.0993 21.83 52.1015 21.8476V23.8054C52.1015 23.9687 52.1525 24.0121 52.319 24.0121H53.4294C53.6188 24.0121 53.6219 24.0183 53.6282 24.2188V24.255C53.6209 24.7894 53.6927 24.7036 53.1776 24.7098H52.2462C52.0418 24.7122 51.8439 24.6384 51.6915 24.5031C51.6133 24.4383 51.5491 24.3585 51.5028 24.2684C51.4565 24.1784 51.429 24.0799 51.422 23.979V19.8433H51.4241ZM68.9758 24.0162V24.5909C68.9758 24.6767 68.9248 24.715 68.8385 24.715C68.4087 24.715 67.9789 24.7295 67.5501 24.715C67.3444 24.71 67.1484 24.6264 67.0031 24.4817C66.8577 24.3369 66.7741 24.1421 66.7696 23.9377V20.1338C66.757 20.0395 66.7648 19.9436 66.7925 19.8526C66.8654 19.7968 66.9518 19.8206 67.0319 19.8216C67.5116 19.8278 67.4482 19.7441 67.4482 20.2299V20.8697C67.4482 21.0124 67.4638 21.0279 67.6178 21.0289H68.8C68.9509 21.0289 68.9748 21.0486 68.9737 21.185C68.9675 21.8331 69.0653 21.7111 68.4628 21.7225H67.6032C67.4773 21.7225 67.4482 21.7504 67.4482 21.8641V23.7836C67.4486 23.8306 67.456 23.8773 67.47 23.9222C67.4761 23.9457 67.4894 23.9667 67.508 23.9825C67.5266 23.9982 67.5497 24.0078 67.5741 24.01C67.6573 24.0183 67.7416 24.0173 67.8249 24.0183L68.9758 24.0162Z" fill="#040303"/>
<path id="Vector_2" d="M54.0384 23.1809C54.0384 22.7416 54.0311 22.3034 54.0384 21.8651C54.0342 21.6793 54.0937 21.4975 54.2071 21.3497C54.3206 21.2019 54.4813 21.0968 54.6628 21.0516C54.7308 21.0342 54.8007 21.0252 54.8709 21.0247H56.7691C56.9345 21.0247 56.9522 21.0413 56.9502 21.2108C56.9418 21.802 57.0438 21.7152 56.4465 21.7214H54.9823C54.7741 21.7286 54.7492 21.7555 54.7419 21.9436V24.6105C54.742 24.6253 54.7389 24.6399 54.7329 24.6534C54.7268 24.6669 54.7179 24.679 54.7068 24.6888C54.6956 24.6986 54.6825 24.7059 54.6683 24.7102C54.654 24.7145 54.639 24.7158 54.6243 24.7139C53.9354 24.7015 54.054 24.8358 54.0436 24.1753V23.1799L54.0384 23.1809ZM73.8276 23.1778C73.8276 22.7396 73.8203 22.3003 73.8276 21.862C73.8237 21.6765 73.8833 21.4951 73.9968 21.3477C74.1102 21.2003 74.2707 21.0955 74.452 21.0506C74.52 21.0335 74.5899 21.0245 74.6601 21.0237H76.5593C76.7237 21.0237 76.7393 21.0392 76.7373 21.2128C76.73 21.802 76.8299 21.7142 76.2305 21.7204H74.6892C74.5852 21.7276 74.5342 21.771 74.5269 21.8713C74.5196 21.9715 74.5269 22.0604 74.5269 22.1555V24.6105C74.5283 24.6343 74.5203 24.6577 74.5045 24.6757C74.4888 24.6937 74.4665 24.7048 74.4426 24.7066C74.4309 24.7082 74.419 24.7082 74.4072 24.7066C73.7214 24.6942 73.8401 24.8276 73.8297 24.165V23.1696L73.8276 23.1778Z" fill="#0E0D0D"/>
<path id="Vector_3" d="M62.9815 21.9272V20.0077C62.9815 19.8216 62.9878 19.8113 63.1532 19.8175C63.3187 19.8237 63.4821 19.7751 63.6392 19.8526C63.6688 20.0034 63.6762 20.1577 63.6611 20.3106V23.6183C63.6611 24.0162 63.6611 24.0142 64.0503 24.0183C64.582 24.0256 64.4957 23.9377 64.504 24.4659C64.5075 24.5247 64.5037 24.5837 64.4926 24.6416C64.4875 24.6574 64.4787 24.6717 64.467 24.6834C64.4552 24.6951 64.4408 24.7038 64.4249 24.7088C64.1512 24.715 63.8744 24.7512 63.6049 24.6881C63.4218 24.6492 63.2586 24.547 63.1443 24.3997C63.0299 24.2525 62.9719 24.0697 62.9805 23.8839C62.9711 23.2307 62.9815 22.5784 62.9815 21.9272Z" fill="#040303"/>
<path id="Vector_4" d="M32.7516 24.715C32.7032 24.6512 32.6823 24.5709 32.6933 24.4918V20.2672C32.6933 20.2 32.7235 20.1493 32.7974 20.1483C32.984 20.1309 33.172 20.1365 33.3572 20.1648C33.389 20.246 33.399 20.334 33.3864 20.4202V24.6127C33.3864 24.6271 33.3835 24.6413 33.3776 24.6545C33.3718 24.6677 33.3633 24.6796 33.3526 24.6893C33.342 24.699 33.3294 24.7064 33.3156 24.711C33.3019 24.7157 33.2874 24.7174 33.2729 24.7161L32.7516 24.715ZM81.417 21.0218H81.9467C82.0403 21.0218 82.0695 21.0734 82.0695 21.1561V24.56C82.0632 24.7006 82.0497 24.714 81.8978 24.7171H81.5398C81.4024 24.7171 81.3837 24.6923 81.3774 24.5455V21.3897C81.3617 21.2657 81.3752 21.1397 81.417 21.0218Z" fill="#0E0D0D"/>
<path id="Vector_5" d="M57.3116 22.846V21.2118C57.3116 21.0288 57.3116 21.0237 57.4854 21.0237C57.6592 21.0237 57.7976 21.033 57.9485 21.0381C58.0369 21.1922 57.988 21.3607 57.9891 21.5209V24.6115C57.9891 24.6261 57.9861 24.6406 57.9802 24.6539C57.9743 24.6672 57.9656 24.6792 57.9546 24.689C57.9437 24.6987 57.9309 24.7061 57.9169 24.7105C57.9029 24.715 57.8881 24.7165 57.8735 24.7149H57.6227C57.3105 24.7149 57.3105 24.7531 57.3105 24.4048C57.3126 23.888 57.3116 23.367 57.3116 22.846Z" fill="#040303"/>
<path id="Vector_6" d="M82.0691 20.1916C82.0691 20.542 82.0795 20.512 81.7371 20.511C81.3646 20.511 81.3739 20.5596 81.376 20.1451V19.9383C81.376 19.8505 81.4301 19.8174 81.5144 19.8184H81.9421C82.0327 19.8184 82.067 19.866 82.066 19.9497L82.0691 20.1916ZM57.6209 20.511C57.3149 20.511 57.3087 20.543 57.3087 20.2071C57.3149 19.7533 57.2504 19.8194 57.701 19.8132H57.879C57.8932 19.8122 57.9076 19.8142 57.921 19.8189C57.9345 19.8237 57.9469 19.8311 57.9573 19.8408C57.9678 19.8505 57.9761 19.8623 57.9818 19.8753C57.9874 19.8883 57.9904 19.9024 57.9903 19.9166V20.1233C57.9934 20.5689 58.0267 20.5058 57.6209 20.511Z" fill="#0E0D0D"/>
</g>
<defs>
<clipPath id="clip0_610_4252">
<rect width="130" height="25.0151" fill="white" transform="translate(0 0.492432)"/>
</clipPath>
</defs>
</svg>
