<svg width="20" height="20" viewBox="0 0 20 20" fill="none" xmlns="http://www.w3.org/2000/svg">
  <path d="M17.5 8.33337C17.5 14.1667 10 19.1667 10 19.1667C10 19.1667 2.5 14.1667 2.5 8.33337C2.5 6.3435 3.29018 4.43523 4.6967 3.0287C6.10322 1.62218 8.01088 0.832031 10 0.832031C11.9891 0.832031 13.8968 1.62218 15.3033 3.0287C16.7098 4.43523 17.5 6.3435 17.5 8.33337Z" stroke="currentColor" stroke-width="1.5" stroke-linecap="round" stroke-linejoin="round"/>
  <path d="M10 10.8334C11.3807 10.8334 12.5 9.71408 12.5 8.33337C12.5 6.95266 11.3807 5.83337 10 5.83337C8.61929 5.83337 7.5 6.95266 7.5 8.33337C7.5 9.71408 8.61929 10.8334 10 10.8334Z" stroke="currentColor" stroke-width="1.5" stroke-linecap="round" stroke-linejoin="round"/>
</svg>

