<?xml version="1.0" encoding="UTF-8"?>
<svg id="Layer_2" data-name="Layer 2" xmlns="http://www.w3.org/2000/svg" viewBox="0 0 113.92 42.66">
  <defs>
    <style>
      .cls-1 {
        fill: #b9bfc1;
      }

      .cls-2 {
        stroke: #f4fbfd;
        stroke-linecap: round;
        stroke-linejoin: round;
      }

      .cls-2, .cls-3 {
        fill: #f4fbfd;
      }
    </style>
  </defs>
  <g id="Layer_1-2" data-name="Layer 1">
    <g>
      <g>
        <path class="cls-2" d="m47.68,20.17V6.16h6.84c2.66,0,4.5,1.62,4.5,3.96,0,1.72-1.22,3.14-3.08,3.62.92.18,1.58.74,1.92,1.6l1.8,4.82h-2.56l-1.62-4.42c-.2-.56-.66-.86-1.3-.86h-4.1v5.28h-2.4Zm2.4-7.4h4.32c1.48,0,2.24-1.06,2.24-2.28,0-1.28-.88-2.16-2.24-2.16h-4.32v4.44Z"/>
        <path class="cls-2" d="m61.46,15.5V6.16h2.4v9.28c0,1.8,1.46,2.82,3.42,2.82s3.44-1.02,3.44-2.82V6.16h2.4v9.34c0,2.8-2.18,4.96-5.82,4.96s-5.84-2.12-5.84-4.96Z"/>
        <path class="cls-2" d="m75.32,15.84h2.46c.22,1.52,1.62,2.48,3.86,2.48,1.82,0,2.78-.7,2.78-1.88,0-1.1-.86-1.54-2.22-1.96l-2.28-.68c-1.64-.5-4.2-1.22-4.2-3.96,0-2.3,1.9-3.98,5-3.98,3.38,0,5.54,1.82,5.72,4.78h-2.44c-.1-1.58-1.26-2.64-3.36-2.64-1.54,0-2.54.64-2.54,1.72,0,1.22,1.22,1.52,2.58,1.96l2.12.66c1.98.62,4.06,1.34,4.06,3.98s-2.02,4.14-5.22,4.14c-3.68,0-6.14-1.84-6.32-4.62Z"/>
        <path class="cls-2" d="m51.48,38.17v-11.84h-4.68v-2.16h11.74v2.16h-4.66v11.84h-2.4Z"/>
        <path class="cls-2" d="m60.58,38.17v-14h6.84c2.66,0,4.5,1.62,4.5,3.96,0,1.72-1.22,3.14-3.08,3.62.92.18,1.58.74,1.92,1.6l1.8,4.82h-2.56l-1.62-4.42c-.2-.56-.66-.86-1.3-.86h-4.1v5.28h-2.4Zm2.4-7.4h4.32c1.48,0,2.24-1.06,2.24-2.28,0-1.28-.88-2.16-2.24-2.16h-4.32v4.44Z"/>
        <path class="cls-2" d="m73.38,38.17l5.72-14h2.4l5.74,14h-2.48l-1.42-3.46h-6.06l-1.42,3.46h-2.48Zm4.76-5.58h4.34l-2.16-5.32-2.18,5.32Z"/>
        <path class="cls-2" d="m89.06,38.17v-14h5.04c4.16,0,7.06,2.84,7.06,6.92s-2.9,7.08-7.06,7.08h-5.04Zm2.4-2.16h2.8c2.6,0,4.42-2.02,4.42-4.92,0-2.74-1.82-4.76-4.42-4.76h-2.8v9.68Z"/>
        <path class="cls-2" d="m103.44,38.17v-14h9.8v2.16h-7.42v3.6h6.72v2.1h-6.72v3.98h7.6v2.16h-9.98Z"/>
      </g>
      <g>
        <g>
          <path class="cls-3" d="m38.44,12.45c-1.2,1.41-2.45,2.79-3.73,4.12-.39.41-.76.84-1.13,1.27-.64-2.42-1.93-4.58-3.68-6.28.29-.93.6-1.87.91-2.8.58-1.76.98-3.57,1.69-5.28.11-.27.19-.36.52-.17,1.63.93,2.94,2.26,4.19,3.62.75.83,1.56,1.69,1.85,2.86.26,1.02.02,1.91-.62,2.66Z"/>
          <path class="cls-3" d="m27.68,9.83c-2.09-1.32-4.57-2.07-7.22-2.07h-.17c-.32-.63-.63-1.26-.95-1.89-.83-1.66-1.82-3.22-2.53-4.93-.11-.27-.12-.39.25-.49C18.88-.05,20.74-.04,22.58.04c1.12.05,2.29.09,3.33.71.9.53,1.36,1.34,1.44,2.32.14,1.85.23,3.7.27,5.56.01.4.03.8.06,1.2Z"/>
          <path class="cls-3" d="m17.19,8.16c-2.59.63-4.88,2.02-6.65,3.9-.6-.19-1.2-.4-1.8-.59-1.75-.58-3.56-.99-5.27-1.7-.26-.11-.36-.19-.17-.52.94-1.64,2.26-2.95,3.62-4.2.82-.76,1.68-1.56,2.85-1.87,1.01-.25,1.91-.01,2.65.63,1.41,1.21,2.78,2.46,4.11,3.74.22.21.44.41.66.61Z"/>
          <path class="cls-3" d="m6.89,21.33c0,.37.02.73.05,1.09-.37.18-.73.37-1.09.55-1.65.83-3.21,1.83-4.92,2.54-.26.1-.38.11-.49-.25-.49-1.82-.47-3.69-.4-5.54.05-1.11.09-2.29.71-3.33.53-.9,1.34-1.37,2.31-1.44,1.85-.15,3.7-.24,5.54-.27h.03c-1.11,1.96-1.74,4.23-1.74,6.65Z"/>
          <path class="cls-3" d="m11.99,31.93c-.19.55-.37,1.11-.55,1.66-.58,1.76-.98,3.57-1.69,5.29-.11.26-.19.35-.52.16-1.63-.93-2.94-2.26-4.19-3.62-.76-.83-1.56-1.68-1.86-2.86-.26-1.01-.01-1.91.62-2.66,1.21-1.41,2.45-2.78,3.74-4.12.02-.02.05-.05.07-.08.84,2.47,2.38,4.63,4.38,6.23Z"/>
          <path class="cls-3" d="m25.48,42.21c-1.81.5-3.68.48-5.51.41-1.12-.05-2.3-.09-3.34-.71-.89-.54-1.35-1.34-1.43-2.32-.14-1.85-.23-3.7-.27-5.56,0-.1,0-.21-.01-.31,1.69.76,3.57,1.18,5.54,1.18.59,0,1.17-.04,1.73-.11.34.67.68,1.33,1.01,2,.83,1.65,1.83,3.22,2.53,4.93.11.27.12.39-.25.49Z"/>
          <path class="cls-3" d="m39.11,32.85c-.94,1.64-2.26,2.95-3.62,4.2-.82.76-1.68,1.56-2.85,1.86-1.01.26-1.9.02-2.65-.62-1.4-1.21-2.77-2.46-4.11-3.74-.19-.19-.38-.36-.58-.54,2.29-.87,4.28-2.34,5.78-4.23.87.28,1.73.56,2.59.85,1.75.59,3.56.99,5.27,1.7.26.11.36.19.17.52Z"/>
        </g>
        <g>
          <path class="cls-1" d="m14.17,24.95c-.06.59-.43,1.38-.68,2.2-.48,1.6-.99,3.19-1.5,4.78-2-1.6-3.54-3.76-4.38-6.23.83-.89,1.55-1.87,2.44-2.71.74-.71,1.71-.95,2.57-.59.99.42,1.55,1.24,1.54,2.56h.01Z"/>
          <path class="cls-1" d="m13.88,18.79c-.46.38-1.27.68-2.03,1.08-1.62.87-3.26,1.72-4.91,2.55-.03-.36-.05-.72-.05-1.09,0-2.42.63-4.69,1.74-6.65,1.25-.03,2.47-.23,3.72-.19,1.02.02,1.88.53,2.23,1.41.41.99.22,1.96-.7,2.89Z"/>
          <path class="cls-1" d="m19.9,12.65c-.41.99-1.23,1.55-2.54,1.55-.59-.05-1.38-.43-2.19-.67-1.55-.47-3.09-.97-4.63-1.47,1.77-1.88,4.06-3.27,6.65-3.9.72.63,1.47,1.22,2.12,1.91.72.75.95,1.71.59,2.58Z"/>
          <path class="cls-1" d="m22.19,34.79c-.56.07-1.14.11-1.73.11-1.97,0-3.85-.42-5.54-1.18-.04-1.15-.21-2.29-.18-3.44.03-1.03.54-1.89,1.41-2.24.98-.41,1.96-.22,2.88.7.38.46.68,1.28,1.08,2.03.71,1.33,1.4,2.68,2.08,4.02Z"/>
          <path class="cls-1" d="m27.81,12.38c-.03,1.03-.54,1.89-1.41,2.24-.99.41-1.96.22-2.89-.71-.37-.45-.68-1.27-1.08-2.03-.72-1.36-1.44-2.74-2.14-4.12h.17c2.65,0,5.13.75,7.22,2.07.06.85.15,1.7.13,2.55Z"/>
          <path class="cls-1" d="m31.08,29.78c-1.5,1.89-3.49,3.36-5.78,4.23-.74-.65-1.52-1.26-2.2-1.98-.71-.75-.95-1.72-.58-2.59.4-.98,1.22-1.54,2.53-1.54.59.05,1.38.42,2.2.67,1.28.39,2.56.8,3.83,1.21Z"/>
          <path class="cls-1" d="m33.58,17.84c-.44.53-.88,1.05-1.38,1.52-.75.71-1.71.95-2.58.59-.98-.41-1.54-1.24-1.54-2.55.06-.59.42-1.38.67-2.19.37-1.22.75-2.44,1.15-3.65,1.75,1.7,3.04,3.86,3.68,6.28Z"/>
        </g>
      </g>
    </g>
  </g>
</svg>