<?xml version="1.0" encoding="UTF-8"?>
<svg xmlns="http://www.w3.org/2000/svg" xmlns:xlink="http://www.w3.org/1999/xlink" viewBox="0 0 115.24 42.61">
  <defs>
    <style>
      .cls-1 {
        fill: url(#linear-gradient-2);
      }

      .cls-2 {
        fill: url(#linear-gradient-6);
      }

      .cls-3 {
        fill: #5b5858;
      }

      .cls-4 {
        isolation: isolate;
      }

      .cls-5 {
        mix-blend-mode: soft-light;
      }

      .cls-6 {
        fill: url(#linear-gradient-5);
      }

      .cls-7 {
        fill: url(#linear-gradient-7);
      }

      .cls-8 {
        fill: url(#linear-gradient-3);
      }

      .cls-9 {
        fill: url(#linear-gradient);
      }

      .cls-10 {
        fill: url(#linear-gradient-4);
      }

      .cls-11 {
        fill: #003152;
        stroke: #003152;
        stroke-linecap: round;
        stroke-linejoin: round;
        stroke-width: .75px;
      }
    </style>
    <linearGradient id="linear-gradient" x1="28.69" y1="5.5" x2="35.59" y2="17.45" gradientUnits="userSpaceOnUse">
      <stop offset="0" stop-color="#005d9b"/>
      <stop offset=".22" stop-color="#004e83"/>
      <stop offset=".52" stop-color="#003e68"/>
      <stop offset=".79" stop-color="#003457"/>
      <stop offset="1" stop-color="#003152"/>
    </linearGradient>
    <linearGradient id="linear-gradient-2" x1="16.72" y1="7.4" x2="27.78" y2="7.4" xlink:href="#linear-gradient"/>
    <linearGradient id="linear-gradient-3" x1="3.2" y1="8.63" x2="20.04" y2="8.63" xlink:href="#linear-gradient"/>
    <linearGradient id="linear-gradient-4" x1="0" y1="20" x2="14.77" y2="20" xlink:href="#linear-gradient"/>
    <linearGradient id="linear-gradient-5" x1="3.07" y1="30.65" x2="14.15" y2="30.65" xlink:href="#linear-gradient"/>
    <linearGradient id="linear-gradient-6" x1="14.72" y1="35.2" x2="25.77" y2="35.2" xlink:href="#linear-gradient"/>
    <linearGradient id="linear-gradient-7" x1="22.32" y1="33.42" x2="39.16" y2="33.42" xlink:href="#linear-gradient"/>
  </defs>
  <g class="cls-4">
    <g id="Layer_2" data-name="Layer 2">
      <g id="Layer_1-2" data-name="Layer 1">
        <g>
          <g>
            <path class="cls-9" d="m38.39,12.44c-1.2,1.41-2.44,2.78-3.73,4.11-.39.41-.76.84-1.12,1.27-.44.53-.89,1.05-1.39,1.52-.74.71-1.71.95-2.57.59-.98-.41-1.54-1.24-1.54-2.55h0c.06-.59.43-1.37.67-2.19.37-1.21.75-2.43,1.14-3.64.3-.94.61-1.87.92-2.81.58-1.75.98-3.56,1.69-5.27.11-.26.19-.36.52-.17,1.63.94,2.93,2.26,4.18,3.62.75.82,1.56,1.68,1.85,2.86.26,1.01.02,1.91-.62,2.66Z"/>
            <path class="cls-1" d="m27.77,12.37c-.03,1.02-.54,1.88-1.41,2.24-.99.4-1.96.22-2.88-.71-.37-.45-.68-1.27-1.08-2.03-.73-1.36-1.44-2.74-2.14-4.12-.32-.63-.63-1.26-.95-1.88-.83-1.65-1.82-3.21-2.53-4.93-.11-.26-.12-.39.25-.49,1.82-.49,3.68-.49,5.51-.4,1.11.05,2.29.09,3.33.71.9.53,1.36,1.34,1.43,2.32.14,1.85.23,3.7.27,5.55,0,.4.03.8.06,1.2.06.85.15,1.7.13,2.55Z"/>
            <path class="cls-8" d="m19.88,12.64c-.41.99-1.23,1.54-2.54,1.54h0c-.59-.05-1.38-.42-2.19-.67-1.54-.47-3.08-.96-4.62-1.46-.6-.2-1.21-.4-1.81-.6-1.75-.58-3.55-.98-5.26-1.7-.26-.11-.36-.19-.17-.52.93-1.64,2.26-2.95,3.61-4.2.82-.76,1.68-1.56,2.85-1.86,1.01-.26,1.9-.01,2.65.62,1.41,1.21,2.78,2.45,4.11,3.74.22.21.43.4.66.6.72.63,1.47,1.22,2.12,1.92.71.74.95,1.71.59,2.58Z"/>
            <path class="cls-10" d="m13.86,18.77c-.46.38-1.27.68-2.02,1.08-1.62.87-3.26,1.71-4.91,2.55-.36.18-.72.37-1.08.55-1.64.83-3.21,1.83-4.91,2.53-.26.11-.38.12-.49-.25-.49-1.82-.48-3.68-.4-5.53.05-1.11.09-2.29.7-3.34.53-.9,1.34-1.36,2.31-1.44,1.85-.14,3.69-.23,5.54-.27h.03c1.24-.03,2.47-.22,3.71-.19,1.02.03,1.88.54,2.23,1.41.4.99.22,1.96-.71,2.89Z"/>
            <path class="cls-6" d="m14.15,24.92c-.06.59-.43,1.38-.67,2.19-.48,1.6-.99,3.18-1.51,4.77-.18.56-.36,1.11-.55,1.67-.58,1.76-.98,3.57-1.69,5.28-.11.26-.19.36-.52.17-1.63-.93-2.94-2.26-4.19-3.62-.75-.83-1.56-1.68-1.85-2.86-.26-1.01-.01-1.91.62-2.66,1.2-1.41,2.44-2.78,3.73-4.11.03-.03.06-.06.08-.09.83-.89,1.55-1.86,2.44-2.7.74-.71,1.7-.95,2.57-.59.98.41,1.54,1.24,1.54,2.55h0Z"/>
            <path class="cls-2" d="m25.45,42.16c-1.81.49-3.68.48-5.51.4-1.11-.05-2.29-.09-3.33-.71-.9-.53-1.35-1.34-1.43-2.32-.14-1.85-.23-3.7-.27-5.56,0-.1,0-.21-.01-.31-.04-1.15-.21-2.29-.18-3.44.03-1.03.53-1.88,1.41-2.24.98-.4,1.96-.22,2.88.71.38.46.68,1.27,1.08,2.03.71,1.33,1.4,2.67,2.08,4.02.34.67.68,1.33,1.01,2,.83,1.65,1.82,3.21,2.53,4.93.11.26.12.39-.25.49Z"/>
            <path class="cls-7" d="m39.06,32.81c-.94,1.64-2.26,2.95-3.61,4.2-.82.76-1.68,1.56-2.85,1.86-1.01.26-1.9.01-2.65-.62-1.4-1.21-2.77-2.45-4.11-3.74-.19-.18-.38-.36-.58-.53-.74-.65-1.51-1.26-2.2-1.98-.71-.74-.95-1.71-.58-2.58.41-.99,1.23-1.54,2.54-1.54h0c.59.05,1.37.42,2.19.67,1.28.39,2.56.8,3.83,1.21.87.28,1.73.56,2.59.85,1.75.58,3.55.98,5.26,1.7.26.11.35.19.17.52Z"/>
            <g class="cls-5">
              <path class="cls-3" d="m14.14,24.93h0c-.06.59-.43,1.37-.67,2.19-.48,1.6-.99,3.18-1.51,4.77-2-1.6-3.53-3.75-4.37-6.22.83-.89,1.55-1.86,2.44-2.7.74-.71,1.7-.95,2.57-.59.98.41,1.54,1.24,1.54,2.55Z"/>
              <path class="cls-3" d="m11.84,19.85c-1.62.87-3.26,1.71-4.91,2.55-.03-.36-.04-.72-.04-1.09,0-2.41.63-4.68,1.74-6.64,1.24-.03,2.47-.22,3.71-.19,1.02.03,1.88.54,2.23,1.41.4.99.22,1.96-.71,2.89-.46.38-1.27.68-2.02,1.08Z"/>
              <path class="cls-3" d="m15.15,13.51c-1.54-.47-3.08-.96-4.62-1.46,1.76-1.88,4.05-3.27,6.64-3.9.72.63,1.47,1.22,2.12,1.92.71.74.95,1.71.59,2.58-.41.99-1.23,1.54-2.54,1.54h0c-.59-.05-1.38-.42-2.19-.67Z"/>
              <path class="cls-3" d="m20.09,30.73c.71,1.33,1.4,2.67,2.08,4.02-.56.07-1.14.11-1.73.11-1.98,0-3.85-.42-5.54-1.18-.04-1.15-.21-2.29-.18-3.44.03-1.03.53-1.88,1.41-2.24.98-.4,1.96-.22,2.88.71.38.46.68,1.27,1.08,2.03Z"/>
              <path class="cls-3" d="m22.41,11.87c-.73-1.36-1.44-2.74-2.14-4.12h.17c2.65,0,5.12.76,7.2,2.07.06.85.15,1.7.13,2.55-.03,1.02-.54,1.88-1.41,2.24-.99.4-1.96.22-2.88-.71-.37-.45-.68-1.27-1.08-2.03Z"/>
              <path class="cls-3" d="m27.21,28.54c1.28.39,2.56.8,3.83,1.21-1.5,1.88-3.49,3.36-5.78,4.23-.74-.65-1.51-1.26-2.2-1.98-.71-.74-.95-1.71-.58-2.58.41-.99,1.23-1.54,2.54-1.54h0c.59.05,1.37.42,2.19.67Z"/>
              <path class="cls-3" d="m33.54,17.82c-.44.53-.89,1.05-1.39,1.52-.74.71-1.71.95-2.57.59-.98-.41-1.54-1.24-1.54-2.55h0c.06-.59.43-1.37.67-2.19.37-1.21.75-2.43,1.14-3.64,1.75,1.69,3.05,3.85,3.69,6.27Z"/>
            </g>
          </g>
          <g>
            <path class="cls-11" d="m49.13,20.24V6.24h6.84c2.66,0,4.5,1.62,4.5,3.96,0,1.72-1.22,3.14-3.08,3.62.92.18,1.58.74,1.92,1.6l1.8,4.82h-2.56l-1.62-4.42c-.2-.56-.66-.86-1.3-.86h-4.1v5.28h-2.4Zm2.4-7.4h4.32c1.48,0,2.24-1.06,2.24-2.28,0-1.28-.88-2.16-2.24-2.16h-4.32v4.44Z"/>
            <path class="cls-11" d="m62.91,15.58V6.24h2.4v9.28c0,1.8,1.46,2.82,3.42,2.82s3.44-1.02,3.44-2.82V6.24h2.4v9.34c0,2.8-2.18,4.96-5.82,4.96s-5.84-2.12-5.84-4.96Z"/>
            <path class="cls-11" d="m76.77,15.92h2.46c.22,1.52,1.62,2.48,3.86,2.48,1.82,0,2.78-.7,2.78-1.88,0-1.1-.86-1.54-2.22-1.96l-2.28-.68c-1.64-.5-4.2-1.22-4.2-3.96,0-2.3,1.9-3.98,5-3.98,3.38,0,5.54,1.82,5.72,4.78h-2.44c-.1-1.58-1.26-2.64-3.36-2.64-1.54,0-2.54.64-2.54,1.72,0,1.22,1.22,1.52,2.58,1.96l2.12.66c1.98.62,4.06,1.34,4.06,3.98s-2.02,4.14-5.22,4.14c-3.68,0-6.14-1.84-6.32-4.62Z"/>
            <path class="cls-11" d="m52.93,38.24v-11.84h-4.68v-2.16h11.74v2.16h-4.66v11.84h-2.4Z"/>
            <path class="cls-11" d="m62.03,38.24v-14h6.84c2.66,0,4.5,1.62,4.5,3.96,0,1.72-1.22,3.14-3.08,3.62.92.18,1.58.74,1.92,1.6l1.8,4.82h-2.56l-1.62-4.42c-.2-.56-.66-.86-1.3-.86h-4.1v5.28h-2.4Zm2.4-7.4h4.32c1.48,0,2.24-1.06,2.24-2.28,0-1.28-.88-2.16-2.24-2.16h-4.32v4.44Z"/>
            <path class="cls-11" d="m74.83,38.24l5.72-14h2.4l5.74,14h-2.48l-1.42-3.46h-6.06l-1.42,3.46h-2.48Zm4.76-5.58h4.34l-2.16-5.32-2.18,5.32Z"/>
            <path class="cls-11" d="m90.51,38.24v-14h5.04c4.16,0,7.06,2.84,7.06,6.92s-2.9,7.08-7.06,7.08h-5.04Zm2.4-2.16h2.8c2.6,0,4.42-2.02,4.42-4.92,0-2.74-1.82-4.76-4.42-4.76h-2.8v9.68Z"/>
            <path class="cls-11" d="m104.89,38.24v-14h9.8v2.16h-7.42v3.6h6.72v2.1h-6.72v3.98h7.6v2.16h-9.98Z"/>
          </g>
        </g>
      </g>
    </g>
  </g>
</svg>