<svg width="18" height="18" viewBox="0 0 18 18" fill="none" xmlns="http://www.w3.org/2000/svg">
<path d="M13.2057 17.25C12.3369 17.25 11.4219 17.0428 10.4762 16.6437C9.55359 16.2523 8.62325 15.7151 7.71598 15.0628C6.8164 14.4028 5.94758 13.666 5.12488 12.8602C4.30988 12.0391 3.57176 11.1719 2.91822 10.2816C2.25699 9.3607 1.72647 8.43977 1.34972 7.54953C0.949907 6.59791 0.75 5.67698 0.75 4.80977C0.75 4.21116 0.857642 3.64326 1.06524 3.11372C1.28052 2.56884 1.62651 2.06233 2.09553 1.62488C2.68756 1.04163 3.36417 0.75 4.08691 0.75C4.38677 0.75 4.69431 0.81907 4.95573 0.94186C5.25559 1.08 5.50932 1.28721 5.69385 1.56349L7.47763 4.07302C7.6391 4.29558 7.76212 4.51046 7.84669 4.72535C7.94664 4.95558 8.00047 5.18581 8.00047 5.40837C8.00047 5.7 7.91589 5.98395 7.75443 6.25256C7.6391 6.45977 7.46226 6.68233 7.23928 6.90488L6.71645 7.44977C6.72414 7.47279 6.73183 7.48814 6.73952 7.50349C6.83178 7.66465 7.01631 7.94093 7.36999 8.35535C7.74674 8.78512 8.10042 9.17651 8.4541 9.53721C8.90774 9.98232 9.28448 10.3353 9.63816 10.627C10.0764 10.9953 10.3609 11.1795 10.5301 11.264L10.5147 11.3023L11.076 10.7498C11.3143 10.5119 11.545 10.3353 11.7679 10.2202C12.1908 9.9593 12.729 9.91325 13.2672 10.1358C13.4671 10.2202 13.6824 10.3353 13.9131 10.4965L16.4658 12.3077C16.7502 12.4995 16.9578 12.7451 17.0808 13.0367C17.1962 13.3284 17.25 13.597 17.25 13.8656C17.25 14.234 17.1654 14.6023 17.004 14.9477C16.8425 15.293 16.6426 15.5923 16.3889 15.8686C15.9506 16.3521 15.4739 16.6974 14.9203 16.92C14.3898 17.1349 13.8131 17.25 13.2057 17.25ZM4.08691 1.90116C3.66403 1.90116 3.2719 2.08535 2.89515 2.45372C2.54147 2.78372 2.29543 3.14442 2.14166 3.53581C1.9802 3.93488 1.90331 4.35698 1.90331 4.80977C1.90331 5.52349 2.07246 6.2986 2.41076 7.09674C2.75676 7.91023 3.24115 8.75442 3.85624 9.5986C4.47134 10.4428 5.17102 11.264 5.93989 12.0391C6.70876 12.7988 7.53914 13.5049 8.39259 14.1265C9.22297 14.7328 10.0764 15.224 10.9222 15.577C12.237 16.1372 13.4672 16.2677 14.4821 15.8456C14.8742 15.6844 15.2202 15.4388 15.5354 15.0858C15.7123 14.894 15.8507 14.6867 15.966 14.4412C16.0582 14.2493 16.1044 14.0498 16.1044 13.8502C16.1044 13.7274 16.0813 13.6046 16.0198 13.4665C15.9967 13.4205 15.9506 13.336 15.8045 13.2363L13.2519 11.4251C13.0981 11.3177 12.9597 11.2409 12.829 11.1872C12.6598 11.1181 12.5906 11.0491 12.3292 11.2102C12.1754 11.287 12.037 11.4021 11.8833 11.5556L11.2989 12.1312C10.9991 12.4228 10.5377 12.4919 10.1841 12.3614L9.97647 12.2693C9.66123 12.1005 9.29217 11.8395 8.88467 11.4942C8.51561 11.1795 8.1158 10.8112 7.63141 10.3353C7.25466 9.95163 6.87791 9.54488 6.48579 9.09209C6.12442 8.67 5.863 8.3093 5.70154 8.01L5.60927 7.77977C5.56314 7.60326 5.54776 7.50349 5.54776 7.39605C5.54776 7.11977 5.64772 6.87419 5.83994 6.68233L6.41659 6.08372C6.57036 5.93023 6.68569 5.78442 6.76258 5.65395C6.82409 5.55419 6.84716 5.46977 6.84716 5.39302C6.84716 5.33163 6.82409 5.23953 6.78565 5.14744C6.73183 5.02465 6.64725 4.88651 6.53961 4.7407L4.75583 2.22349C4.67894 2.11605 4.58667 2.0393 4.47134 1.98558C4.34832 1.93186 4.21761 1.90116 4.08691 1.90116ZM10.5147 11.31L10.3917 11.8319L10.5993 11.2947C10.5608 11.287 10.5301 11.2947 10.5147 11.31Z" fill="white"/>
</svg>
