<svg width="18" height="19" viewBox="0 0 18 19" fill="none" xmlns="http://www.w3.org/2000/svg">
<path d="M13.2057 17.75C12.3369 17.75 11.4219 17.5428 10.4762 17.1437C9.55359 16.7523 8.62325 16.2151 7.71598 15.5628C6.8164 14.9028 5.94758 14.166 5.12488 13.3602C4.30988 12.5391 3.57176 11.6719 2.91822 10.7816C2.25699 9.8607 1.72647 8.93977 1.34972 8.04953C0.949907 7.09791 0.75 6.17698 0.75 5.30977C0.75 4.71116 0.857642 4.14326 1.06524 3.61372C1.28052 3.06884 1.62651 2.56233 2.09553 2.12488C2.68756 1.54163 3.36417 1.25 4.08691 1.25C4.38677 1.25 4.69431 1.31907 4.95573 1.44186C5.25559 1.58 5.50932 1.78721 5.69385 2.06349L7.47763 4.57302C7.6391 4.79558 7.76212 5.01046 7.84669 5.22535C7.94664 5.45558 8.00047 5.68581 8.00047 5.90837C8.00047 6.2 7.91589 6.48395 7.75443 6.75256C7.6391 6.95977 7.46226 7.18233 7.23928 7.40488L6.71645 7.94977C6.72414 7.97279 6.73183 7.98814 6.73952 8.00349C6.83178 8.16465 7.01631 8.44093 7.36999 8.85535C7.74674 9.28512 8.10042 9.67651 8.4541 10.0372C8.90774 10.4823 9.28448 10.8353 9.63816 11.127C10.0764 11.4953 10.3609 11.6795 10.5301 11.764L10.5147 11.8023L11.076 11.2498C11.3143 11.0119 11.545 10.8353 11.7679 10.7202C12.1908 10.4593 12.729 10.4133 13.2672 10.6358C13.4671 10.7202 13.6824 10.8353 13.9131 10.9965L16.4658 12.8077C16.7502 12.9995 16.9578 13.2451 17.0808 13.5367C17.1962 13.8284 17.25 14.097 17.25 14.3656C17.25 14.734 17.1654 15.1023 17.004 15.4477C16.8425 15.793 16.6426 16.0923 16.3889 16.3686C15.9506 16.8521 15.4739 17.1974 14.9203 17.42C14.3898 17.6349 13.8131 17.75 13.2057 17.75ZM4.08691 2.40116C3.66403 2.40116 3.2719 2.58535 2.89515 2.95372C2.54147 3.28372 2.29543 3.64442 2.14166 4.03581C1.9802 4.43488 1.90331 4.85698 1.90331 5.30977C1.90331 6.02349 2.07246 6.7986 2.41076 7.59674C2.75676 8.41023 3.24115 9.25442 3.85624 10.0986C4.47134 10.9428 5.17102 11.764 5.93989 12.5391C6.70876 13.2988 7.53914 14.0049 8.39259 14.6265C9.22297 15.2328 10.0764 15.724 10.9222 16.077C12.237 16.6372 13.4672 16.7677 14.4821 16.3456C14.8742 16.1844 15.2202 15.9388 15.5354 15.5858C15.7123 15.394 15.8507 15.1867 15.966 14.9412C16.0582 14.7493 16.1044 14.5498 16.1044 14.3502C16.1044 14.2274 16.0813 14.1046 16.0198 13.9665C15.9967 13.9205 15.9506 13.836 15.8045 13.7363L13.2519 11.9251C13.0981 11.8177 12.9597 11.7409 12.829 11.6872C12.6598 11.6181 12.5906 11.5491 12.3292 11.7102C12.1754 11.787 12.037 11.9021 11.8833 12.0556L11.2989 12.6312C10.9991 12.9228 10.5377 12.9919 10.1841 12.8614L9.97647 12.7693C9.66123 12.6005 9.29217 12.3395 8.88467 11.9942C8.51561 11.6795 8.1158 11.3112 7.63141 10.8353C7.25466 10.4516 6.87791 10.0449 6.48579 9.59209C6.12442 9.17 5.863 8.8093 5.70154 8.51L5.60927 8.27977C5.56314 8.10326 5.54776 8.00349 5.54776 7.89605C5.54776 7.61977 5.64772 7.37419 5.83994 7.18233L6.41659 6.58372C6.57036 6.43023 6.68569 6.28442 6.76258 6.15395C6.82409 6.05419 6.84716 5.96977 6.84716 5.89302C6.84716 5.83163 6.82409 5.73953 6.78565 5.64744C6.73183 5.52465 6.64725 5.38651 6.53961 5.2407L4.75583 2.72349C4.67894 2.61605 4.58667 2.5393 4.47134 2.48558C4.34832 2.43186 4.21761 2.40116 4.08691 2.40116ZM10.5147 11.81L10.3917 12.3319L10.5993 11.7947C10.5608 11.787 10.5301 11.7947 10.5147 11.81Z" fill="#2A2D2E"/>
</svg>
