<svg width="20" height="20" viewBox="0 0 20 20" fill="none" xmlns="http://www.w3.org/2000/svg">
  <path d="M18.3333 14.1V16.6C18.3343 16.8321 18.2867 17.0618 18.1937 17.2745C18.1008 17.4871 17.9644 17.678 17.7934 17.8349C17.6224 17.9918 17.4205 18.1113 17.2006 18.1856C16.9808 18.26 16.7477 18.2876 16.5167 18.2667C13.9523 17.9881 11.489 17.1118 9.32501 15.7083C7.31151 14.4289 5.60443 12.7219 4.32501 10.7083C2.91668 8.53438 2.04019 6.05917 1.76668 3.48337C1.74583 3.25293 1.77321 3.02069 1.84707 2.80137C1.92092 2.58206 2.03963 2.38058 2.19562 2.20969C2.35162 2.0388 2.54149 1.90225 2.75314 1.80881C2.96479 1.71537 3.19352 1.66695 3.42501 1.66671H5.92501C6.32943 1.66273 6.72148 1.80594 7.02812 2.06965C7.33476 2.33336 7.53505 2.69958 7.59168 3.10004C7.69724 3.9001 7.89286 4.68565 8.17501 5.44171C8.28714 5.73999 8.31137 6.06414 8.24497 6.37576C8.17857 6.68738 8.02428 6.97346 7.80001 7.20004L6.74168 8.25837C7.92795 10.3447 9.65537 12.0721 11.7417 13.2584L12.8 12.2C13.0266 11.9758 13.3127 11.8215 13.6243 11.7551C13.9359 11.6887 14.26 11.7129 14.5583 11.825C15.3144 12.1072 16.1 12.3028 16.9 12.4084C17.3048 12.4655 17.6745 12.6694 17.9388 12.9813C18.2032 13.2932 18.3437 13.6914 18.3333 14.1Z" stroke="currentColor" stroke-width="1.5" stroke-linecap="round" stroke-linejoin="round"/>
</svg>

