<svg width="48" height="48" viewBox="0 0 48 48" fill="none" xmlns="http://www.w3.org/2000/svg">
<g id="Icons">
<path id="Vector" d="M24 30C25.5913 30 27.1174 29.3679 28.2426 28.2426C29.3679 27.1174 30 25.5913 30 24C30 22.4087 29.3679 20.8826 28.2426 19.7574C27.1174 18.6321 25.5913 18 24 18C22.4087 18 20.8826 18.6321 19.7574 19.7574C18.6321 20.8826 18 22.4087 18 24C18 25.5913 18.6321 27.1174 19.7574 28.2426C20.8826 29.3679 22.4087 30 24 30Z" stroke="#2A2D2E" stroke-width="1.5" stroke-miterlimit="10" stroke-linecap="round" stroke-linejoin="round"/>
<path id="Vector_2" d="M4 25.76V22.24C4 20.16 5.7 18.44 7.8 18.44C11.42 18.44 12.9 15.88 11.08 12.74C10.04 10.94 10.66 8.59999 12.48 7.55999L15.94 5.57999C17.52 4.63999 19.56 5.2 20.5 6.78L20.72 7.15999C22.52 10.3 25.48 10.3 27.3 7.15999L27.52 6.78C28.46 5.2 30.5 4.63999 32.08 5.57999L35.54 7.55999C37.36 8.59999 37.98 10.94 36.94 12.74C35.12 15.88 36.6 18.44 40.22 18.44C42.3 18.44 44.02 20.14 44.02 22.24V25.76C44.02 27.84 42.32 29.56 40.22 29.56C36.6 29.56 35.12 32.12 36.94 35.26C37.98 37.08 37.36 39.4 35.54 40.44L32.08 42.42C30.5 43.36 28.46 42.8 27.52 41.22L27.3 40.84C25.5 37.7 22.54 37.7 20.72 40.84L20.5 41.22C19.56 42.8 17.52 43.36 15.94 42.42L12.48 40.44C11.6082 39.938 10.9712 39.1107 10.7087 38.1395C10.4462 37.1684 10.5798 36.1328 11.08 35.26C12.9 32.12 11.42 29.56 7.8 29.56C5.7 29.56 4 27.84 4 25.76Z" stroke="#2A2D2E" stroke-width="1.5" stroke-miterlimit="10" stroke-linecap="round" stroke-linejoin="round"/>
</g>
</svg>
