<svg width="36" height="36" viewBox="0 0 36 36" fill="none" xmlns="http://www.w3.org/2000/svg">
<g id="Icons">
<path id="Vector" d="M25.5 20.1V24.6C25.5 30.6 23.1 33 17.1 33H11.4C5.4 33 3 30.6 3 24.6V18.9C3 12.9 5.4 10.5 11.4 10.5H15.9" stroke="#2A2D2E" stroke-width="1.5" stroke-linecap="round" stroke-linejoin="round"/>
<path id="Vector_2" d="M17.4 3H23.4M10.5 7.5C10.5 5.01 12.51 3 15 3H18.93M33 12V21.285C33 23.61 31.11 25.5 28.785 25.5M33 12H28.5C25.125 12 24 10.875 24 7.5V3L33 12ZM25.5 20.1H20.7C17.1 20.1 15.9 18.9 15.9 15.3V10.5L25.5 20.1Z" stroke="#2A2D2E" stroke-width="1.5" stroke-linecap="round" stroke-linejoin="round"/>
</g>
</svg>
