<svg width="36" height="36" viewBox="0 0 36 36" fill="none" xmlns="http://www.w3.org/2000/svg">
<g id="Icons">
<path id="Vector" d="M12 3C12.0168 3.23255 12.0492 3.4651 12.0492 3.69765C12.0516 13.2332 12.0504 22.7688 12.054 32.3044C12.054 32.5359 12.0972 32.7685 12.12 33H15.9604C15.9856 32.7856 16.0336 32.5711 16.0336 32.3557C16.0384 28.349 16.0372 24.3423 16.0372 20.3356V19.6913H20.0396V33H23.88C23.916 32.7725 23.9844 32.545 23.9844 32.3175C23.9904 22.7628 23.9892 13.2081 23.9892 3.65336C23.9892 3.43591 23.9964 3.21745 24 3L12 3ZM19.9736 16.2846H16.0828V6.36242H19.9736V16.2846Z" fill="#2A2D2E"/>
<path id="Vector_2" d="M6.84038 6.31309V16.2977H10.4932V19.644H8.94816C8.41837 19.644 7.88631 19.6661 7.3588 19.6369C6.91428 19.6117 6.77785 19.7396 6.78013 20.1423C6.79945 22.9077 6.79036 25.6732 6.79036 28.4386C6.79036 29.244 7.24322 29.6466 8.14893 29.6466H10.5V33H3V3H10.5V6.31309H6.84038Z" fill="#2A2D2E"/>
<path id="Vector_3" d="M29.2349 6.76409C29.2338 14.2309 29.2371 21.6966 29.2259 29.1634C29.2259 29.5289 29.3267 29.6617 29.7565 29.6557C30.8376 29.6386 31.9188 29.6678 33 29.6779V33H25.6119C25.5828 32.7705 25.528 32.5409 25.5269 32.3114C25.5235 22.7587 25.5235 13.205 25.5224 3.65235C25.5224 3.4349 25.5078 3.21745 25.5 3H33V6.32215H29.2707C29.2528 6.53456 29.236 6.64933 29.2349 6.76409Z" fill="#2A2D2E"/>
</g>
</svg>
