<svg width="36" height="36" viewBox="0 0 36 36" fill="none" xmlns="http://www.w3.org/2000/svg">
<g id="Icons">
<path id="Vector" d="M16.1248 3.67498C17.1598 2.78998 18.8548 2.78998 19.9048 3.67498L22.2748 5.71498C22.7248 6.10498 23.5648 6.41998 24.1648 6.41998H26.7148C28.3048 6.41998 29.6098 7.72498 29.6098 9.31498V11.865C29.6098 12.45 29.9248 13.305 30.3148 13.755L32.3548 16.125C33.2398 17.16 33.2398 18.855 32.3548 19.905L30.3148 22.275C29.9248 22.725 29.6098 23.565 29.6098 24.165V26.715C29.6098 28.305 28.3048 29.61 26.7148 29.61H24.1648C23.5798 29.61 22.7248 29.925 22.2748 30.315L19.9048 32.355C18.8698 33.24 17.1748 33.24 16.1248 32.355L13.7548 30.315C13.3048 29.925 12.4648 29.61 11.8648 29.61H9.26982C7.67982 29.61 6.37482 28.305 6.37482 26.715V24.15C6.37482 23.565 6.05982 22.725 5.68482 22.275L3.65982 19.89C2.78982 18.855 2.78982 17.175 3.65982 16.14L5.68482 13.755C6.05982 13.305 6.37482 12.465 6.37482 11.88V9.31498C6.37482 7.72498 7.67982 6.41998 9.26982 6.41998H11.8648C12.4498 6.41998 13.3048 6.10498 13.7548 5.71498L16.1248 3.67498Z" stroke="#2A2D2E" stroke-width="1.5" stroke-linecap="round" stroke-linejoin="round"/>
<path id="Vector_2" d="M14.8352 22.2301L17.0102 23.9101C17.2952 24.1951 17.9252 24.3301 18.3452 24.3301H21.0002C21.8402 24.3301 22.7552 23.7001 22.9652 22.8601L24.6452 17.7301C24.9902 16.7551 24.3602 15.9001 23.3102 15.9001H20.5052C20.0852 15.9001 19.7402 15.5551 19.8002 15.0601L20.1452 12.8101C20.2802 12.1801 19.8602 11.4751 19.2302 11.2651C18.6752 11.0551 17.9702 11.3401 17.6852 11.7601L14.8052 16.0351" stroke="#2A2D2E" stroke-width="1.5" stroke-miterlimit="10"/>
<path id="Vector_3" d="M11.25 22.2299V15.3599C11.25 14.3699 11.67 14.0249 12.66 14.0249H13.365C14.34 14.0249 14.775 14.3699 14.775 15.3599V22.2299C14.775 23.2049 14.355 23.5649 13.365 23.5649H12.66C11.67 23.5649 11.25 23.2199 11.25 22.2299Z" stroke="#2A2D2E" stroke-width="1.5" stroke-linecap="round" stroke-linejoin="round"/>
</g>
</svg>
