<?xml version="1.0" ?><svg xmlns="http://www.w3.org/2000/svg" xmlns:xlink="http://www.w3.org/1999/xlink" version="1.1" id="Layer_1" viewBox="0 0 48 48" enable-background="new 0 0 48 48" xml:space="preserve"><path d="M35,2H17c-0.265625,0-0.5195313,0.1054688-0.7070313,0.2929688l-8,8C8.1054688,10.4804688,8,10.7348633,8,11v30  c0,2.7568359,2.2431641,5,5,5h22c2.7568359,0,5-2.2431641,5-5V7C40,4.2431641,37.7568359,2,35,2z M38,41  c0,1.6542969-1.3457031,3-3,3H13c-1.6542969,0-3-1.3457031-3-3V11.4140625L17.4140625,4H35c1.6542969,0,3,1.3457031,3,3V41z M17,14  h-5c-0.5527344,0-1-0.4477539-1-1s0.4472656-1,1-1h5c0.5517578,0,1-0.4487305,1-1V6c0-0.5522461,0.4472656-1,1-1s1,0.4477539,1,1v5  C20,12.6542969,18.6542969,14,17,14z M31.0703125,18.5727539c-1.2578182-1.0561523-2.8554688-1.6376953-4.4960938-1.6376953  c-2.0761719,0-4.0322266,0.9116211-5.3652344,2.5009766c-1.2021484,1.4321289-1.7744141,3.2470703-1.6113281,5.109375  c0.0709839,0.8104248,0.2849121,1.5841675,0.6135254,2.3027954l-4.295166,5.1176147  c-0.7080078,0.8447266-0.5976563,2.1083984,0.2470703,2.8173828l1.5322266,1.2861328  c0.3603516,0.3012695,0.8164063,0.4672852,1.2851563,0.4672852c0.5927734,0,1.1503906-0.2597656,1.5322266-0.7143555  l4.3092041-5.1360474c0.5693359,0.1477661,1.1513672,0.2493286,1.74646,0.2493286  c2.0761719,0,4.03125-0.9116211,5.3642578-2.5004883c1.203125-1.4326172,1.7753906-3.2470703,1.6123047-5.1098633  S32.5029297,19.7749023,31.0703125,18.5727539z M18.9824219,35c-0.0009766,0-0.0009766,0-0.0019531,0l-1.5322266-1.5168457  l3.8574219-4.7125244l1.5322266,1.4594116L18.9824219,35z M30.4013672,27.1494141  c-0.953125,1.1352539-2.3496094,1.7861328-3.8330078,1.7861328c-1.171875,0-2.3115234-0.4155273-3.2109375-1.1699219  c-1.0234375-0.8583984-1.6513672-2.0639648-1.7675781-3.3945313s0.2919922-2.6264648,1.1503906-3.6499023  c0.953125-1.1352539,2.3505859-1.7861328,3.8339844-1.7861328c1.171875,0,2.3115234,0.4155273,3.2109375,1.1699219  c1.0234375,0.8583984,1.6503906,2.0639648,1.7675781,3.3945313C31.6689453,24.8300781,31.2597656,26.1259766,30.4013672,27.1494141z  "/></svg>