<svg width="48" height="48" viewBox="0 0 48 48" fill="none" xmlns="http://www.w3.org/2000/svg">
  <path d="M18 38V32H14V28H18V24H14V20H18V10H26C29.1826 10 32.2348 11.2643 34.4853 13.5147C36.7357 15.7652 38 18.8174 38 22C38 25.1826 36.7357 28.2348 34.4853 30.4853C32.2348 32.7357 29.1826 34 26 34H22V38H18ZM22 28V24H18V28H22ZM22 20V14H26C27.5913 14 29.1174 14.6321 30.2426 15.7574C31.3679 16.8826 32 18.4087 32 20C32 21.5913 31.3679 23.1174 30.2426 24.2426C29.1174 25.3679 27.5913 26 26 26H22V20Z" fill="#2A2D2E"/>
  <path d="M22 20H26C27.0609 20 28.0783 20.4214 28.8284 21.1716C29.5786 21.9217 30 22.9391 30 24C30 25.0609 29.5786 26.0783 28.8284 26.8284C28.0783 27.5786 27.0609 28 26 28H22V20Z" fill="#2A2D2E"/>
</svg>

