<svg width="48" height="48" viewBox="0 0 48 48" fill="none" xmlns="http://www.w3.org/2000/svg">
  <path d="M38 8H36V6C36 5.46957 35.7893 4.96086 35.4142 4.58579C35.0391 4.21071 34.5304 4 34 4C33.4696 4 32.9609 4.21071 32.5858 4.58579C32.2107 4.96086 32 5.46957 32 6V8H16V6C16 5.46957 15.7893 4.96086 15.4142 4.58579C15.0391 4.21071 14.5304 4 14 4C13.4696 4 12.9609 4.21071 12.5858 4.58579C12.2107 4.96086 12 5.46957 12 6V8H10C8.93913 8 7.92172 8.42143 7.17157 9.17157C6.42143 9.92172 6 10.9391 6 12V40C6 41.0609 6.42143 42.0783 7.17157 42.8284C7.92172 43.5786 8.93913 44 10 44H38C39.0609 44 40.0783 43.5786 40.8284 42.8284C41.5786 42.0783 42 41.0609 42 40V12C42 10.9391 41.5786 9.92172 40.8284 9.17157C40.0783 8.42143 39.0609 8 38 8ZM38 40H10V20H38V40ZM38 16H10V12H38V16Z" fill="#2A2D2E"/>
</svg>

